<svg id="binance" xmlns="http://www.w3.org/2000/svg" width="230.53" height="42" viewBox="0 0 230.53 42">
  <g id="Group_4032" data-name="Group 4032">
    <path id="Path_514" data-name="Path 514" d="M29.157,17.648l8.157-8.154,8.161,8.161,4.744-4.747L37.314,0,24.41,12.9Z" transform="translate(-16.311)" fill="#f2b92e"/>
    <path id="Path_515" data-name="Path 515" d="M0,0H6.711V6.711H0Z" transform="translate(0 21) rotate(-45)" fill="#f2b92e"/>
    <path id="Path_516" data-name="Path 516" d="M29.144,73.4,37.3,81.561,45.461,73.4l4.747,4.74,0,0L37.3,91.051,24.4,78.15l-.007-.007Z" transform="translate(-16.298 -49.051)" fill="#f2b92e"/>
    <path id="Path_517" data-name="Path 517" d="M0,0H6.711V6.711H0Z" transform="translate(32.509 21.001) rotate(-45)" fill="#f2b92e"/>
    <path id="Path_518" data-name="Path 518" d="M58.413,53.6,53.6,48.78l-3.559,3.559-.411.408-.843.843-.007.007.007.01,4.813,4.81L58.413,53.6l0,0Z" transform="translate(-32.597 -32.598)" fill="#f2b92e"/>
  </g>
  <g id="Group_3573" data-name="Group 3573" transform="translate(55.126 8.743)">
    <path id="Path_519" data-name="Path 519" d="M148.37,30.68h11.275q4.2,0,6.348,2.174a5.616,5.616,0,0,1,1.663,4.1v.069a6.039,6.039,0,0,1-.257,1.841,5.651,5.651,0,0,1-.692,1.449,5.35,5.35,0,0,1-1,1.13,6.492,6.492,0,0,1-1.228.833,8.21,8.21,0,0,1,3.322,2.174,5.567,5.567,0,0,1,1.21,3.8v.069a6.319,6.319,0,0,1-.641,2.92,5.7,5.7,0,0,1-1.837,2.087,8.714,8.714,0,0,1-2.88,1.25,15.47,15.47,0,0,1-3.728.417H148.37Zm10.145,9.833a5.576,5.576,0,0,0,2.815-.609,2.1,2.1,0,0,0,1.036-1.964v-.069a2.149,2.149,0,0,0-.9-1.859,4.465,4.465,0,0,0-2.6-.641h-5.275v5.141Zm1.424,9.8a5.145,5.145,0,0,0,2.79-.641,2.2,2.2,0,0,0,1.007-2V47.6a2.286,2.286,0,0,0-.938-1.927,4.971,4.971,0,0,0-3.022-.725h-6.192v5.362Z" transform="translate(-148.37 -30.273)" fill="#f2b92e"/>
    <path id="Path_520" data-name="Path 520" d="M223.88,30.68h5.351V55.005H223.88Z" transform="translate(-196.522 -30.273)" fill="#f2b92e"/>
    <path id="Path_521" data-name="Path 521" d="M261,30.68h4.935L277.34,45.651V30.68h5.282V55.005h-4.554L266.29,39.542V55.005H261Z" transform="translate(-220.193 -30.273)" fill="#f2b92e"/>
    <path id="Path_522" data-name="Path 522" d="M347.047,30.2h4.927L362.4,54.7h-5.587l-2.225-5.456H344.3L342.076,54.7H336.62Zm5.63,14.318-3.239-7.891-3.225,7.891Z" transform="translate(-268.416 -29.967)" fill="#f2b92e"/>
    <path id="Path_523" data-name="Path 523" d="M423.74,30.68h4.935l11.4,14.971V30.68h5.282V55.005H440.8L429.022,39.542V55.005H423.74Z" transform="translate(-323.971 -30.273)" fill="#f2b92e"/>
    <path id="Path_524" data-name="Path 524" d="M514.6,54.717a12.655,12.655,0,0,1-4.971-.971,12.018,12.018,0,0,1-6.569-6.637,12.878,12.878,0,0,1-.938-4.9v-.069a12.623,12.623,0,0,1,3.547-8.88,12.04,12.04,0,0,1,3.985-2.71,13.007,13.007,0,0,1,5.141-.989,16.121,16.121,0,0,1,3.109.279,12.921,12.921,0,0,1,2.558.764,11.055,11.055,0,0,1,2.119,1.181,14.312,14.312,0,0,1,1.812,1.529l-3.4,3.927a12.94,12.94,0,0,0-2.9-2.018,7.416,7.416,0,0,0-3.319-.725,6.731,6.731,0,0,0-5.072,2.225,7.642,7.642,0,0,0-1.464,2.417,8.285,8.285,0,0,0-.518,2.938v.069a8.407,8.407,0,0,0,.518,2.935,7.724,7.724,0,0,0,1.449,2.431,6.688,6.688,0,0,0,5.072,2.261,7.434,7.434,0,0,0,3.525-.764,13.628,13.628,0,0,0,2.866-2.087l3.406,3.442a17.369,17.369,0,0,1-1.946,1.812,11.6,11.6,0,0,1-2.206,1.373,11.433,11.433,0,0,1-2.623.866A15.62,15.62,0,0,1,514.6,54.717Z" transform="translate(-373.953 -29.557)" fill="#f2b92e"/>
    <path id="Path_525" data-name="Path 525" d="M581.47,30.68h18.307v4.761H586.734v4.935h11.485v4.761H586.752v5.109h13.206v4.761H581.481Z" transform="translate(-424.555 -30.273)" fill="#f2b92e"/>
  </g>
</svg>
