<svg width="1023" height="602" viewBox="0 0 1023 602" fill="none" xmlns="http://www.w3.org/2000/svg">
<g opacity="0.1">
<path d="M569.406 547.514C569.946 547.514 570.486 547.514 571.025 547.528C607.053 547.833 645.479 559.39 686.171 571.614C742.479 588.552 800.706 606.06 857.061 594.476C926.705 580.166 1000.92 543.189 1050.74 497.965C1098.31 454.771 1096.07 429.948 1077.49 370.011C1063.27 324.106 1069.94 297.35 1077 269.022C1080.98 253.113 1085.07 236.648 1085.35 216.163C1085.93 172.497 988.158 127.579 916.775 94.7875C893.832 84.2463 874.019 75.1515 860.299 67.4473C760.421 11.3763 658.143 3.78332 571.241 3.78332H571.013C437.566 3.79723 330.288 22.8769 243.038 62.0794C194.958 83.704 164.303 119.458 131.838 157.297C112.349 180.02 92.2006 203.522 67.5788 224.466C24.7754 260.859 3.07984 301.313 3.11582 344.715C3.1398 396.1 33.6263 449.083 91.2532 497.923C141.648 540.658 203.82 573.38 266.293 590.068C328.909 606.783 390.853 588.649 450.771 571.099C492.171 558.973 531.328 547.514 569.406 547.514Z" fill="#6366F1"/>
<path d="M571.865 11.0704H570.87C446.933 11.1539 344.32 29.9277 257.178 68.4487C207.622 90.3653 177.064 126.606 144.73 164.988C128.144 184.665 110.994 205.011 90.6056 224.174C52.2756 260.205 33.3745 298.768 34.4538 338.777C35.7251 385.962 65.2282 434.718 119.773 479.733C174.102 524.582 244.237 558.987 302.812 569.528C354.682 578.859 409.191 563.729 461.888 549.113C500.434 538.419 536.869 528.295 570.138 528.295H571.026C608.348 528.504 648.021 535.095 690.021 542.062C804.507 561.073 922.891 580.722 1021.46 479.65C1059.36 440.809 1054.5 418.016 1044.83 372.612C1043.52 366.535 1042.14 360.054 1040.76 353.073C1034.16 319.683 1041.46 294.86 1047.9 272.958C1053.26 254.685 1058.33 237.427 1054.78 217.693C1047.75 178.658 967.638 139.636 903.271 108.291C878.157 96.0531 854.447 84.5107 839.06 74.7622C755.659 21.987 671.876 11.0704 571.865 11.0704Z" fill="#6366F1"/>
<path d="M569.334 522.287H571.026C601.38 522.385 634.709 526.167 670.005 530.186C780.497 542.744 905.741 556.984 993.567 462.267C1022.43 431.13 1019.76 406.794 1015.72 369.969C1015.07 364.017 1014.37 357.773 1013.79 351.126C1012.11 332.422 1016.08 309.949 1019.92 288.199C1024.68 261.165 1029.19 235.619 1022.76 219.724C1007.36 181.62 944.719 150.066 889.455 122.225C861.822 108.319 835.725 95.1631 816.932 82.1049C739.301 28.1477 665.375 17.2032 571.445 17.2032H570.414C455.304 17.3006 357.2 36.0883 270.526 74.6232C218.02 97.9861 186.934 135.701 154.025 175.626C141.085 191.327 127.712 207.555 112.433 223.784C79.0202 259.302 63.1653 295.973 65.3001 332.77C67.8666 376.798 95.5347 420.353 147.549 462.239C251.997 546.332 361.554 537.042 467.489 528.045C500.878 525.222 535.382 522.287 569.334 522.287Z" fill="#6366F1"/>
<path d="M571.013 521.912C592.793 521.926 616.168 523.08 640.921 524.304C753.968 529.853 882.103 536.152 964.975 445.162C989.129 418.628 989.045 395.696 988.913 363.976C988.89 357.106 988.853 350 989.081 342.351C989.357 332.603 990.964 320.323 992.691 307.335C996.889 275.391 1001.66 239.193 989.753 222.06C965.311 186.904 918.766 161.734 873.744 137.397C845.943 122.364 817.196 106.831 794.565 89.2667C722.882 33.6546 652.974 22.2096 570.102 22.2096H569.682C462.932 22.2513 369.337 41.3449 283.515 80.5752C227.315 106.26 195.317 146.297 158.271 192.662C150.331 202.591 142.128 212.868 133.421 223.311C104.889 257.563 91.9488 291.926 94.9591 325.455C98.593 366.048 125.529 406.335 174.989 445.19C280.349 527.961 391.453 525.486 509.069 522.816C529.337 522.357 550.337 521.898 571.013 521.912Z" fill="#6366F1"/>
<path d="M566.828 26.2145C383.813 26.2145 248.747 90.5181 153.929 222.783C130.447 255.547 120.516 287.726 124.414 318.432C129.199 356.118 155.117 393.277 201.458 428.877C312.49 514.166 439.617 521.23 571.026 521.23C577.046 521.23 583.235 521.244 589.579 521.272C700.887 521.647 853.295 522.051 936.863 428.543C958.871 403.929 976.129 342.045 975.337 290.591C975.013 269.231 971.415 240.402 956.112 224.466C930.195 197.459 897.67 178.477 863.238 158.368C832.14 140.234 799.998 121.46 772.654 96.0668C709.99 37.8959 650.42 26.4092 568.687 26.2145H566.828Z" fill="#6366F1"/>
<path d="M564.621 29.3155C461.756 29.3155 277.146 54.834 174.305 222.254C147.621 265.684 142.38 306.347 158.726 343.102C188.505 410.117 283.527 452.351 357.992 475.965C444.15 503.291 534.434 515.584 571.013 515.584C642.648 515.584 819.295 505.586 912.421 413.038C938.602 387.005 955.477 339.069 953.462 296.459C952.454 275.169 946.23 245.826 922.28 226.857C900.08 209.293 877.018 195.137 854.698 181.467C817.951 158.924 783.231 137.633 751.761 102.255C697.625 41.4003 645.215 29.6771 567.439 29.3155H564.621Z" fill="#6366F1"/>
<path d="M563.182 31.6383C431.414 31.6383 267.204 90.1986 194.862 221.754C173.814 259.997 171.247 296.516 187.21 330.267C217.229 393.75 305.678 435.733 374.578 459.764C456.767 488.453 538.932 501.344 571.026 501.344C673.231 501.344 810.792 469.318 887.716 397.755C917.279 370.248 933.709 333.91 931.646 300.548C929.871 271.831 915 247.12 888.651 229.097C873.792 218.931 859.508 209.947 845.692 201.27C803.416 174.708 766.909 151.777 731.901 107.137C682.322 43.9038 637.12 32.0972 565.988 31.6522C565.065 31.6383 564.118 31.6383 563.182 31.6383Z" fill="#6366F1"/>
<path d="M560.735 33.3346C436.799 33.3346 275.024 98.6812 215.969 221.281C199.011 256.478 198.424 290.146 214.23 321.352C270.202 431.964 514.478 481.68 571.013 481.68C657.256 481.68 779.826 455.856 865.192 383.417C896.255 357.05 911.606 328.625 909.579 301.202C907.6 274.473 888.987 250.22 855.73 231.085C850.237 227.914 844.936 224.897 839.803 221.976C785.786 191.201 750.107 170.87 712.856 110.919C672.907 46.5875 629.84 34.0299 564.345 33.3485C563.146 33.3346 561.935 33.3346 560.735 33.3346Z" fill="#6366F1"/>
<path d="M559.32 34.6002C455.987 34.6002 288.875 98.5145 238.013 220.878C224.316 253.808 225.504 285.515 241.515 315.08C298.698 420.659 520.438 468.107 571.025 468.107C624.838 468.107 868.239 395.682 884.357 311.131C889.634 283.513 869.294 257.118 823.936 232.657C757.386 196.778 736.098 180.368 695.814 113.45C659.978 53.9163 628.844 35.5041 562.57 34.628C561.491 34.6141 560.411 34.6002 559.32 34.6002Z" fill="#6366F1"/>
<path d="M556.514 35.629C506.551 35.629 445.554 52.8592 392.388 82.1324C347.45 106.886 288.204 151.011 261.292 220.613C249.718 250.568 251.793 279.98 267.48 308.071C320.837 403.609 518.124 458.679 571.026 458.679C629.744 458.679 838.628 388.687 853.188 310.616C858.321 283.053 838.316 257.174 793.714 233.685C728.555 199.378 716.502 180.632 680.667 114.368C648.717 55.2372 620.665 36.8528 560.688 35.6707C559.296 35.6429 557.893 35.629 556.514 35.629Z" fill="#6366F1"/>
<path d="M561.023 36.728C560.28 36.728 559.536 36.728 558.78 36.7419C458.158 38.0909 320.213 116.899 286.213 220.363C277.026 248.302 280.72 276.518 297.187 304.22C349.753 392.679 517.248 451.295 571.013 451.295C630.955 451.295 804.735 382.875 819.127 310.617C824.644 282.929 806.642 257.132 765.626 233.936C710.793 202.925 698.584 178.338 671.827 124.478L666.814 114.396C642.312 65.2781 617.019 36.728 561.023 36.728Z" fill="#6366F1"/>
<path d="M552.616 38.0767C472.754 38.0767 338.947 108.221 311.83 218.569C304.371 248.941 310.487 279.535 330 309.504C381.558 388.687 517.176 444.258 571.026 444.258C623.495 444.258 770.831 386.379 787.873 313.717C794.661 284.792 779.214 257.243 741.939 231.822C694.459 199.462 679.467 172.413 654.234 113.937C630.763 59.5344 605.266 39.7037 556.802 38.1462C555.435 38.1045 554.019 38.0767 552.616 38.0767Z" fill="#6366F1"/>
<path d="M557.605 40.1628C556.766 40.1628 555.926 40.1767 555.063 40.2045C466.649 42.7772 354.562 118.415 336.908 215.802C330.863 249.136 339.942 283.179 363.892 316.972C412.56 385.642 512.115 436.192 569.646 436.192H571.001C624.958 435.427 745.753 381.832 762.795 313.467C770.303 283.36 756.259 254.698 721.083 228.262C694.758 208.487 677.236 173.61 660.302 139.9C634.553 88.6269 610.195 40.1628 557.605 40.1628Z" fill="#6366F1"/>
<path d="M557.437 43.1804C556.118 43.1804 554.787 43.2221 553.443 43.3055C472.334 48.3397 373.595 118.957 361.59 212.228C355.569 259.037 378.212 300.214 398.276 326.512C442.015 383.862 517.716 427.528 570.977 425.957C630.247 424.191 716.022 374.823 733.628 316.193C743.246 284.124 732.704 252.932 702.29 223.464C684.6 206.331 670.664 177.893 655.912 147.785C630.703 96.3449 604.666 43.1804 557.437 43.1804Z" fill="#6366F1"/>
<path d="M555.338 47.8253C554.247 47.8253 553.156 47.8532 552.04 47.9227C478.582 52.039 392.328 118.846 385.984 208.098C383.129 248.371 399.956 294.304 432.169 334.119C471.555 382.805 525.895 413.747 571.001 412.704C626.673 411.522 685.008 372.042 703.789 322.812C717.077 287.977 710.589 251.667 684.996 217.805C673.47 202.549 663.228 180.201 652.375 156.56C628.964 105.523 602.495 47.8253 555.338 47.8253Z" fill="#6366F1"/>
<path d="M570.786 398.019C533.811 398.019 490.048 372.987 456.551 332.686C423.87 293.358 405.916 246.299 407.284 203.55C410.03 118.025 485.167 54.5975 550.877 51.1626C601.896 48.6038 628.952 113.186 650.708 165.168C657.748 181.981 664.392 197.848 671.108 209.78C692.18 247.175 694.087 288.547 676.469 326.303C656.465 369.176 614.009 397.991 570.822 398.019H570.786ZM553.876 54.4723C552.928 54.4723 551.969 54.5001 551.009 54.5418C486.57 57.9211 412.896 119.986 410.21 203.675C408.867 245.506 426.521 291.676 458.662 330.322C491.631 369.983 534.591 394.625 570.786 394.625H570.822C612.966 394.598 654.39 366.493 673.902 324.69C690.969 288.088 689.122 247.94 668.661 211.644C661.837 199.517 655.157 183.552 648.081 166.656C627.117 116.565 601.116 54.4723 553.876 54.4723Z" fill="#6366F1"/>
<path d="M546.932 63.7063C522.13 63.7063 497.292 75.7632 476.652 97.9441C451.73 124.7 435.528 163.513 434.364 199.211C433.189 235.465 448.924 277.477 476.448 311.604C503.924 345.647 538.752 366.59 569.634 367.619C600.421 368.648 628.197 351.154 645.803 319.614C665.052 285.153 667.666 241.348 652.639 205.316C649.173 197.014 645.731 187.836 642.085 178.115C623.352 128.177 600.025 66.0148 550.362 63.7897C549.222 63.7341 548.071 63.7063 546.932 63.7063Z" fill="#6366F1"/>
<path d="M547.759 76.8618C523.197 76.8618 504.44 92.0616 492.878 105.078C471.794 128.83 458.326 164.042 458.59 194.775C458.878 229.319 475.093 268.911 500.926 298.114C521.77 321.686 545.3 334.508 567.547 334.062C590.035 333.645 611.19 319.322 625.594 294.721C642.205 266.366 646.318 229.778 636.328 199.225C635.404 196.416 634.457 193.482 633.486 190.45C619.202 146.088 597.602 79.059 550.469 76.9174C549.558 76.8757 548.658 76.8618 547.759 76.8618Z" fill="#6366F1"/>
<path d="M550.733 96.1227C535.31 96.1227 519.899 104.397 507.27 119.486C491.403 138.426 482.096 165.739 482.984 190.743C484.675 238.873 520.906 295.611 565.077 296.613C585.153 297.03 598.19 284.403 605.493 273.709C619.837 252.682 625.174 221.239 619.058 193.607C614.044 170.884 594.304 96.6789 551.285 96.1227H550.733Z" fill="#6366F1"/>
<path d="M554.607 120.96C553.995 120.96 553.384 120.974 552.76 121.015C525.907 122.67 506.107 151.791 507.666 187.308C509.321 224.897 534.362 257.049 562.318 257.508H562.93C573.748 257.508 583.042 252.696 589.843 243.573C599.353 230.793 603.251 210.337 600.253 188.865C595.827 157.214 581.244 120.96 554.607 120.96Z" fill="#6366F1"/>
<path d="M555.494 150.873C555.218 150.873 554.943 150.873 554.655 150.9C548.958 151.206 543.633 154.238 539.651 159.397C534.722 165.822 532.204 175.028 532.767 184.679C533.847 203.551 545.912 218.639 559.512 218.625C565.101 218.556 569.922 216.052 573.484 211.394C578.173 205.233 580.272 195.749 579.265 185.347C577.61 168.437 568.747 150.873 555.494 150.873Z" fill="#6366F1"/>
</g>
</svg>
