<svg xmlns="http://www.w3.org/2000/svg" width="163.696" height="32" viewBox="-5304.919 -4923 163.696 32"><g data-name="Coindesk"><path d="M-5290.526-4906.998c0 .872.681 1.553 1.554 1.553.872 0 1.553-.681 1.553-1.553 0-.873-.681-1.554-1.553-1.554-.873.027-1.554.709-1.554 1.554m13.03-1.527c-.872 0-1.554.682-1.554 1.554s.682 1.554 1.554 1.554 1.554-.682 1.554-1.554-.682-1.554-1.554-1.554m0 11.667c-.872 0-1.554.682-1.554 1.554s.682 1.554 1.554 1.554 1.554-.682 1.554-1.554-.682-1.554-1.554-1.554" fill="#fff" fill-rule="evenodd" data-name="Path 398"/><path d="M-5274.197-4921.364c-1.554-1.936-4.335-2.018-5.97-.491l-.191.19-.382.3c-1.554 1.255-3.87 1.145-5.316-.3v-.108a4.258 4.258 0 0 0-1.826-1.063c-.109 0-.3-.11-.382-.11h-1.553c-.11 0-.191 0-.3.11h-.191c-.11 0-.19.109-.3.109 0 0-.109 0-.109.109-.109 0-.19.109-.3.109 0 0-.109 0-.109.109-.109.109-.19.109-.3.19 0 0-.109 0-.109.11-.109.109-.19.109-.3.19l-.109.11-.19.19-.382.3c-1.554 1.254-3.871 1.145-5.207-.3 0 0-.109 0-.109-.109l-.19-.19c-.573-.491-1.255-.873-2.018-.955h-1.745c0 .11-.109.11-.19.191h-.028c-.49.19-.954.382-1.363.763l-.109.11-.3.3c-.381.381-.572.872-.763 1.253 0 .11-.109.191-.109.3 0 .11-.109.191-.109.382-.109.681-.109 1.363.11 2.017 0 .11.108.19.108.3v.109c0 .109.11.19.11.3.108.109.108.19.19.381.19.11.382.3.49.382l.192.19.19.192c1.445 1.444 1.445 3.952-.109 5.506-.19.191-.49.49-.572.682-.11.109-.11.19-.19.381v.11c-.11.108-.11.19-.192.3v.108c0 .11-.109.191-.109.3v.11c0 .108 0 .19-.109.3v1.444c0 .109 0 .19.11.3v.109c.19.681.572 1.363 1.144 1.935 1.554 1.554 1.554 4.062 0 5.588l-.109.11-.19.19v.11c-.11.108-.192.19-.192.3 0 0 0 .108-.109.108-.109.11-.109.191-.19.3l-.11.11c0 .108-.108.108-.108.19s-.11.11-.11.19c0 .11 0 .11-.109.192-.19.381-.3.872-.3 1.254v.763c.11.3.11.572.3.763 0 .11.11.191.11.191s0 .11.109.11c0 .108.109.19.109.299 0 0 0 .109.109.109.109.19.19.3.3.382 0 0 0 .109.108.109 0 0 0 .109.11.109 0 .109.109.109.109.109l.109.109c.109.109.19.109.19.19l.11.11s.109 0 .109.109c.109.109.19.19.3.19 0 0 .108 0 .108.11.11.109.191.109.3.19h.055c.109.11.19.11.381.11.11 0 .3.108.382.108h.11c.108 0 .19 0 .299.11h.872c.3 0 .491-.11.764-.11h.109c.109 0 .19-.109.3-.109h.054c.109 0 .19-.109.3-.109h.109c.19-.109.49-.3.681-.381l.3-.3.11-.11c1.553-1.635 4.061-1.635 5.588 0 1.744 1.827 4.634 1.745 6.27-.299 1.144-1.445 1.144-3.571 0-5.125-1.554-1.935-4.335-2.017-5.97-.49l-.191.19-.382.3c-1.554 1.254-3.87 1.145-5.316-.3l-.19-.19-.3-.382c-1.254-1.554-1.145-3.871.3-5.316.872-.763 1.253-1.826 1.253-2.89v-.3c0-.954-.381-1.935-1.144-2.616 0-.11-.11-.11-.11-.191l-.3-.382c-1.253-1.554-1.144-3.87.3-5.316l.11-.109.109-.109c1.553-1.635 4.061-1.635 5.588 0l.109.11.109.108.19.191c.11 0 .11.11.192.11.081 0 .109.108.19.108.082 0 .11.11.191.11.082 0 .11.108.191.108.082 0 .11.11.19.11.083 0 .11.109.192.109.081 0 .109 0 .19.109.11 0 .11 0 .191.109h1.636c.109 0 .19 0 .3-.11h.19c.11 0 .191-.108.3-.108h.11c.109 0 .19-.11.381-.191.382-.191.763-.49 1.063-.764l.11-.109c1.553-1.635 4.061-1.635 5.588 0 1.635 1.936 4.634 1.827 6.188-.19 1.036-1.772 1.036-3.899-.11-5.343" fill="#fff" fill-rule="evenodd" data-name="Path 399"/><path d="M-5252.199-4909.397c-.572-.573-1.063-.954-1.744-1.254-.573-.3-1.254-.49-2.127-.49-.763 0-1.553.19-2.126.49-.572.3-1.063.681-1.445 1.254a4.997 4.997 0 0 0-.872 1.744c-.19.682-.3 1.363-.3 2.018 0 .654.11 1.363.382 2.017.19.681.572 1.145.954 1.635.382.491.954.873 1.554 1.145.572.3 1.254.382 2.017.382.872 0 1.554-.19 2.126-.49.573-.3 1.145-.682 1.636-1.255l2.017 2.127a6.535 6.535 0 0 1-2.617 1.826c-.954.382-2.017.573-3.19.573-1.144 0-2.316-.191-3.27-.573a7.542 7.542 0 0 1-2.508-1.635 7.543 7.543 0 0 1-1.636-2.508c-.382-.955-.572-2.127-.572-3.272s.19-2.317.572-3.27c.382-.955.954-1.827 1.636-2.618a7.543 7.543 0 0 1 2.508-1.635c.954-.382 2.126-.573 3.27-.573 1.146 0 2.209.19 3.19.573 1.063.381 1.936 1.063 2.699 1.826l-2.154 1.963m6.543 3.57c0 .764.109 1.555.381 2.127.191.682.573 1.254.955 1.745.381.49.954.872 1.553 1.063.573.3 1.363.381 2.127.381.763 0 1.444-.109 2.126-.381.572-.3 1.145-.682 1.554-1.063.381-.491.763-1.063.954-1.745.19-.681.381-1.363.381-2.126 0-.764-.109-1.554-.381-2.126-.191-.682-.573-1.254-.954-1.745a3.258 3.258 0 0 0-1.554-1.063c-.573-.3-1.363-.382-2.126-.382-.764 0-1.445.11-2.127.382-.572.3-1.145.681-1.553 1.063-.382.49-.764 1.063-.955 1.745-.19.681-.381 1.362-.381 2.126Zm-3.08 0c0-1.144.19-2.207.572-3.189a7.728 7.728 0 0 1 1.745-2.617c.763-.763 1.553-1.363 2.616-1.744.955-.382 2.018-.682 3.19-.682 1.172 0 2.208.191 3.19.682a7.729 7.729 0 0 1 2.616 1.744c.764.764 1.254 1.636 1.745 2.617.382.954.572 2.018.572 3.19 0 1.145-.19 2.208-.572 3.19a7.729 7.729 0 0 1-1.745 2.616c-.763.763-1.554 1.254-2.617 1.745-.954.381-2.017.681-3.19.681-1.144 0-2.207-.19-3.188-.681a7.73 7.73 0 0 1-2.617-1.745c-.764-.763-1.254-1.554-1.745-2.617-.273-.981-.573-2.044-.573-3.19Zm19.218 7.824h2.89v-15.429h-2.89v15.43Zm-.682-21.044c0-.573.191-1.063.573-1.554.381-.382.872-.682 1.444-.682.573 0 1.064.191 1.445.682.382.381.573.954.573 1.554 0 .6-.191 1.063-.573 1.554-.381.381-.872.681-1.445.681-.572 0-1.063-.19-1.444-.681-.382-.41-.573-.982-.573-1.554Zm7.606 5.588h2.917v2.399h.109c.381-.872.954-1.554 1.935-2.017.872-.491 1.936-.764 3.19-.764.763 0 1.444.11 2.126.382.681.19 1.254.572 1.744 1.063.491.49.873 1.063 1.254 1.827.3.763.491 1.635.491 2.698v9.95h-2.944v-9.16c0-.68-.109-1.362-.3-1.826-.19-.49-.49-.954-.763-1.254-.3-.3-.682-.572-1.145-.681a5.138 5.138 0 0 0-1.363-.19c-.573 0-1.145.108-1.636.299-.49.19-.954.49-1.363.954-.381.382-.681.954-.872 1.636a8.53 8.53 0 0 0-.3 2.317v8.014h-2.89v-15.62m24.235 13.003c.763 0 1.444-.109 2.126-.381.682-.3 1.145-.682 1.636-1.145.381-.491.763-1.063.954-1.745.19-.681.381-1.363.381-2.208 0-.763-.109-1.554-.381-2.208-.191-.682-.573-1.254-.954-1.745-.491-.49-.954-.872-1.636-1.145-.682-.3-1.363-.381-2.126-.381-.764 0-1.445.109-2.127.381-.681.3-1.144.682-1.635 1.145-.382.491-.763 1.063-.954 1.745-.191.681-.382 1.363-.382 2.208 0 .763.11 1.554.382 2.208.19.682.572 1.254.954 1.745.381.49.954.872 1.635 1.145.573.19 1.363.381 2.127.381Zm8.014 2.317h-2.89v-2.208h-.108c-.573.873-1.363 1.445-2.318 1.936-.954.49-2.017.681-3.08.681-1.145 0-2.317-.19-3.271-.572-.954-.382-1.827-.954-2.508-1.745-.682-.763-1.254-1.635-1.554-2.617-.381-.954-.572-2.017-.572-3.19 0-1.171.19-2.207.572-3.27.382-.955.872-1.827 1.554-2.617a6.722 6.722 0 0 1 2.508-1.745c.954-.382 2.017-.572 3.271-.572 1.063 0 2.126.19 3.08.681.955.49 1.745 1.145 2.209 1.936h.109V-4923h2.89v24.888h.108Zm14.748-8.968c0-.682-.11-1.254-.3-1.827a3.67 3.67 0 0 0-.872-1.444c-.382-.382-.873-.682-1.363-.954-.573-.191-1.145-.382-1.936-.382-.681 0-1.363.109-1.935.382-.573.3-1.063.572-1.554 1.063-.382.381-.763.872-.954 1.444-.191.573-.382 1.064-.382 1.554h9.269l.027.164Zm-9.241 2.399c0 .681.19 1.254.49 1.826.3.573.682 1.063 1.145 1.445.491.382 1.063.681 1.636.872.681.191 1.254.3 1.935.3.873 0 1.745-.19 2.4-.681.68-.382 1.253-.955 1.826-1.636l2.208 1.745c-1.636 2.126-3.953 3.19-6.843 3.19-1.254 0-2.317-.192-3.27-.573-.955-.382-1.827-.954-2.509-1.745-.681-.763-1.254-1.554-1.553-2.617-.382-.954-.573-2.017-.573-3.19 0-1.144.19-2.207.573-3.189.381-.954.954-1.826 1.635-2.617.682-.763 1.554-1.254 2.508-1.744.954-.382 2.017-.573 3.19-.573 1.362 0 2.507.19 3.461.682.955.49 1.745 1.063 2.318 1.826.572.763 1.063 1.636 1.363 2.617.3.954.381 1.935.381 2.999v1.063h-12.321Zm23.716-4.907c-.382-.382-.763-.763-1.254-1.063-.49-.3-1.145-.49-1.826-.49-.682 0-1.254.19-1.827.49-.49.3-.763.681-.763 1.254 0 .49.19.872.49 1.063.3.3.682.49 1.064.681.381.191.872.3 1.254.382.49.109.872.19 1.145.19.572.192 1.253.3 1.744.573a3.67 3.67 0 0 1 1.445.873c.382.381.681.763.954 1.254.19.49.382 1.063.382 1.826 0 .872-.191 1.636-.573 2.208-.381.573-.872 1.145-1.445 1.554-.572.409-1.253.681-2.017.872-.763.191-1.554.3-2.208.3-1.254 0-2.399-.19-3.38-.572-.954-.382-1.827-1.064-2.617-2.127l2.208-1.826c.49.49.954.872 1.554 1.254.6.382 1.254.572 2.126.572.382 0 .763 0 1.145-.109s.682-.19.954-.381c.3-.191.49-.382.682-.573.19-.3.3-.572.3-.872 0-.382-.11-.763-.382-1.063-.3-.3-.573-.49-.954-.682a4.71 4.71 0 0 0-1.145-.381l-1.145-.3c-.573-.191-1.254-.3-1.745-.49a5.523 5.523 0 0 1-1.445-.764c-.381-.3-.763-.764-1.063-1.254-.3-.49-.381-1.145-.381-1.827 0-.763.19-1.553.49-2.126.3-.572.764-1.063 1.363-1.445.573-.381 1.145-.681 1.827-.872.681-.19 1.445-.3 2.126-.3 1.063 0 2.017.191 2.999.573.954.381 1.744 1.063 2.317 1.935l-2.4 1.663m5.616-13.03h2.89v15.62l6.57-6.57h3.952l-7.033 6.951 7.715 8.287h-4.144l-7.033-7.905v7.905h-2.89v-24.288" fill="#fff" fill-rule="evenodd" data-name="Path 400"/></g></svg>