<svg width="165" height="32" viewBox="0 0 165 32" fill="none" xmlns="http://www.w3.org/2000/svg">
<path d="M28 26.1423C27.1277 26.1423 26.4462 26.8238 26.4462 27.6961C26.4462 28.5684 27.1277 29.2499 28 29.2499C28.8723 29.2499 29.5538 28.5684 29.5538 27.6961C29.5538 26.8238 28.8723 26.1423 28 26.1423Z" fill="white"/>
<path d="M31.2987 1.63562C29.7449 -0.299805 26.9643 -0.381622 25.3287 1.14493L25.1379 1.33578L24.7563 1.63562C23.2025 2.88959 20.8854 2.78052 19.4406 1.33578V1.22672C18.9499 0.736084 18.2957 0.354401 17.6142 0.163605C17.5051 0.163605 17.3143 0.0545654 17.2325 0.0545654H15.6787C15.5697 0.0545654 15.4879 0.0545654 15.3788 0.163605H15.188C15.079 0.163605 14.9972 0.272614 14.8882 0.272614C14.8882 0.272614 14.7791 0.272614 14.7791 0.381683C14.6701 0.381683 14.5883 0.490692 14.4793 0.490692C14.4793 0.490692 14.3702 0.490692 14.3702 0.599762C14.2612 0.708771 14.1794 0.708771 14.0704 0.790588C14.0704 0.790588 13.9613 0.790588 13.9613 0.899628C13.8523 1.00864 13.7705 1.00864 13.6615 1.09045L13.5524 1.19946L13.3616 1.39032L12.98 1.69016C11.4261 2.94412 9.10904 2.83505 7.7733 1.39032C7.7733 1.39032 7.66426 1.39032 7.66426 1.28125L7.47344 1.09045C6.90099 0.599762 6.21948 0.218109 5.4562 0.136322H3.71156C3.71156 0.245361 3.60252 0.245361 3.52074 0.327148H3.49348C3.0028 0.517975 2.53938 0.708771 2.13048 1.09045L2.02144 1.19946L1.72158 1.49933C1.33994 1.88101 1.14912 2.37167 0.9583 2.75333C0.9583 2.86237 0.84926 2.94412 0.84926 3.05313C0.84926 3.1622 0.740221 3.24399 0.740221 3.43481C0.631182 4.1163 0.631182 4.79779 0.84926 5.45206C0.84926 5.5611 0.9583 5.64288 0.9583 5.75195V5.86096C0.9583 5.96997 1.06734 6.05176 1.06734 6.1608C1.17638 6.26984 1.17638 6.35162 1.25816 6.54239C1.44898 6.65146 1.6398 6.84235 1.74884 6.92407L1.93966 7.11493L2.13048 7.30573C3.57526 8.75052 3.57526 11.2584 2.02144 12.8122C1.83062 13.0031 1.53076 13.3029 1.44898 13.4938C1.33994 13.6028 1.33994 13.6846 1.25816 13.8754V13.9844C1.14912 14.0935 1.14912 14.1753 1.06734 14.2843V14.3933C1.06734 14.5023 0.9583 14.5842 0.9583 14.6932V14.8022C0.9583 14.9113 0.9583 14.993 0.84926 15.1021V16.5468C0.84926 16.6559 0.84926 16.7377 0.9583 16.8467V16.9558C1.14912 17.6372 1.53076 18.3188 2.10322 18.8912C3.65704 20.4451 3.65704 22.953 2.10322 24.4795L1.99418 24.5886L1.80336 24.7794V24.8885C1.69432 24.9975 1.61254 25.0793 1.61254 25.1883C1.61254 25.1883 1.61254 25.2973 1.5035 25.2973C1.39446 25.4064 1.39446 25.4882 1.31268 25.5972L1.20364 25.7062C1.20364 25.8153 1.0946 25.8153 1.0946 25.8971C1.0946 25.9788 0.985561 26.0061 0.985561 26.0879C0.985561 26.1969 0.985561 26.1969 0.87652 26.2787C0.685699 26.6603 0.57666 27.1511 0.57666 27.5327V28.2959C0.685699 28.5958 0.685699 28.8684 0.87652 29.0592C0.87652 29.1683 0.985561 29.25 0.985561 29.25C0.985561 29.25 0.985561 29.3591 1.0946 29.3591C1.0946 29.4681 1.20364 29.55 1.20364 29.659C1.20364 29.659 1.20364 29.768 1.31268 29.768C1.42172 29.9588 1.5035 30.0678 1.61254 30.1496C1.61254 30.1496 1.61254 30.2587 1.72158 30.2587C1.72158 30.2587 1.72158 30.3677 1.83062 30.3677C1.83062 30.4767 1.93966 30.4767 1.93966 30.4767L2.0487 30.5858C2.15774 30.6948 2.23952 30.6948 2.23952 30.7766L2.34856 30.8856C2.34856 30.8856 2.4576 30.8856 2.4576 30.9947C2.56664 31.1037 2.64842 31.1855 2.75746 31.1855C2.75746 31.1855 2.8665 31.1855 2.8665 31.2946C2.97554 31.4036 3.05732 31.4036 3.16636 31.4854H3.22088C3.32992 31.5944 3.4117 31.5944 3.60252 31.5944C3.71156 31.5944 3.90238 31.7035 3.98416 31.7035H4.0932C4.20224 31.7035 4.28402 31.7035 4.39306 31.8125H5.26538C5.56524 31.8125 5.75606 31.7035 6.02866 31.7035H6.1377C6.24674 31.7035 6.32852 31.5944 6.43756 31.5944H6.49208C6.60112 31.5944 6.6829 31.4854 6.79194 31.4854H6.90098C7.0918 31.3763 7.39166 31.1855 7.58249 31.1037L7.88234 30.8039L7.99138 30.6948C9.5452 29.0592 12.0531 29.0592 13.5797 30.6948C15.3243 32.5213 18.2139 32.4395 19.8495 30.395C20.9944 28.9502 20.9944 26.8239 19.8495 25.2701C18.2957 23.3347 15.5151 23.2529 13.8795 24.7794L13.6887 24.9702L13.3071 25.2701C11.7533 26.524 9.43616 26.415 7.99138 24.9702L7.80057 24.7794L7.5007 24.3978C6.24674 22.8439 6.35578 20.5268 7.80057 19.0821C8.67288 18.3188 9.05452 17.2556 9.05452 16.1925V15.8927C9.05452 14.9385 8.67288 13.9572 7.9096 13.2757C7.9096 13.1667 7.80056 13.1667 7.80056 13.0848L7.5007 12.7032C6.24674 11.1494 6.35578 8.83228 7.80056 7.38751L7.9096 7.27847L8.01864 7.16943C9.57246 5.53384 12.0804 5.53384 13.6069 7.16943L13.716 7.27847L13.825 7.38751L14.0158 7.57834C14.1249 7.57834 14.1249 7.68738 14.2067 7.68738C14.2884 7.68738 14.3157 7.79642 14.3975 7.79642C14.4793 7.79642 14.5065 7.90543 14.5883 7.90543C14.6701 7.90543 14.6973 8.0145 14.7791 8.0145C14.8609 8.0145 14.8882 8.1235 14.9699 8.1235C15.0517 8.1235 15.079 8.23257 15.1608 8.23257C15.2425 8.23257 15.2698 8.23257 15.3516 8.34158C15.4606 8.34158 15.4606 8.34158 15.5424 8.45065H17.178C17.287 8.45065 17.3688 8.45065 17.4779 8.34158H17.6687C17.7777 8.34158 17.8595 8.23257 17.9685 8.23257H18.0776C18.1866 8.23257 18.2684 8.1235 18.4592 8.04172C18.8409 7.85092 19.2225 7.55109 19.5224 7.27847L19.6314 7.16943C21.1852 5.53384 23.6931 5.53384 25.2197 7.16943C26.8553 9.10489 29.8539 8.99582 31.4077 6.97858C32.4436 5.20667 32.4436 3.08038 31.2987 1.63562Z" fill="white"/>
<path d="M59.8399 17.1738C59.8399 17.9371 59.9489 18.7276 60.2215 19.3001C60.4123 19.9816 60.794 20.554 61.1756 21.0447C61.5573 21.5354 62.1297 21.917 62.7295 22.1078C63.3019 22.4077 64.0925 22.4895 64.8557 22.4895C65.619 22.4895 66.3005 22.3804 66.982 22.1078C67.5545 21.808 68.1269 21.4263 68.5358 21.0447C68.9175 20.554 69.2991 19.9816 69.4899 19.3001C69.6808 18.6186 69.8716 17.9371 69.8716 17.1738C69.8716 16.4105 69.7625 15.62 69.4899 15.0475C69.2991 14.366 68.9175 13.7935 68.5358 13.3029C68.1542 12.8122 67.5817 12.4305 66.982 12.2397C66.4095 11.9398 65.619 11.8581 64.8557 11.8581C64.0925 11.8581 63.4109 11.9671 62.7295 12.2397C62.157 12.5396 61.5845 12.9212 61.1756 13.3029C60.794 13.7935 60.4123 14.366 60.2215 15.0475C60.0307 15.729 59.8399 16.4105 59.8399 17.1738ZM56.7595 17.1738C56.7595 16.0289 56.9503 14.9657 57.332 13.9844C57.7136 13.0303 58.2861 12.158 59.0766 11.3674C59.8399 10.6041 60.6304 10.0044 61.6936 9.62277C62.6477 9.24112 63.7108 8.94125 64.883 8.94125C66.0552 8.94125 67.0911 9.13208 68.0724 9.62277C69.0265 10.0044 69.8988 10.5769 70.6894 11.3674C71.4527 12.1307 71.9433 13.003 72.434 13.9844C72.8157 14.9385 73.0065 16.0016 73.0065 17.1738C73.0065 18.3187 72.8157 19.3819 72.434 20.3632C72.0524 21.3174 71.4799 22.1897 70.6894 22.9802C69.9261 23.7435 69.1356 24.2342 68.0724 24.7248C67.1183 25.1064 66.0552 25.4063 64.883 25.4063C63.7381 25.4063 62.6749 25.2155 61.6936 24.7248C60.7395 24.3432 59.8672 23.7707 59.0766 22.9802C58.3133 22.2169 57.8227 21.4263 57.332 20.3632C57.0594 19.3819 56.7595 18.3187 56.7595 17.1738ZM75.9778 24.9974H78.8674V9.56827H75.9778V24.9974ZM75.2963 3.9527C75.2963 3.38025 75.4871 2.88956 75.8688 2.39886C76.2504 2.01724 76.7411 1.71738 77.3135 1.71738C77.886 1.71738 78.3767 1.9082 78.7583 2.39886C79.14 2.78049 79.3308 3.35297 79.3308 3.9527C79.3308 4.5524 79.14 5.01581 78.7583 5.50653C78.3767 5.88815 77.886 6.18802 77.3135 6.18802C76.7411 6.18802 76.2504 5.99719 75.8688 5.50653C75.4871 5.09763 75.2963 4.52515 75.2963 3.9527ZM107.327 22.5713C108.09 22.5713 108.772 22.4622 109.453 22.1897C110.135 21.8898 110.598 21.5081 111.089 21.0447C111.47 20.554 111.852 19.9816 112.043 19.3001C112.234 18.6186 112.424 17.9371 112.424 17.092C112.424 16.3287 112.315 15.5382 112.043 14.8839C111.852 14.2025 111.47 13.63 111.089 13.1393C110.598 12.6486 110.135 12.267 109.453 11.9944C108.772 11.6945 108.09 11.6127 107.327 11.6127C106.564 11.6127 105.882 11.7218 105.201 11.9944C104.519 12.2943 104.056 12.6759 103.565 13.1393C103.183 13.63 102.802 14.2025 102.611 14.8839C102.42 15.5655 102.229 16.2469 102.229 17.092C102.229 17.8553 102.338 18.6458 102.611 19.3001C102.802 19.9816 103.183 20.554 103.565 21.0447C103.947 21.5354 104.519 21.917 105.201 22.1897C105.773 22.3804 106.564 22.5713 107.327 22.5713ZM115.341 24.8884H112.452V22.6803H112.343C111.77 23.5526 110.98 24.1251 110.026 24.6158C109.071 25.1064 108.008 25.2973 106.945 25.2973C105.8 25.2973 104.628 25.1064 103.674 24.7248C102.72 24.3432 101.848 23.7707 101.166 22.9802C100.485 22.2169 99.9121 21.3446 99.6122 20.3632C99.2306 19.4091 99.0397 18.346 99.0397 17.1738C99.0397 16.0016 99.2306 14.9657 99.6122 13.9026C99.9939 12.9485 100.485 12.0762 101.166 11.2856C101.848 10.5224 102.72 9.92261 103.674 9.54099C104.628 9.15936 105.691 8.96851 106.945 8.96851C108.008 8.96851 109.071 9.15936 110.026 9.64999C110.98 10.1407 111.77 10.7949 112.234 11.5855H112.343V0H115.232V24.8884H115.341ZM130.089 15.9198C130.089 15.2383 129.98 14.6659 129.789 14.0934C129.598 13.5209 129.298 13.0303 128.917 12.6486C128.535 12.267 128.044 11.9671 127.554 11.6945C126.981 11.5037 126.409 11.3129 125.618 11.3129C124.937 11.3129 124.255 11.4219 123.683 11.6945C123.11 11.9944 122.62 12.267 122.129 12.7577C121.747 13.1393 121.366 13.63 121.175 14.2025C120.984 14.7749 120.793 15.2656 120.793 15.7563H130.062L130.089 15.9198ZM120.848 18.3187C120.848 19.0002 121.039 19.5727 121.338 20.1452C121.638 20.7176 122.02 21.2083 122.483 21.5899C122.974 21.9716 123.547 22.2714 124.119 22.4622C124.8 22.6531 125.373 22.7621 126.054 22.7621C126.927 22.7621 127.799 22.5713 128.453 22.0806C129.135 21.6989 129.707 21.1265 130.28 20.445L132.488 22.1897C130.852 24.3159 128.535 25.3791 125.646 25.3791C124.392 25.3791 123.328 25.1883 122.374 24.8066C121.42 24.425 120.548 23.8525 119.866 23.062C119.185 22.2987 118.612 21.5081 118.313 20.445C117.931 19.4909 117.74 18.4278 117.74 17.2556C117.74 16.1107 117.931 15.0475 118.313 14.0661C118.694 13.112 119.267 12.2397 119.948 11.4492C120.63 10.6859 121.502 10.1952 122.456 9.70453C123.41 9.32294 124.473 9.13208 125.646 9.13208C127.009 9.13208 128.153 9.32294 129.108 9.81357C130.062 10.3043 130.852 10.8767 131.425 11.64C131.997 12.4033 132.488 13.2756 132.788 14.257C133.088 15.2111 133.169 16.1924 133.169 17.2556V18.3187H120.848ZM150.18 0.381622H153.069V16.0016L159.639 9.43195H163.591L156.558 16.3833L164.273 24.6703H160.129L153.096 16.7649V24.6703H150.207V0.381622" fill="white"/>
</svg>
