<svg xmlns="http://www.w3.org/2000/svg" width="48" height="48" viewBox="0 0 48 48">
  <circle id="Ellipse_239" data-name="Ellipse 239" cx="24" cy="24" r="24" fill="#6366f1" opacity="0.1"/>
  <circle id="Ellipse_245" data-name="Ellipse 245" cx="18" cy="18" r="18" transform="translate(6 6)" fill="#6366f1" opacity="0.15"/>
  <path id="Path_16259" data-name="Path 16259" d="M38.045,21.046a1.721,1.721,0,0,1-.323-.031,3.1,3.1,0,0,1-.8-.326L31.35,17.905a2.943,2.943,0,0,1-.776-.473A1.9,1.9,0,0,1,30.1,16.7a3.152,3.152,0,0,1-.1-1.047l0-5.711L27.31,8.6a.78.78,0,0,1,0-1.4L37.342,2.187a1.753,1.753,0,0,1,.426-.172A1.308,1.308,0,0,1,38.307,2a1.959,1.959,0,0,1,.524.209L48.813,7.2a.779.779,0,0,1,0,1.4L46.128,9.942v5.775a2.928,2.928,0,0,1-.079.911,1.883,1.883,0,0,1-.441.751,3.157,3.157,0,0,1-.89.552l-5.562,2.783a2.879,2.879,0,0,1-.7.287,2.1,2.1,0,0,1-.413.045m-6.453-4.8c.005,0,.021.022.041.042a1.763,1.763,0,0,0,.358.2l5.675,2.835a1.7,1.7,0,0,0,.41.177,2,2,0,0,0,.336-.152l5.665-2.834a1.77,1.77,0,0,0,.471-.275c-.031.025-.008-.01.005-.046a1.681,1.681,0,0,0,.016-.411l0-5.057-5.786,2.892a1.624,1.624,0,0,1-.429.173,1.341,1.341,0,0,1-.536.011,1.9,1.9,0,0,1-.531-.212l-5.729-2.864v4.994a1.7,1.7,0,0,0,.035.544c0-.01,0-.014,0-.014M29.407,7.9l8.629,4.316a.082.082,0,0,1,.019.024l6.91-3.461c.022-.012.045-.024.068-.034L46.721,7.9,38.087,3.583Z" transform="translate(-14.062 12.487)" fill="#6366f1"/>
</svg>
