<svg xmlns="http://www.w3.org/2000/svg" width="48" height="48" viewBox="0 0 48 48">
  <g id="Group_4022" data-name="Group 4022" transform="translate(13693 2708.469)">
    <circle id="Ellipse_253" data-name="Ellipse 253" cx="24" cy="24" r="24" transform="translate(-13693 -2708.469)" fill="#6366f1" opacity="0.1"/>
    <circle id="Ellipse_254" data-name="Ellipse 254" cx="18" cy="18" r="18" transform="translate(-13687 -2702.469)" fill="#6366f1" opacity="0.15"/>
    <g id="Group_4002" data-name="Group 4002" transform="translate(-119.888 24.48)">
      <path id="Path_16259" data-name="Path 16259" d="M18.656,6.432A5.738,5.738,0,1,1,12.918.694a5.739,5.739,0,0,1,5.738,5.738" transform="translate(-13560.038 -2720.163)" fill="#6366f1"/>
      <path id="Path_16260" data-name="Path 16260" d="M7.651,15.8a3.825,3.825,0,1,1-3.825-3.825A3.826,3.826,0,0,1,7.651,15.8" transform="translate(-13558.756 -2719.966)" fill="#6366f1"/>
      <path id="Path_16261" data-name="Path 16261" d="M16.518,18.443a2.869,2.869,0,1,1-2.869-2.869,2.869,2.869,0,0,1,2.869,2.869" transform="translate(-13555.987 -2719.741)" fill="#6366f1"/>
    </g>
  </g>
</svg>
