<svg xmlns="http://www.w3.org/2000/svg" xmlns:xlink="http://www.w3.org/1999/xlink" width="24" height="24" viewBox="0 0 24 24">
  <defs>
    <clipPath id="clip-path">
      <rect id="Rectangle_1095" data-name="Rectangle 1095" width="24" height="24" transform="translate(464 1248)" fill="#fff"/>
    </clipPath>
  </defs>
  <g id="Group_3886" data-name="Group 3886" transform="translate(-464 -1248)" clip-path="url(#clip-path)">
    <path id="Path_15626" data-name="Path 15626" d="M476,1272a12,12,0,1,0-12-12A12,12,0,0,0,476,1272Z" fill="#f0f0f0"/>
    <path id="Path_15627" data-name="Path 15627" d="M475.478,1260H488a12.038,12.038,0,0,0-.413-3.13H475.478Z" fill="#d80027"/>
    <path id="Path_15628" data-name="Path 15628" d="M475.478,1253.74h10.76a12.015,12.015,0,0,0-2.769-3.13h-7.991Z" fill="#d80027"/>
    <path id="Path_15629" data-name="Path 15629" d="M476,1272a11.966,11.966,0,0,0,7.47-2.61H468.53A11.966,11.966,0,0,0,476,1272Z" fill="#d80027"/>
    <path id="Path_15630" data-name="Path 15630" d="M465.761,1266.26h20.477a11.8,11.8,0,0,0,1.348-3.13H464.413A11.838,11.838,0,0,0,465.761,1266.26Z" fill="#d80027"/>
    <path id="Path_15631" data-name="Path 15631" d="M469.559,1249.87h1.093l-1.017.74.389,1.2-1.018-.74-1.017.74.336-1.03a11.99,11.99,0,0,0-2.328,2.59h.351l-.648.47c-.1.17-.2.34-.29.51l.309.95-.577-.41q-.215.45-.392.93l.341,1.05h1.257l-1.017.73.388,1.2-1.017-.74-.609.44A12.135,12.135,0,0,0,464,1260h12v-12A11.992,11.992,0,0,0,469.559,1249.87Zm.465,8.93-1.018-.74-1.017.74.389-1.2-1.017-.73h1.257l.388-1.2.389,1.2h1.257l-1.017.73Zm-.389-4.69.389,1.19-1.018-.73-1.017.73.389-1.19-1.017-.74h1.257l.388-1.2.389,1.2h1.257Zm4.693,4.69-1.017-.74-1.017.74.388-1.2-1.017-.73h1.257l.389-1.2.388,1.2h1.258l-1.018.73Zm-.389-4.69.389,1.19-1.017-.73-1.017.73.388-1.19-1.017-.74h1.257l.389-1.2.388,1.2h1.258Zm0-3.5.389,1.2-1.017-.74-1.017.74.388-1.2-1.017-.74h1.257l.389-1.19.388,1.19h1.258Z" fill="#0052b4"/>
  </g>
</svg>
