<svg xmlns="http://www.w3.org/2000/svg" width="21.095" height="24" viewBox="0 0 21.095 24">
  <g id="Google_Play_Icon" data-name="Google Play Icon" transform="translate(-328.692)">
    <path id="Path_11724" data-name="Path 11724" d="M2351.593,32.476l-11.649,11.649a1.131,1.131,0,0,1-.252-.72V21.723a1.137,1.137,0,0,1,.334-.813Z" transform="translate(-2011 -20.565)" fill="#d0d5dd"/>
    <path id="Path_11725" data-name="Path 11725" d="M2425.655,11.291,2414.365,0a1.151,1.151,0,0,1,.507.155l13.895,8.024Z" transform="translate(-2084.441 -0.001)" fill="#d0d5dd"/>
    <path id="Path_11726" data-name="Path 11726" d="M2415.374,759.63l3.224,3.224-14.008,8.087a1.139,1.139,0,0,1-.679.151Z" transform="translate(-2074.16 -747.097)" fill="#d0d5dd"/>
    <path id="Path_11727" data-name="Path 11727" d="M3143.71,527.609l-3.983,2.3-3.389-3.39,3.279-3.279,4.094,2.364a1.158,1.158,0,0,1,0,2.006" transform="translate(-2794.503 -514.606)" fill="#d0d5dd"/>
  </g>
</svg>
