<svg xmlns="http://www.w3.org/2000/svg" xmlns:xlink="http://www.w3.org/1999/xlink" width="24" height="24" viewBox="0 0 24 24">
  <defs>
    <clipPath id="clip-path">
      <rect id="Rectangle_1637" data-name="Rectangle 1637" width="24" height="24" transform="translate(96 408)" fill="#525c7a"/>
    </clipPath>
  </defs>
  <g id="Group_4142" data-name="Group 4142" transform="translate(-96 -408)" clip-path="url(#clip-path)">
    <path id="Path_16746" data-name="Path 16746" d="M108,410.161c3.206,0,3.586.014,4.847.07a6.574,6.574,0,0,1,2.226.413,3.95,3.95,0,0,1,2.274,2.273,6.6,6.6,0,0,1,.412,2.227c.057,1.265.071,1.645.071,4.847s-.014,3.586-.071,4.847a6.568,6.568,0,0,1-.412,2.226,3.956,3.956,0,0,1-2.274,2.274,6.611,6.611,0,0,1-2.226.412c-1.266.056-1.645.07-4.847.07s-3.586-.014-4.847-.07a6.582,6.582,0,0,1-2.226-.412,3.959,3.959,0,0,1-2.274-2.274,6.6,6.6,0,0,1-.412-2.226c-.056-1.266-.07-1.646-.07-4.847s.014-3.586.07-4.847a6.581,6.581,0,0,1,.412-2.227,3.953,3.953,0,0,1,2.274-2.273,6.6,6.6,0,0,1,2.226-.413C104.414,410.175,104.794,410.161,108,410.161ZM108,408c-3.258,0-3.666.014-4.945.07a8.794,8.794,0,0,0-2.911.558,6.175,6.175,0,0,0-3.516,3.511,8.8,8.8,0,0,0-.558,2.911c-.056,1.284-.07,1.692-.07,4.95s.014,3.666.07,4.945a8.768,8.768,0,0,0,.558,2.911,6.148,6.148,0,0,0,3.511,3.511,8.769,8.769,0,0,0,2.911.558c1.28.056,1.687.07,4.945.07s3.666-.014,4.946-.07a8.748,8.748,0,0,0,2.911-.558,6.134,6.134,0,0,0,3.506-3.506,8.82,8.82,0,0,0,.558-2.911c.056-1.28.07-1.687.07-4.945s-.014-3.666-.07-4.946a8.8,8.8,0,0,0-.558-2.911,5.609,5.609,0,0,0-1.374-2.132,5.863,5.863,0,0,0-2.123-1.383,8.769,8.769,0,0,0-2.911-.558C111.666,408.014,111.258,408,108,408Z" fill="#525c7a"/>
    <path id="Path_16747" data-name="Path 16747" d="M108,413.836A6.164,6.164,0,1,0,114.164,420,6.166,6.166,0,0,0,108,413.836ZM108,424a4,4,0,1,1,4-4A4,4,0,0,1,108,424Z" fill="#525c7a"/>
    <path id="Path_16748" data-name="Path 16748" d="M115.847,413.592a1.439,1.439,0,1,1-1.439-1.439A1.439,1.439,0,0,1,115.847,413.592Z" fill="#525c7a"/>
  </g>
</svg>
