<svg width="21" height="20" viewBox="0 0 21 20" fill="none" xmlns="http://www.w3.org/2000/svg">
<path d="M10.998 1.8009C13.6697 1.8009 13.9864 1.81253 15.0372 1.85919C16.0139 1.90253 16.5414 2.06665 16.8922 2.20337C17.3572 2.38251 17.693 2.60168 18.0414 2.94916C18.3922 3.30084 18.6072 3.63257 18.7872 4.0975C18.9239 4.44916 19.0881 4.98087 19.1306 5.95337C19.1781 7.00751 19.1897 7.32416 19.1897 9.99252C19.1897 12.6642 19.1781 12.9809 19.1306 14.0317C19.0881 15.0075 18.9239 15.535 18.7872 15.8866C18.6072 16.3517 18.3889 16.6875 18.0414 17.035C17.6897 17.3867 17.3572 17.6017 16.8922 17.7817C16.5414 17.9183 16.0097 18.0817 15.0372 18.125C13.9822 18.1718 13.6664 18.1833 10.998 18.1833C8.32637 18.1833 8.00973 18.1718 6.95888 18.125C5.9822 18.0817 5.4547 17.9183 5.10387 17.7817C4.63888 17.6017 4.3027 17.3826 3.95505 17.035C3.60355 16.6834 3.38872 16.3517 3.20897 15.8866C3.07229 15.535 2.90822 15.0042 2.86521 14.0317C2.81838 12.9767 2.80663 12.66 2.80663 9.99252C2.80663 7.32004 2.81838 7.00424 2.86521 5.95337C2.90822 4.97665 3.07229 4.44916 3.20897 4.0975C3.38872 3.63257 3.60748 3.29666 3.95505 2.94916C4.30663 2.59756 4.63888 2.38251 5.10387 2.20337C5.4547 2.06665 5.98638 1.90253 6.95888 1.85919C8.00973 1.81253 8.32637 1.8009 10.998 1.8009ZM10.998 0C8.28306 0 7.94305 0.0116882 6.87722 0.0583496C5.81471 0.105896 5.08388 0.277496 4.45138 0.523376C3.79104 0.780884 3.23247 1.12085 2.67772 1.68005C2.11913 2.23419 1.7793 2.79333 1.52146 3.44919C1.27538 4.08585 1.10355 4.81256 1.05663 5.87503C1.0098 6.94504 0.998047 7.28506 0.998047 10C0.998047 12.7151 1.0098 13.055 1.05663 14.1208C1.10355 15.1833 1.27538 15.9142 1.52146 16.5466C1.7793 17.2067 2.11913 17.7659 2.67772 18.32C3.23247 18.875 3.79104 19.2184 4.4472 19.4725C5.08388 19.7192 5.81055 19.8908 6.87305 19.9375C7.93971 19.9841 8.27888 19.9959 10.9939 19.9959C13.7089 19.9959 14.0489 19.9841 15.1156 19.9375C16.178 19.8908 16.9081 19.7192 17.5414 19.4725C18.1972 19.2184 18.7555 18.875 19.3105 18.32C19.8655 17.7659 20.2089 17.2067 20.4631 16.5508C20.7089 15.9142 20.8806 15.1875 20.928 14.1251C20.9747 13.0584 20.9864 12.7192 20.9864 10.0042C20.9864 7.28922 20.9747 6.94916 20.928 5.88251C20.8806 4.82004 20.7089 4.09003 20.4631 3.45667C20.2172 2.79333 19.8772 2.23419 19.3181 1.68005C18.7639 1.12503 18.2047 0.781647 17.5489 0.527496C16.9122 0.280853 16.1855 0.109192 15.1231 0.062561C14.053 0.0116882 13.713 0 10.998 0Z" fill="white"/>
<path d="M10.998 4.86328C8.16217 4.86328 5.86133 7.16409 5.86133 9.99994C5.86133 12.8358 8.16217 15.1366 10.998 15.1366C13.8338 15.1366 16.1347 12.8358 16.1347 9.99994C16.1347 7.16409 13.8338 4.86328 10.998 4.86328ZM10.998 13.3316C9.158 13.3316 7.66633 11.8399 7.66633 9.99994C7.66633 8.15994 9.158 6.66827 10.998 6.66827C12.838 6.66827 14.3297 8.15994 14.3297 9.99994C14.3297 11.8399 12.838 13.3316 10.998 13.3316Z" fill="white"/>
<path d="M17.5372 4.66013C17.5372 5.32428 16.9981 5.85925 16.3381 5.85925C15.6739 5.85925 15.1389 5.32013 15.1389 4.66013C15.1389 3.99597 15.6781 3.46094 16.3381 3.46094C16.9981 3.46094 17.5372 4.00009 17.5372 4.66013Z" fill="white"/>
</svg>
