<svg width="21" height="17" viewBox="0 0 21 17" fill="none" xmlns="http://www.w3.org/2000/svg">
<path d="M6.31819 16.4997C13.8634 16.4997 17.9916 10.2472 17.9916 4.82632C17.9916 4.65044 17.9877 4.47045 17.9799 4.29461C18.783 3.7138 19.4759 2.99462 20.0264 2.17049C19.2785 2.50381 18.4844 2.72051 17.6713 2.81548C18.5274 2.30218 19.1684 1.49551 19.4756 0.546287C18.6702 1.0238 17.7894 1.3605 16.8709 1.54214C16.252 0.884635 15.4339 0.448844 14.5428 0.30297C13.6517 0.157157 12.7374 0.30886 11.9411 0.734702C11.1449 1.16042 10.5112 1.83709 10.1379 2.65884C9.76461 3.48131 9.67253 4.40377 9.87596 5.28298C8.24511 5.20129 6.64961 4.77801 5.19303 4.03963C3.73636 3.30126 2.4511 2.26549 1.42052 0.999625C0.89669 1.90215 0.736446 2.97127 0.972195 3.98797C1.20803 5.00542 1.82228 5.89382 2.69003 6.47463C2.03853 6.45382 1.40136 6.27877 0.83102 5.96294V6.01375C0.830441 6.96133 1.15812 7.88042 1.75827 8.61376C2.35844 9.34716 3.1941 9.85049 4.1232 10.0372C3.51978 10.2021 2.88636 10.2262 2.27203 10.1071C2.53428 10.9221 3.04436 11.6355 3.73119 12.1463C4.41803 12.658 5.24728 12.9421 6.10328 12.9588C4.65003 14.1005 2.85486 14.7196 1.00686 14.7171C0.679108 14.7164 0.351685 14.6964 0.0263672 14.6563C1.90378 15.8613 4.08762 16.5004 6.31819 16.4997Z" fill="white"/>
</svg>
