<svg xmlns="http://www.w3.org/2000/svg" width="136.044" height="26" viewBox="0 0 136.044 26">
  <path id="Path_17072" data-name="Path 17072" d="M9.85-29.784a11.462,11.462,0,0,1,5.887,1.354,8.141,8.141,0,0,1,3.35,3.621,11.849,11.849,0,0,1,1.055,5.06,11.585,11.585,0,0,1-1.083,5.06,8.3,8.3,0,0,1-3.393,3.621A11.353,11.353,0,0,1,9.85-9.714h-7.5v-20.07Zm.428,16.649a5.691,5.691,0,0,0,3.293-.927A5.691,5.691,0,0,0,15.594-16.5a7.927,7.927,0,0,0,.67-3.25,7.927,7.927,0,0,0-.67-3.25,5.691,5.691,0,0,0-2.024-2.438,5.691,5.691,0,0,0-3.293-.927H6.229v13.228Zm25.829-4.3a8.82,8.82,0,0,1-.086,1.112H25.074a4.146,4.146,0,0,0,1.254,2.68,3.926,3.926,0,0,0,2.765.969,2.968,2.968,0,0,0,3.05-2.281H35.85a7.028,7.028,0,0,1-2.209,3.977,6.668,6.668,0,0,1-4.576,1.5,7.952,7.952,0,0,1-4.077-1,6.525,6.525,0,0,1-2.594-2.751,8.778,8.778,0,0,1-.884-4.005,8.743,8.743,0,0,1,.912-4.091,6.461,6.461,0,0,1,2.609-2.708,7.973,7.973,0,0,1,3.977-.955,7.81,7.81,0,0,1,3.464.784,6.2,6.2,0,0,1,2.623,2.48A8.264,8.264,0,0,1,36.106-17.44Zm-3.649-1.4a3.617,3.617,0,0,0-.969-2.309,3.139,3.139,0,0,0-2.366-.884,3.607,3.607,0,0,0-3.906,3.193Zm10.862,5.075a5.779,5.779,0,0,1,.2,1.654q0,.428.342.428t.342-.428a5.779,5.779,0,0,1,.2-1.654l3.336-11h3.877L46.484-9.714H41.238L36.106-24.766h3.877ZM66.212-17.44a8.82,8.82,0,0,1-.086,1.112H55.179a4.146,4.146,0,0,0,1.254,2.68,3.926,3.926,0,0,0,2.765.969,2.968,2.968,0,0,0,3.05-2.281h3.706a7.028,7.028,0,0,1-2.209,3.977,6.668,6.668,0,0,1-4.576,1.5,7.952,7.952,0,0,1-4.077-1A6.525,6.525,0,0,1,52.5-13.234a8.778,8.778,0,0,1-.884-4.005,8.743,8.743,0,0,1,.912-4.091,6.461,6.461,0,0,1,2.609-2.708,7.973,7.973,0,0,1,3.977-.955,7.81,7.81,0,0,1,3.464.784A6.2,6.2,0,0,1,65.2-21.73,8.264,8.264,0,0,1,66.212-17.44Zm-3.649-1.4a3.617,3.617,0,0,0-.969-2.309,3.139,3.139,0,0,0-2.366-.884,3.607,3.607,0,0,0-3.906,3.193Zm9.123-11.4V-9.714H68.036V-30.24Zm9.351,5.246a7.608,7.608,0,0,1,3.991,1.026,6.877,6.877,0,0,1,2.623,2.794,8.45,8.45,0,0,1,.912,3.934,8.449,8.449,0,0,1-.912,3.934,6.877,6.877,0,0,1-2.623,2.794,7.608,7.608,0,0,1-3.991,1.026,7.608,7.608,0,0,1-3.991-1.026,6.877,6.877,0,0,1-2.623-2.794,8.45,8.45,0,0,1-.912-3.934,8.45,8.45,0,0,1,.912-3.934,6.877,6.877,0,0,1,2.623-2.794A7.608,7.608,0,0,1,81.036-24.994Zm0,12.2a3.473,3.473,0,0,0,2.837-1.269,4.847,4.847,0,0,0,1.041-3.179,4.847,4.847,0,0,0-1.041-3.179,3.473,3.473,0,0,0-2.837-1.269A3.473,3.473,0,0,0,78.2-20.419a4.847,4.847,0,0,0-1.041,3.179A4.847,4.847,0,0,0,78.2-14.061,3.473,3.473,0,0,0,81.036-12.793Zm9.009-4.447a8.466,8.466,0,0,1,.927-3.991A6.731,6.731,0,0,1,93.637-24a7.933,7.933,0,0,1,4.02-1,7.417,7.417,0,0,1,3.564.827,6.383,6.383,0,0,1,2.409,2.181,6.412,6.412,0,0,1,1.012,2.922h-3.592a2.95,2.95,0,0,0-1.055-1.882,3.518,3.518,0,0,0-2.338-.741,3.633,3.633,0,0,0-2.908,1.226,4.766,4.766,0,0,0-1.055,3.221,4.766,4.766,0,0,0,1.055,3.221,3.633,3.633,0,0,0,2.908,1.226,3.518,3.518,0,0,0,2.338-.741,2.95,2.95,0,0,0,1.055-1.882h3.592a6.412,6.412,0,0,1-1.012,2.922,6.41,6.41,0,0,1-2.395,2.181,7.4,7.4,0,0,1-3.578.827,7.8,7.8,0,0,1-3.977-1A6.948,6.948,0,0,1,91-13.249,8.26,8.26,0,0,1,90.045-17.24Zm16.421-13h3.649v3.649h-3.649Zm0,5.474h3.649V-9.714h-3.649Zm11.4,3.193V-14.7a7.255,7.255,0,0,0,.071,1.254.544.544,0,0,0,.371.442,4.17,4.17,0,0,0,1.126.1h2.537v3.193h-3.307a6.549,6.549,0,0,1-2.537-.413,2.746,2.746,0,0,1-1.44-1.411,6.7,6.7,0,0,1-.47-2.794v-7.241h-2.737v-3.193h2.737v-4.105h3.649v4.105h4.105v3.193Zm12.259,6.529a5.479,5.479,0,0,1,.228,1.711q0,.485.342.485t.342-.485a5.386,5.386,0,0,1,.257-1.711l3.221-9.722H138.4L132.01-7.975A6.178,6.178,0,0,1,130.071-5.1a5.2,5.2,0,0,1-3.136.855H124.2V-7.433h1.254q1.254,0,1.753-.057a1.424,1.424,0,0,0,.77-.285,1.835,1.835,0,0,0,.47-.827l.314-.912-5.873-15.252h3.877Z" transform="translate(-2.352 30.24)" fill="#fff"/>
</svg>
