<svg width="48" height="48" viewBox="0 0 48 48" fill="none" xmlns="http://www.w3.org/2000/svg">
<g filter="url(#filter0_b_1_1065)">
<circle cx="24" cy="24" r="24" fill="white"/>
</g>
<g filter="url(#filter1_b_1_1065)">
<path d="M19 18.0545C19 17.1201 19 16.6518 19.2128 16.3913C19.3983 16.1641 19.6813 16.0211 19.9878 16.0015C20.3414 15.978 20.7693 16.2307 21.6251 16.7361L31.6741 22.6816C32.4172 23.1204 32.7877 23.3398 32.9153 23.618C33.0282 23.8629 33.0282 24.1371 32.9153 24.382C32.7877 24.6602 32.4172 24.8796 31.6741 25.3184L21.6251 31.2639C20.7693 31.7693 20.3414 32.022 19.9878 31.9985C19.6813 31.9789 19.3983 31.8359 19.2128 31.6087C19 31.3482 19 30.8799 19 29.9455V18.0545Z" fill="#6366F1"/>
</g>
<defs>
<filter id="filter0_b_1_1065" x="-3" y="-3" width="54" height="54" filterUnits="userSpaceOnUse" color-interpolation-filters="sRGB">
<feFlood flood-opacity="0" result="BackgroundImageFix"/>
<feGaussianBlur in="BackgroundImageFix" stdDeviation="1.5"/>
<feComposite in2="SourceAlpha" operator="in" result="effect1_backgroundBlur_1_1065"/>
<feBlend mode="normal" in="SourceGraphic" in2="effect1_backgroundBlur_1_1065" result="shape"/>
</filter>
<filter id="filter1_b_1_1065" x="9" y="6" width="34" height="36" filterUnits="userSpaceOnUse" color-interpolation-filters="sRGB">
<feFlood flood-opacity="0" result="BackgroundImageFix"/>
<feGaussianBlur in="BackgroundImageFix" stdDeviation="5"/>
<feComposite in2="SourceAlpha" operator="in" result="effect1_backgroundBlur_1_1065"/>
<feBlend mode="normal" in="SourceGraphic" in2="effect1_backgroundBlur_1_1065" result="shape"/>
</filter>
</defs>
</svg>
