<svg id="Group_4056" data-name="Group 4056" xmlns="http://www.w3.org/2000/svg" xmlns:xlink="http://www.w3.org/1999/xlink" width="86.003" height="72" viewBox="0 0 86.003 72">
  <defs>
    <clipPath id="clip-path">
      <rect id="Rectangle_1251" data-name="Rectangle 1251" width="86.003" height="72" fill="#d0d5dd"/>
    </clipPath>
  </defs>
  <g id="Group_4055" data-name="Group 4055" clip-path="url(#clip-path)">
    <path id="Path_16304" data-name="Path 16304" d="M34.014,0a2.14,2.14,0,0,1,2.14,2.14V34.5c0,.433-.005.866-.025,1.294a37.684,37.684,0,0,1-33.783,36.2A2.137,2.137,0,0,1,0,69.858V59.331a2.137,2.137,0,0,1,1.825-2.115,22.983,22.983,0,0,0,19.29-18.941A2.139,2.139,0,0,0,19,35.792H2.507a2.14,2.14,0,0,1-2.14-2.14V2.14A2.14,2.14,0,0,1,2.507,0Z" transform="translate(0)" fill="#d0d5dd"/>
    <path id="Path_16305" data-name="Path 16305" d="M323.786,0a2.14,2.14,0,0,1,2.14,2.14V34.5c0,.433-.005.866-.025,1.294a37.684,37.684,0,0,1-33.783,36.2,2.137,2.137,0,0,1-2.346-2.131V59.331a2.137,2.137,0,0,1,1.825-2.115,22.982,22.982,0,0,0,19.29-18.941,2.139,2.139,0,0,0-2.114-2.483H292.279a2.14,2.14,0,0,1-2.14-2.14V2.14A2.14,2.14,0,0,1,292.279,0Z" transform="translate(-239.923)" fill="#d0d5dd"/>
  </g>
</svg>
