<svg xmlns="http://www.w3.org/2000/svg" xmlns:xlink="http://www.w3.org/1999/xlink" width="24" height="24" viewBox="0 0 24 24">
  <defs>
    <clipPath id="clip-path">
      <rect id="Rectangle_1041" data-name="Rectangle 1041" width="24" height="24" transform="translate(352 1192)" fill="#fff"/>
    </clipPath>
  </defs>
  <g id="Group_3832" data-name="Group 3832" transform="translate(-352 -1192)" clip-path="url(#clip-path)">
    <path id="Path_15261" data-name="Path 15261" d="M364,1216a12,12,0,1,0-12-12A12,12,0,0,0,364,1216Z" fill="#f0f0f0"/>
    <path id="Path_15262" data-name="Path 15262" d="M375.254,1208.17a12.028,12.028,0,0,0,0-8.34H352.746a12.028,12.028,0,0,0,0,8.34L364,1209.22Z" fill="#0052b4"/>
    <path id="Path_15263" data-name="Path 15263" d="M364,1216a12.006,12.006,0,0,0,11.253-7.83H352.747A12.008,12.008,0,0,0,364,1216Z" fill="#d80027"/>
  </g>
</svg>
