<svg xmlns="http://www.w3.org/2000/svg" width="48" height="48" viewBox="0 0 48 48">
  <circle id="Ellipse_257" data-name="Ellipse 257" cx="24" cy="24" r="24" fill="#6366f1" opacity="0.1"/>
  <circle id="Ellipse_258" data-name="Ellipse 258" cx="18" cy="18" r="18" transform="translate(6 6)" fill="#6366f1" opacity="0.15"/>
  <path id="Path_16275" data-name="Path 16275" d="M138.786,19.064a5.985,5.985,0,1,1,1.234-11.841,5.979,5.979,0,1,1,4.622,4.622,5.985,5.985,0,0,1-5.857,7.219m0-10.64a4.655,4.655,0,1,0,4.655,4.654,4.66,4.66,0,0,0-4.655-4.654m5.288,1.853a4.65,4.65,0,1,0-2.486-2.486,6.021,6.021,0,0,1,2.486,2.486m3.58,8.786a.666.666,0,0,1-.471-.194L145.409,17.1a.676.676,0,0,1-.143-.213h0a.665.665,0,0,1-.051-.256.656.656,0,0,1,.051-.254.673.673,0,0,1,.134-.207l0,0h0l0,0,0,0,1.773-1.773a.665.665,0,0,1,.941.941l-.638.638h.168a2.886,2.886,0,0,0,2.882-2.882.665.665,0,1,1,1.33,0,4.217,4.217,0,0,1-4.212,4.212h-.168l.638.638a.665.665,0,0,1-.47,1.135M133.466,6.65a.665.665,0,0,1-.665-.665,4.217,4.217,0,0,1,4.212-4.212h.168l-.638-.638a.665.665,0,1,1,.941-.94l1.772,1.772.012.012h0a.687.687,0,0,1,.131.206.657.657,0,0,1,.051.23h0v.042h0a.657.657,0,0,1-.051.23v0a.641.641,0,0,1-.136.207v0h0l0,0,0,.005-1.773,1.773a.665.665,0,1,1-.941-.94l.638-.638h-.168a2.885,2.885,0,0,0-2.882,2.882.666.666,0,0,1-.665.665" transform="translate(-118.333 14.468)" fill="#6366f1"/>
</svg>
