<svg xmlns="http://www.w3.org/2000/svg" xmlns:xlink="http://www.w3.org/1999/xlink" width="24" height="24" viewBox="0 0 24 24">
  <defs>
    <clipPath id="clip-path">
      <rect id="Rectangle_1638" data-name="Rectangle 1638" width="24" height="24" transform="translate(256 504)" fill="#525c7a"/>
    </clipPath>
  </defs>
  <g id="Group_4143" data-name="Group 4143" transform="translate(-256 -504)" clip-path="url(#clip-path)">
    <path id="Path_16749" data-name="Path 16749" d="M280,516a12,12,0,1,1-12-12A12,12,0,0,1,280,516Zm-11.57-3.141q-1.75.727-7,3.014-.852.339-.893.663c-.046.365.412.509,1.034.705.085.027.173.054.263.084a8.563,8.563,0,0,0,1.865.441,2.282,2.282,0,0,0,1.3-.481q4.9-3.309,5.061-3.345a.275.275,0,0,1,.249.024.246.246,0,0,1,.056.212,34.091,34.091,0,0,1-2.77,2.726c-.289.269-.495.46-.537.5-.094.1-.19.19-.282.279-.569.548-1,.96.024,1.632.49.323.882.59,1.273.856.427.291.853.581,1.4.943.14.092.274.187.4.281a2.289,2.289,0,0,0,1.5.622c.32-.03.651-.331.82-1.231.4-2.125,1.179-6.73,1.359-8.627a2.1,2.1,0,0,0-.02-.472.5.5,0,0,0-.171-.325.783.783,0,0,0-.465-.14C272.455,511.232,271.763,511.473,268.43,512.859Z" fill="#525c7a" fill-rule="evenodd"/>
  </g>
</svg>
