<svg xmlns="http://www.w3.org/2000/svg" width="20" height="16.25" viewBox="0 0 20 16.25">
  <path id="Path_17543" data-name="Path 17543" d="M592.292,53.125a11.6,11.6,0,0,0,11.673-11.673c0-.176,0-.355-.011-.531A8.324,8.324,0,0,0,606,38.8a8.088,8.088,0,0,1-2.355.645,4.125,4.125,0,0,0,1.8-2.269,8.246,8.246,0,0,1-2.6,1,4.109,4.109,0,0,0-6.995,3.741,11.656,11.656,0,0,1-8.456-4.284,4.108,4.108,0,0,0,1.27,5.475,4.106,4.106,0,0,1-1.859-.512v.051a4.1,4.1,0,0,0,3.292,4.023,4.078,4.078,0,0,1-1.851.07,4.111,4.111,0,0,0,3.831,2.852,8.229,8.229,0,0,1-6.077,1.7A11.638,11.638,0,0,0,592.292,53.125Z" transform="translate(-586 -36.875)" fill="#98a2b3"/>
</svg>
