<svg xmlns="http://www.w3.org/2000/svg" width="24" height="19.501" viewBox="0 0 24 19.501">
  <path id="Path_16745" data-name="Path 16745" d="M63.55,429.75a13.914,13.914,0,0,0,14.008-14.008c0-.211,0-.427-.014-.638A10,10,0,0,0,80,412.555a9.709,9.709,0,0,1-2.826.774,4.954,4.954,0,0,0,2.165-2.723,9.893,9.893,0,0,1-3.126,1.2,4.93,4.93,0,0,0-8.394,4.489,13.986,13.986,0,0,1-10.147-5.14,4.929,4.929,0,0,0,1.523,6.57,4.929,4.929,0,0,1-2.231-.614v.061a4.921,4.921,0,0,0,3.951,4.828,4.891,4.891,0,0,1-2.221.084,4.934,4.934,0,0,0,4.6,3.422A9.857,9.857,0,0,1,56,427.538,13.967,13.967,0,0,0,63.55,429.75Z" transform="translate(-56 -410.249)" fill="#525c7a"/>
</svg>
