<svg xmlns="http://www.w3.org/2000/svg" width="48" height="48" viewBox="0 0 48 48">
  <circle id="Ellipse_255" data-name="Ellipse 255" cx="24" cy="24" r="24" fill="#6366f1" opacity="0.1"/>
  <circle id="Ellipse_256" data-name="Ellipse 256" cx="18" cy="18" r="18" transform="translate(6 6)" fill="#6366f1" opacity="0.15"/>
  <path id="Path_16263" data-name="Path 16263" d="M121.823,18.056H109.577a2.408,2.408,0,0,1-2.406-2.406V3.406A2.408,2.408,0,0,1,109.577,1h10.5a.656.656,0,1,1,0,1.312h-10.5a1.093,1.093,0,0,0,0,2.187h12.246A2.408,2.408,0,0,1,124.228,6.9v8.746a2.408,2.408,0,0,1-2.406,2.406M108.483,5.548v10.1a1.1,1.1,0,0,0,1.093,1.093h12.246a1.094,1.094,0,0,0,1.093-1.093V6.9a1.094,1.094,0,0,0-1.093-1.093H109.577a2.393,2.393,0,0,1-1.093-.263m11.153,6.823a1.093,1.093,0,1,1,1.093-1.093,1.095,1.095,0,0,1-1.093,1.093" transform="translate(-91.7 14.472)" fill="#6366f1"/>
</svg>
