<svg width="157" height="32" viewBox="0 0 157 32" fill="none" xmlns="http://www.w3.org/2000/svg">
<path d="M0.00537109 0H31.3197C31.3197 10.6537 31.3197 21.3463 31.3197 32H0.00537109V0ZM2.30936 5.03391C3.71432 11.5124 4.96384 18.0686 6.29187 24.5851C6.52576 25.3661 6.36957 26.3802 7.15051 26.9265C8.51736 27.1611 9.9231 27.0827 11.2892 27.0049C12.0313 27.0438 12.2263 26.1463 12.3437 25.5612C13.2808 20.9173 14.2957 16.3124 15.2328 11.6686C15.3113 11.2389 15.4286 10.8099 15.6237 10.4198C16.7947 15.4149 17.7707 20.4099 18.8252 25.4049C18.9814 25.9512 19.0202 26.5753 19.5276 26.9265C21.0119 27.1223 22.5341 27.1223 24.0183 26.9265C24.5646 26.6149 24.5646 25.9512 24.7208 25.4049C26.0877 18.6149 27.376 11.7851 28.8206 4.99506C27.4934 4.99506 26.205 4.99506 24.877 4.99506C23.8233 10.9265 23.0027 16.8587 21.8317 22.7512C20.5433 17.7562 19.645 12.6438 18.5128 7.57104C18.2393 6.71237 18.3566 5.46362 17.4195 4.99506C16.2484 4.91733 15.1162 4.91733 13.9444 4.99506C13.2808 5.03391 13.1246 5.81485 13.0073 6.3223C12.1097 11.3951 11.0164 16.3901 10.0008 21.3851C9.88345 21.8537 9.72729 22.2827 9.57108 22.7512C8.51736 16.8587 7.54138 10.9265 6.60425 5.03391C5.15967 5.03391 3.75397 5.03391 2.30936 5.03391Z" fill="white"/>
<path d="M62.3994 0H93.7144C93.7144 10.6537 93.7144 21.3463 93.7144 32H62.3994C62.3994 21.3463 62.3994 10.6537 62.3994 0ZM69.4668 5.03391C69.4668 12.3711 69.4668 19.6686 69.4668 26.9661C70.9114 26.9661 72.356 26.9661 73.8013 26.9661C73.8013 24.1173 73.8013 21.229 73.8013 18.3802C76.1434 18.3802 78.5251 18.3802 80.868 18.3802C81.7274 18.3025 82.7422 18.9265 82.7422 19.8636C82.8596 22.2438 83.0546 24.5851 83.2108 26.9661C84.5776 26.9661 85.9834 26.9661 87.3495 26.9661C86.9594 24.2735 87.428 21.5025 86.6859 18.8876C86.2958 17.5223 84.7728 17.2099 83.6016 16.8587C84.4992 16.3901 85.6313 16.3512 86.2562 15.4926C87.1933 14.3223 87.2718 12.7611 87.2718 11.3174C87.2718 9.63885 87.3106 7.80493 86.2173 6.39999C85.3586 5.22897 83.7579 5.07352 82.4299 5.07352C78.0573 5.03391 73.7617 5.03391 69.4668 5.03391Z" fill="white"/>
<path d="M124.873 0H156.577V32H124.873C124.873 21.3463 124.873 10.6537 124.873 0ZM131.939 5.03391C131.939 12.3711 131.939 19.6686 131.939 26.9661C135.609 26.9661 139.241 26.9661 142.872 26.9661C145.137 26.9265 147.753 26.4975 149.081 24.5074C150.681 21.971 150.408 18.8876 150.72 16.0388C150.447 13.1901 150.681 10.0686 149.081 7.53143C147.831 5.65866 145.41 5.15121 143.302 5.07352C139.514 4.99506 135.727 5.03391 131.939 5.03391Z" fill="white"/>
<path d="M39.2845 4.7998C44.3215 4.7998 49.3584 4.7998 54.4342 4.7998C54.4342 6.12628 54.4342 7.41467 54.4342 8.74115C52.6384 8.74115 50.8815 8.74115 49.0849 8.74115C49.0849 13.58 49.0849 18.4196 49.0849 23.2585C50.8815 23.2585 52.6384 23.2585 54.4342 23.2585C54.4342 24.5461 54.4342 25.8734 54.4342 27.1998C49.3973 27.1998 44.3603 27.1998 39.2845 27.1998C39.2457 25.8734 39.2457 24.585 39.2845 23.2585C41.0811 23.2585 42.838 23.2585 44.6339 23.2585C44.6339 18.4196 44.6339 13.58 44.6339 8.74115C42.838 8.74115 41.0811 8.74115 39.2845 8.74115C39.2845 7.41467 39.2845 6.12628 39.2845 4.7998Z" fill="white"/>
<path d="M99.2975 4.80013C105.467 4.76128 111.675 4.76128 117.844 4.80013C117.844 7.21996 117.844 9.639 117.844 12.0976C116.517 12.0976 115.15 12.0976 113.822 12.0976C113.822 10.9662 113.822 9.87368 113.822 8.74148C111.401 8.74148 108.981 8.74148 106.56 8.74148C106.56 10.4199 106.56 12.0976 106.56 13.7761C108.512 13.7761 110.464 13.7761 112.417 13.7761C112.417 15.0249 112.417 16.2737 112.417 17.5224C110.464 17.5224 108.512 17.5224 106.56 17.5224C106.56 19.434 106.56 21.3464 106.56 23.2588C109.059 23.22 111.518 23.2588 114.017 23.2588C114.017 21.9712 114.017 20.7224 114.017 19.434C115.384 19.434 116.751 19.434 118.117 19.434C118.117 22.0101 118.117 24.6249 118.117 27.2002C111.831 27.2002 105.584 27.2002 99.2975 27.2002C99.2587 25.8737 99.2975 24.5853 99.2975 23.2588C100.312 23.2588 101.288 23.2588 102.265 23.2588C102.265 18.4199 102.265 13.5803 102.265 8.74148C101.288 8.74148 100.274 8.74148 99.2975 8.74148C99.2975 7.415 99.2975 6.12661 99.2975 4.80013Z" fill="white"/>
<path d="M73.8015 8.62473C76.5734 8.66361 79.3848 8.54624 82.1574 8.66361C83.2507 9.40488 83.016 10.966 83.0549 12.0974C83.016 13.1512 82.9772 14.8289 81.5714 14.9074C78.9947 15.0247 76.3783 14.9074 73.7627 14.9463C73.8015 12.8777 73.8015 10.7314 73.8015 8.62473Z" fill="white"/>
<path d="M136.273 8.62451C138.616 8.62451 140.998 8.62451 143.34 8.62451C144.395 8.62451 145.605 9.13116 145.918 10.1849C146.659 12.2923 146.347 14.5948 146.425 16.7799C146.347 18.5361 146.542 20.3708 145.8 22.0097C145.293 23.0634 144.005 23.3362 142.95 23.3362C140.724 23.3362 138.499 23.3362 136.273 23.3362C136.273 18.4584 136.273 13.5411 136.273 8.62451Z" fill="white"/>
</svg>
