<svg xmlns="http://www.w3.org/2000/svg" width="180.127" height="42" viewBox="0 0 180.127 42">
  <path id="Name" d="M352.172,272.958a2.269,2.269,0,1,1,2.268,2.321A2.33,2.33,0,0,1,352.172,272.958Zm27.884-18.064v4.589h-6.911c-2.321,0-3.949.534-4.83,1.6a6.978,6.978,0,0,0-1.281,4.59c0,2.295.694,3.976,2.108,5.043a5.4,5.4,0,0,0,1.868.854,12.533,12.533,0,0,0,2.828.24h6.217V276.4h-7.9a15.347,15.347,0,0,1-5.043-.667,7.657,7.657,0,0,1-3.282-2.295,11.441,11.441,0,0,1-2.722-7.871c0-3.842,1.067-6.7,3.229-8.565a7.525,7.525,0,0,1,3.1-1.628,19.916,19.916,0,0,1,4.7-.48Zm14.089-.294c3.869,0,6.751,1.147,8.565,3.442a12.035,12.035,0,0,1,2.535,7.9,10.523,10.523,0,0,1-3.2,8.032,11.294,11.294,0,0,1-8,2.748,10.986,10.986,0,0,1-8.245-3.1c-1.841-1.868-2.748-4.563-2.748-8.138a10.993,10.993,0,0,1,2.642-7.5c1.975-2.241,4.776-3.362,8.458-3.389Zm.053,4.483c-3.469,0-5.2,2.215-5.2,6.617a8.152,8.152,0,0,0,.854,4.109,4.725,4.725,0,0,0,4.4,2.375c3.415,0,5.123-2.188,5.123-6.591C399.374,261.324,397.64,259.163,394.2,259.083Zm15.343-4.189h21.213a17.49,17.49,0,0,1,4.4.427,5.459,5.459,0,0,1,2.535,1.548,8.394,8.394,0,0,1,1.894,5.844V276.4h-5.764V263.646a11.768,11.768,0,0,0-.133-2.161,1.961,1.961,0,0,0-.614-1.094,3.755,3.755,0,0,0-2.722-.907h-3.069V276.4h-5.764V259.483H415.3V276.4H409.54V254.894Zm-90.322,10.753-8.325-11.02h6.617l4.99,7.338,5.39-7.338h6.537l-8.592,11.02,8.592,11.234h-6.351l-5.577-7.631-5.47,7.631H310.6ZM342.86,258.6H333.12l3.389-3.976h20.172V258.6h-8.405v18.3h-5.39l-.027-18.3Z" transform="translate(-259.475 -244.087)" fill="#6366F1"/>
  <path id="XT_Icon" data-name="XT Icon" d="M140.158,257.2A21,21,0,1,1,161,236.038v.16A20.936,20.936,0,0,1,140.158,257.2Zm0-38.877a17.878,17.878,0,1,0,17.771,18.011V236.2a17.856,17.856,0,0,0-17.771-17.878Zm.747,15,4.029-4.936a1.222,1.222,0,0,0-.16-1.708,1.275,1.275,0,0,0-.747-.267h0a1.179,1.179,0,0,0-.907.427l-3.736,4.563-3.762-4.563a1.179,1.179,0,0,0-.907-.427h-3.1a1.219,1.219,0,0,0-1.2,1.227,1.275,1.275,0,0,0,.267.747l5.577,6.8-7.1,8.7a1.191,1.191,0,0,0,1.788,1.574l.027-.027,6.831-8.352Zm9.339-6.911a1.179,1.179,0,0,0-.907.427l-6.8,8.352-3.1,3.789-4.029,4.936a1.192,1.192,0,0,0,1.814,1.548l3.736-4.563,3.736,4.563a1.179,1.179,0,0,0,.907.427h3.1a1.2,1.2,0,0,0,1.2-1.2,1.163,1.163,0,0,0-.294-.774l-5.55-6.8,7.1-8.7a1.223,1.223,0,0,0-.187-1.708,1.164,1.164,0,0,0-.72-.294" transform="translate(-118.998 -215.198)" fill="#6366F1"/>
</svg>
