<svg width="86" height="32" viewBox="0 0 86 32" fill="none" xmlns="http://www.w3.org/2000/svg">
<path d="M34.8235 24.3284C34.8235 23.639 35.2729 23.331 35.8768 23.331C36.1998 23.331 36.4385 23.4043 36.6492 23.507V21.2921C36.3262 21.1307 35.8768 21.0427 35.4134 21.0427C33.4332 21.0427 32.2676 22.2602 32.2676 24.2698V24.4604H31.3267V26.6167H32.2676V31.7946H34.8235V26.6167H36.5509V24.4605H34.8235V24.3284Z" fill="white"/>
<path d="M40.1463 31.7947V24.4605H37.5764V31.7947H40.1463ZM40.3008 22.3923C40.3008 21.6002 39.6689 20.9108 38.8543 20.9108C38.0679 20.9108 37.4219 21.5855 37.4219 22.3923C37.4219 23.199 38.0679 23.8738 38.8543 23.8738C39.6689 23.8738 40.3008 23.1844 40.3008 22.3923Z" fill="white"/>
<path d="M43.7648 27.8929C43.7648 27.1301 44.1299 26.7048 44.6917 26.7048C45.2534 26.7048 45.5905 27.1155 45.5905 27.8636V31.7947H48.1605V27.1301C48.1605 25.3553 47.2336 24.2551 45.7169 24.2551C44.8602 24.2551 44.158 24.6365 43.7648 25.3552V24.4605H41.1948V31.7946H43.7648V27.8929Z" fill="white"/>
<path d="M52.3636 24.3138C50.2394 24.3138 48.877 26.2353 48.877 28.1569C48.877 30.2984 50.3712 32 52.3343 32C53.7992 32 54.3559 31.1052 54.3559 31.1052V31.8093H56.8317V24.4898H54.3559V25.1499C54.3559 25.1499 53.726 24.3138 52.3636 24.3138ZM52.891 26.6754C53.8871 26.6754 54.3852 27.4528 54.3852 28.1569C54.3852 28.9196 53.8432 29.6677 52.891 29.6677C52.1145 29.6677 51.3967 29.0223 51.3967 28.1862C51.3967 27.3501 51.968 26.6754 52.891 26.6754Z" fill="white"/>
<path d="M60.6169 27.8929C60.6169 27.1301 60.982 26.7048 61.5437 26.7048C62.1055 26.7048 62.4425 27.1155 62.4425 27.8636V31.7947H65.0125V27.1301C65.0125 25.3553 64.0856 24.2551 62.5689 24.2551C61.7122 24.2551 61.0101 24.6365 60.6169 25.3552V24.4605H58.0469V31.7946H60.6169V27.8929Z" fill="white"/>
<path d="M65.771 28.1275C65.771 30.5038 67.4001 32 69.5206 32C70.0683 32 70.6582 31.8827 71.2059 31.5893V29.1543C70.8127 29.4477 70.3914 29.5944 69.9279 29.5944C69.0291 29.5944 68.3691 29.0077 68.3691 28.1276C68.3691 27.2475 69.0291 26.6607 69.9279 26.6607C70.3773 26.6607 70.7986 26.7927 71.2059 27.0714V24.6365C70.7144 24.3871 70.1105 24.2551 69.5628 24.2551C67.3579 24.2551 65.771 25.8833 65.771 28.1276L65.771 28.1275Z" fill="white"/>
<path d="M76.7966 29.213C76.5298 29.6677 76.1928 29.8584 75.631 29.8584C74.9569 29.8584 74.3952 29.433 74.339 28.8023H79.1981C79.2121 28.6703 79.2262 28.4943 79.2262 28.2596C79.2262 25.8393 77.7516 24.2551 75.5608 24.2551C73.4402 24.2551 71.8252 25.9126 71.8252 28.1276C71.8252 30.4305 73.3981 32 75.6451 32C77.232 32 78.4257 31.2959 79.0015 30.0198L76.7966 29.213ZM74.3531 27.2621C74.4092 26.7194 74.8867 26.3087 75.5468 26.3087C76.2068 26.3087 76.6843 26.6901 76.7405 27.2621H74.3531Z" fill="white"/>
<path d="M0.272949 5.7384H5.32991L8.27454 13.2719L11.2574 5.7384H16.1811L8.767 23.5726H3.81204L5.84152 18.8468L0.272949 5.7384Z" fill="white"/>
<path d="M21.3104 5.43856C17.5108 5.43856 15.1089 8.84614 15.1089 12.2396C15.1089 16.0581 17.7423 19.0856 21.2383 19.0856C23.8461 19.0856 24.8294 17.4967 24.8294 17.4967V18.7344H29.2401V5.73852H24.8294V6.91997C24.8294 6.91997 23.7324 5.43854 21.3104 5.43854V5.43856ZM22.2486 9.61492C24.0017 9.61492 24.9064 11.0021 24.9064 12.2538C24.9064 13.6017 23.9371 14.9244 22.2486 14.9244C20.8491 14.9244 19.5844 13.7807 19.5844 12.3112C19.5844 10.8209 20.6016 9.61492 22.2486 9.61492Z" fill="white"/>
<path d="M30.7588 18.7343V0H35.372V6.96497C35.372 6.96497 36.4678 5.44016 38.7627 5.44016C41.5699 5.44016 43.2146 7.53173 43.2146 10.5205V18.7344H38.6351V11.6457C38.6351 10.6342 38.1533 9.65708 37.062 9.65708C35.951 9.65708 35.372 10.649 35.372 11.6457V18.7343H30.7588Z" fill="white"/>
<path d="M51.0803 5.44009C46.7291 5.44009 44.1382 8.74873 44.1382 12.2936C44.1382 16.3278 47.2752 19.0856 51.0968 19.0856C54.8008 19.0856 58.0419 16.4529 58.0419 12.3613C58.0419 7.88431 54.6484 5.44006 51.0803 5.44006V5.44009ZM51.1218 9.65318C52.6588 9.65318 53.7223 10.9333 53.7223 12.2985C53.7223 13.4628 52.7313 14.8989 51.1218 14.8989C49.647 14.8989 48.5403 13.7159 48.5403 12.2857C48.5403 10.908 49.4604 9.65318 51.1218 9.65318V9.65318Z" fill="white"/>
<path d="M65.7273 5.44009C61.3761 5.44009 58.7852 8.74873 58.7852 12.2936C58.7852 16.3278 61.9222 19.0856 65.7437 19.0856C69.4477 19.0856 72.6889 16.4529 72.6889 12.3613C72.6889 7.88431 69.2953 5.44006 65.7273 5.44006V5.44009ZM65.7688 9.65318C67.3058 9.65318 68.3693 10.9333 68.3693 12.2985C68.3693 13.4628 67.3783 14.8989 65.7688 14.8989C64.294 14.8989 63.1872 13.7159 63.1872 12.2857C63.1872 10.908 64.1074 9.65318 65.7688 9.65318V9.65318Z" fill="white"/>
<ellipse cx="76.329" cy="15.9469" rx="3.06338" ry="3.06338" fill="white"/>
<path d="M80.3992 11.7582H74.8843L79.7789 0H85.2731L80.3992 11.7582Z" fill="white"/>
</svg>
