<?xml version="1.0" encoding="UTF-8" standalone="no"?>
<svg
   xmlns:dc="http://purl.org/dc/elements/1.1/"
   xmlns:cc="http://creativecommons.org/ns#"
   xmlns:rdf="http://www.w3.org/1999/02/22-rdf-syntax-ns#"
   xmlns:svg="http://www.w3.org/2000/svg"
   xmlns="http://www.w3.org/2000/svg"
   id="Layer_1"
   data-name="Layer 1"
   viewBox="0 0 400 400"
   version="1.1"
   width="400"
   height="400">
  <metadata
     id="metadata45">
    <rdf:RDF>
      <cc:Work
         rdf:about="">
        <dc:format>image/svg+xml</dc:format>
        <dc:type
           rdf:resource="http://purl.org/dc/dcmitype/StillImage" />
      </cc:Work>
    </rdf:RDF>
  </metadata>
  <defs
     id="defs4">
    <style
       id="style2">.cls-1{fill:#414042;}.cls-2{fill:#e6e7e8;}.cls-3{fill:#ed1c24;}</style>
  </defs>
  <circle
     class="cls-1"
     cx="200"
     cy="200"
     r="200"
     id="circle6" />
  <path
     class="cls-2"
     d="m 20.64,196.9 0.1,-3.35 a 31.66,31.66 0 0 1 3.3,-0.75 15.09,15.09 0 0 0 4.62,-1.33 8.9,8.9 0 0 0 2,-2.86 l 10,-26.1 11.7,-30.69 h 5.34 l 0.44,0.89 8.59,20.34 q 2.91,6.47 5.22,12.57 2.31,6.1 4,9.95 1,2.33 2.71,7 a 66.79,66.79 0 0 0 2.72,6.32 7.58,7.58 0 0 0 1.48,2.42 5.5,5.5 0 0 0 2.89,1 18.52,18.52 0 0 1 4.32,1.14 18.66,18.66 0 0 1 0.25,2.42 c 0,0.23 0,0.59 0,1.08 q -3.66,0 -8,-0.34 c -2.93,-0.23 -5.57,-0.35 -7.9,-0.35 -2.61,0 -4.48,0 -5.63,0.1 l -8.4,0.45 -2.42,0.09 q 0,-1.72 0.15,-3.3 l 5.48,-1.19 a 10.21,10.21 0 0 0 2.86,-1 1.57,1.57 0 0 0 0.5,-1.13 3.86,3.86 0 0 0 -0.25,-1.34 l -2,-4.84 -3.87,-9.67 H 41.98 q -1.05,2.37 -4.35,11.6 a 13.4,13.4 0 0 0 -0.93,3.56 2.18,2.18 0 0 0 0.69,1.82 8.94,8.94 0 0 0 4.34,1.34 q 0.45,0.09 3.51,0.54 c 0,1.18 0,2 0,2.47 a 6.4,6.4 0 0 1 -0.1,1.13 q -3.06,0 -14.62,-0.83 l -2,0.34 a 43,43 0 0 1 -7,0.59 z m 23.23,-27.75 q 11.54,0.15 13.61,0.15 l 1.23,-0.05 Q 57.22,164.85 54.86,159 52.5,153.15 51,150.09 Z"
     id="path8" />
  <path
     class="cls-2"
     d="m 88.94,196.27 v -2 a 13.93,13.93 0 0 1 1.46,-0.27 10.84,10.84 0 0 0 2.66,-0.66 3.05,3.05 0 0 0 0.45,-1.1 30.56,30.56 0 0 0 0.21,-4.16 v -10.69 c 0,-1.1 -0.06,-4 -0.18,-8.67 a 8.81,8.81 0 0 0 -0.25,-2.34 0.6,0.6 0 0 0 -0.25,-0.25 3.05,3.05 0 0 0 -1.51,-0.33 c -0.32,0 -1.14,-0.11 -2.47,-0.28 l -0.06,-1.79 5.63,-0.13 8.23,-0.28 h 1 q 0.3,0 0.6,0 h 1.33 1.61 a 15.17,15.17 0 0 1 4.15,0.58 10.88,10.88 0 0 1 2.07,0.84 8.07,8.07 0 0 1 2.22,1.63 6.5,6.5 0 0 1 1.4,2.23 7.55,7.55 0 0 1 0.45,2.62 5.58,5.58 0 0 1 -0.69,2.78 7.2,7.2 0 0 1 -2.06,2.25 23.41,23.41 0 0 1 -3.25,1.66 10.48,10.48 0 0 1 5.79,3.13 7.56,7.56 0 0 1 2,5.07 10.5,10.5 0 0 1 -0.63,3.47 6.82,6.82 0 0 1 -1.54,2.52 10.36,10.36 0 0 1 -3,2.31 17.29,17.29 0 0 1 -4.41,1.29 27.57,27.57 0 0 1 -4.28,0.25 l -4.27,-0.1 c -1.82,0 -4,0.08 -6.47,0.25 -0.76,-0.02 -2.72,0.06 -5.94,0.17 z m 11.72,-19.09 a 16.24,16.24 0 0 0 2.36,0.15 9.72,9.72 0 0 0 5.71,-1.39 q 1.93,-1.4 1.94,-4.82 a 5.1,5.1 0 0 0 -1.84,-4 c -1.22,-1.08 -3.07,-1.61 -5.53,-1.61 a 19.48,19.48 0 0 0 -2.82,0.27 c 0,0.39 0,0.94 0,1.66 0.09,1.43 0.13,3.42 0.13,6 v 2.11 c 0.02,0.34 0.03,0.9 0.05,1.63 z m 0.3,16 a 8,8 0 0 0 3,0.68 10.86,10.86 0 0 0 4.68,-0.87 5.6,5.6 0 0 0 2.64,-2.43 8.16,8.16 0 0 0 0.83,-3.9 7.29,7.29 0 0 0 -0.9,-3.87 6.43,6.43 0 0 0 -3,-2.71 15.67,15.67 0 0 0 -5.35,-0.69 7.1,7.1 0 0 0 -2.19,0.23 v 3.09 3.72 l 0.08,5.79 a 3,3 0 0 0 0.25,0.99 z"
     id="path10" />
  <path
     class="cls-2"
     d="m 123,165.61 -0.08,-2 q 0.45,0 0.93,0 c 0.84,0 1.72,0 2.65,0.08 2.21,0.11 3.51,0.17 3.9,0.17 1.34,0 2.66,0 3.94,-0.08 1.28,-0.08 2.43,-0.08 3.43,-0.1 h 2 v 0.29 l 0.05,1.47 v 0.2 a 21.25,21.25 0 0 1 -2.92,0.2 2.39,2.39 0 0 0 -1.86,0.55 7.51,7.51 0 0 0 -0.3,3 c 0,0.53 0,1 0,1.3 v 0.91 l -0.05,2.36 0.15,2 -0.1,4.35 0.33,6.31 a 9.57,9.57 0 0 0 1.21,4.55 5.51,5.51 0 0 0 2.26,2.09 9.17,9.17 0 0 0 4.15,1.06 15.49,15.49 0 0 0 4.5,-0.63 7.56,7.56 0 0 0 2.33,-1.15 5.92,5.92 0 0 0 1.52,-1.44 9.87,9.87 0 0 0 1.26,-2.59 20.22,20.22 0 0 0 0.48,-5.16 q 0,-6.09 -0.66,-13.71 l -0.1,-1.33 a 3.23,3.23 0 0 0 -0.55,-2 2.54,2.54 0 0 0 -1.81,-0.78 l -2.37,0.05 -0.32,-0.07 0.05,-1.94 h 2 l 4.81,0.23 a 45,45 0 0 0 4.6,-0.23 h 0.43 a 7.65,7.65 0 0 1 0.15,1.16 2.78,2.78 0 0 1 -0.1,0.68 8.91,8.91 0 0 1 -2,0.3 6.55,6.55 0 0 0 -1.86,0.38 1.14,1.14 0 0 0 -0.36,0.93 c 0,0.3 0,0.74 0.08,1.31 0,0.42 0.07,1.15 0.07,2.19 0,0.58 0,1 0,1.38 0,0.38 0,0.68 0,1 0,1.21 0.09,2.44 0.12,3.68 l 0.25,5.11 a 43.09,43.09 0 0 1 -0.35,6.87 8.59,8.59 0 0 1 -1,2.75 10.27,10.27 0 0 1 -2.64,2.78 13.12,13.12 0 0 1 -4.27,2 21.47,21.47 0 0 1 -6,0.74 19,19 0 0 1 -6.69,-1 9.86,9.86 0 0 1 -4.21,-2.74 9.52,9.52 0 0 1 -1.95,-4.42 28.6,28.6 0 0 1 -0.38,-5.33 v -12 c 0,-2.83 -0.13,-4.43 -0.4,-4.8 -0.27,-0.37 -1.52,-0.81 -3.45,-0.88 A 6.06,6.06 0 0 1 123,165.61 Z"
     id="path12" />
  <path
     class="cls-2"
     d="m 182.64,193 c 0.36,-0.1 1.11,-0.24 2.23,-0.43 2.23,-0.39 3.69,-0.9 4.39,-1.55 a 3.74,3.74 0 0 0 0.82,-2.33 q 0,-0.43 0.25,-10.95 v -4 -4.77 l -0.1,-12.25 v -1.43 a 1.93,1.93 0 0 0 -0.51,-1.44 c -0.16,-0.17 -0.63,-0.25 -1.4,-0.25 a 12,12 0 0 0 -2.15,0.22 22.37,22.37 0 0 0 -2.84,0.28 l -0.69,0.11 v -3.16 a 43.47,43.47 0 0 1 6.07,-1.33 101.08,101.08 0 0 1 16.1,-1.08 54.35,54.35 0 0 1 11.68,0.9 24,24 0 0 1 9.12,4.16 24.4,24.4 0 0 1 7.07,8.57 24.15,24.15 0 0 1 2.32,10.73 23.45,23.45 0 0 1 -3.16,12.44 22.78,22.78 0 0 1 -9.09,8.31 q -4.17,2.23 -11.32,2.23 l -7.37,-0.29 -2.16,-0.1 -2.91,0.06 -0.86,-0.06 -3,0.06 h -4 c -0.14,0 -1.36,0.07 -3.66,0.23 -0.77,0 -1.77,0.07 -3,0.09 -0.77,0 -1.34,0 -1.72,0 -0.08,-0.56 -0.11,-1.53 -0.11,-2.97 z m 17.43,-40 c 0,0.74 -0.07,1.26 -0.07,1.58 l 0.07,6.1 V 166 c 0.05,1.72 0.07,3.23 0.07,4.52 l -0.07,3.41 0.11,5.71 -0.11,3.51 q 0,4.92 1.83,6.68 a 10.28,10.28 0 0 0 7.33,2.51 15,15 0 0 0 5.25,-0.68 14.61,14.61 0 0 0 5.59,-3.62 14.91,14.91 0 0 0 3.14,-6.41 33.73,33.73 0 0 0 1.08,-8.55 q 0,-7.25 -2.32,-11.84 a 16,16 0 0 0 -6.34,-6.9 20,20 0 0 0 -15.56,-1.33 z"
     id="path14" />
  <path
     class="cls-2"
     d="m 240.65,196 a 12.64,12.64 0 0 1 0.15,-1.78 l 3.18,-0.56 a 10.87,10.87 0 0 0 1.4,-0.4 l 0.33,-6.29 c -0.07,-2.26 -0.1,-3.95 -0.1,-5.08 v -0.6 c 0.05,-0.69 0.08,-2.42 0.08,-5.18 l -0.07,-0.73 0.07,-2.12 -0.05,-2.18 V 170 a 30.46,30.46 0 0 0 -0.22,-3.42 3,3 0 0 0 -0.19,-0.6 1.89,1.89 0 0 0 -0.44,-0.1 4.71,4.71 0 0 1 -0.5,-0.08 c -0.66,-0.11 -1.36,-0.2 -2.11,-0.25 l -0.38,-0.1 a 5.16,5.16 0 0 1 -1,-0.2 c -0.05,-0.49 -0.08,-0.8 -0.08,-0.93 a 3.25,3.25 0 0 1 0.15,-0.83 7.43,7.43 0 0 1 1.41,-0.1 q 0.92,0 1.26,0 3.07,0.33 4.56,0.36 h 1.38 c 0.46,0 0.87,0 1.22,0 0.55,0 1.9,-0.08 4,-0.25 a 5.28,5.28 0 0 1 1.16,-0.13 9.65,9.65 0 0 1 1.56,0.11 q 0,0.53 0,0.75 a 5.59,5.59 0 0 1 -0.1,1 l -4.45,0.7 a 0.79,0.79 0 0 0 -0.53,0.73 l 0.06,0.93 v 1.51 0.86 0.2 a 2.23,2.23 0 0 1 0.05,0.48 l -0.05,3.19 a 5.22,5.22 0 0 1 0.05,0.68 c 0,0.09 0,0.35 0,0.81 0,0.27 0,0.54 0,0.83 0,0.29 0,0.84 0.05,1.78 a 7.89,7.89 0 0 0 1.18,0.15 l 3.72,0.08 h 1.81 4.52 l 4.4,-0.12 a 9.63,9.63 0 0 0 1.8,-0.18 c 0,-0.57 0.06,-2 0.08,-4.2 v -1.13 l -0.15,-4.28 -0.18,-1.76 a 0.74,0.74 0 0 0 -0.35,-0.32 15.25,15.25 0 0 0 -3.52,-1.14 6.39,6.39 0 0 1 -0.91,-0.25 7.68,7.68 0 0 1 0.21,-1.43 h 0.67 2.44 a 37.28,37.28 0 0 0 4.75,0.3 h 0.88 l 3.26,-0.1 0.88,-0.05 a 8.16,8.16 0 0 1 1.86,-0.21 c 0.48,0 1.07,0 1.76,0.08 0,0.65 -0.06,1.25 -0.13,1.79 -1.53,0.31 -2.54,0.54 -3,0.69 a 8,8 0 0 0 -1.44,0.59 l -0.15,0.5 v 0.43 0.65 0.33 a 6,6 0 0 0 -0.07,0.8 v 0.63 c 0,0.76 0.05,1.18 0.05,1.26 v 3.2 2.41 l -0.07,3.2 c 0,0.73 0,2.24 0.09,4.52 v 3.57 l 0.05,3 c 0,0.56 0,1.23 -0.05,2 l 1,0.26 a 19.1,19.1 0 0 1 3.55,1 l 0.08,1.76 h -1.18 c -0.81,0 -1.73,-0.05 -2.77,-0.15 q -2.06,-0.23 -6.63,-0.22 c -1.37,0 -3.15,0.1 -5.32,0.32 a 3.11,3.11 0 0 1 -0.86,-0.15 10,10 0 0 1 0.13,-1.63 l 1.94,-0.46 2,-0.32 c 0.21,-0.05 0.46,-0.13 0.78,-0.23 a 58.38,58.38 0 0 0 0.31,-6.77 v -2.13 a 29.25,29.25 0 0 1 -0.15,-3.2 c -0.62,-0.05 -1.29,-0.08 -2,-0.1 l -11.65,-0.12 h -0.23 -0.18 a 3,3 0 0 0 -0.4,0 h -1.1 -0.71 a 3.86,3.86 0 0 0 -1.08,0.17 l -0.12,1.89 v 0.32 c 0,0.46 0.05,0.75 0.05,0.89 v 7.79 a 12.28,12.28 0 0 0 0.07,1.34 l 0.23,0.15 3.72,0.58 0.43,0.12 a 1.63,1.63 0 0 1 0.55,0.23 7.68,7.68 0 0 1 0.08,0.78 5.18,5.18 0 0 1 -0.1,0.9 h -1.54 c -0.37,0 -0.71,0 -1,0 a 3,3 0 0 1 -0.43,0 l -3.55,-0.15 c -0.84,-0.09 -2,-0.13 -3.53,-0.13 h -0.53 l -1.23,0.07 a 41.11,41.11 0 0 1 -4.87,0.25 z"
     id="path16" />
  <path
     class="cls-2"
     d="m 283.45,196.05 0.05,-1.71 a 16.28,16.28 0 0 1 1.69,-0.38 7.84,7.84 0 0 0 2.35,-0.68 4.77,4.77 0 0 0 1,-1.46 l 5.07,-13.29 6,-15.63 h 2.74 l 0.22,0.45 4.38,10.36 q 1.47,3.3 2.66,6.4 c 0.79,2.07 1.46,3.76 2,5.07 0.34,0.79 0.8,2 1.39,3.55 a 33.45,33.45 0 0 0 1.38,3.22 4,4 0 0 0 0.75,1.23 2.87,2.87 0 0 0 1.47,0.5 9.94,9.94 0 0 1 2.21,0.58 9.7,9.7 0 0 1 0.12,1.24 c 0,0.11 0,0.3 0,0.55 -1.25,0 -2.61,-0.06 -4.1,-0.18 -1.49,-0.12 -2.84,-0.17 -4,-0.17 -1.16,0 -2.28,0 -2.87,0.05 l -4.27,0.22 -1.23,0.05 c 0,-0.58 0,-1.14 0.07,-1.68 l 2.79,-0.61 a 4.88,4.88 0 0 0 1.46,-0.5 0.79,0.79 0 0 0 0.25,-0.58 2.12,2.12 0 0 0 -0.12,-0.68 l -1,-2.46 -2,-4.93 h -9.6 q -0.53,1.22 -2.21,5.91 a 6.78,6.78 0 0 0 -0.48,1.82 1.14,1.14 0 0 0 0.35,0.93 4.72,4.72 0 0 0 2.21,0.68 l 1.79,0.27 q 0,0.92 0,1.26 a 4,4 0 0 1 -0.05,0.58 c -1,0 -3.53,-0.14 -7.45,-0.43 l -1,0.18 a 22.28,22.28 0 0 1 -3.55,0.3 z m 11.83,-14.14 6.94,0.08 h 0.62 q -0.75,-2.24 -2,-5.22 c -0.8,-2 -1.46,-3.5 -2,-4.54 z"
     id="path18" />
  <path
     class="cls-2"
     d="m 320.26,196.27 0.05,-2 a 14.44,14.44 0 0 1 1.46,-0.27 10.82,10.82 0 0 0 2.67,-0.66 3.46,3.46 0 0 0 0.45,-1.1 32.69,32.69 0 0 0 0.2,-4.16 v -10.69 c 0,-1.1 -0.06,-4 -0.18,-8.67 a 8,8 0 0 0 -0.25,-2.34 0.55,0.55 0 0 0 -0.25,-0.25 3,3 0 0 0 -1.51,-0.33 c -0.32,0 -1.14,-0.11 -2.46,-0.28 l -0.08,-1.78 5.64,-0.13 8.22,-0.28 h 1 a 6.08,6.08 0 0 1 0.61,0 h 1.33 1.61 a 15.22,15.22 0 0 1 4.15,0.58 10.58,10.58 0 0 1 2.06,0.84 8,8 0 0 1 2.23,1.63 6.47,6.47 0 0 1 1.39,2.23 7.33,7.33 0 0 1 0.46,2.62 5.58,5.58 0 0 1 -0.68,2.75 7.24,7.24 0 0 1 -2.07,2.25 23.08,23.08 0 0 1 -3.24,1.66 10.48,10.48 0 0 1 5.78,3.13 7.51,7.51 0 0 1 2,5.07 10.5,10.5 0 0 1 -0.63,3.47 6.79,6.79 0 0 1 -1.53,2.52 10.63,10.63 0 0 1 -3,2.31 17.51,17.51 0 0 1 -4.42,1.29 27.42,27.42 0 0 1 -4.27,0.25 l -4.28,-0.1 q -2.72,0 -6.46,0.25 c -0.82,0 -2.78,0.08 -6,0.19 z M 332,177.18 a 16.28,16.28 0 0 0 2.37,0.15 9.74,9.74 0 0 0 5.71,-1.39 q 1.94,-1.4 1.93,-4.82 a 5.12,5.12 0 0 0 -1.83,-4 c -1.23,-1.08 -3.07,-1.61 -5.54,-1.61 a 19.49,19.49 0 0 0 -2.81,0.27 c 0,0.39 0,0.94 0.05,1.66 0.08,1.43 0.12,3.42 0.12,6 v 2.11 c 0,0.34 0,0.9 0,1.63 z m 0.3,16 a 8.06,8.06 0 0 0 3.05,0.68 10.86,10.86 0 0 0 4.65,-0.86 5.7,5.7 0 0 0 2.64,-2.43 8.28,8.28 0 0 0 0.83,-3.9 7.2,7.2 0 0 0 -0.91,-3.87 6.41,6.41 0 0 0 -3,-2.71 15.74,15.74 0 0 0 -5.36,-0.69 7.15,7.15 0 0 0 -2.19,0.23 v 3.09 3.72 l 0.07,5.79 a 3.25,3.25 0 0 0 0.2,0.98 z"
     id="path20" />
  <path
     class="cls-2"
     d="m 355.89,196.07 v -1.81 q 0.5,-0.15 1.65,-0.42 A 11.08,11.08 0 0 0 360,193 a 4.32,4.32 0 0 0 0.45,-2.16 v -3 l 0.05,-5.73 v -1.36 c 0.13,-3.32 0.2,-5 0.2,-5.13 l -0.05,-3.35 0.07,-1.35 -0.12,-2.87 v -1.08 a 6.38,6.38 0 0 0 -0.18,-0.81 9.7,9.7 0 0 0 -3.34,-0.6 7.44,7.44 0 0 1 -0.88,-0.08 l -0.2,-2.18 7.19,0.3 1.66,0.05 c 1,0 2.57,-0.07 4.75,-0.2 l 2.31,-0.15 c 0,0.32 0,0.59 0,0.8 0,0.21 0,0.66 -0.06,1.11 a 23,23 0 0 1 -2.29,0.67 15.87,15.87 0 0 0 -2.12,0.64 8.2,8.2 0 0 0 -0.16,1.89 16.57,16.57 0 0 0 0.08,1.76 q -0.07,4.25 -0.08,6.54 v 6.64 l -0.13,3.37 0.1,5 -0.07,0.95 a 1.69,1.69 0 0 0 0.15,0.58 24.11,24.11 0 0 0 2.78,0.45 l 1.52,0.21 a 9.23,9.23 0 0 1 0.1,1.25 c 0,0.19 0,0.47 0,0.86 h -0.5 c -0.54,0 -0.85,0.05 -0.93,0.05 A 4.86,4.86 0 0 1 369.64,196 l -3.34,-0.35 h -4.44 c -0.89,0 -2.18,0.08 -3.87,0.25 -1.05,0.1 -1.76,0.16 -2.1,0.17 z"
     id="path22" />
  <rect
     class="cls-2"
     x="46.25"
     y="249.55"
     width="325.70999"
     height="6.1500001"
     id="rect24" />
  <path
     class="cls-3"
     d="m 78.62,224.36 h -6.88 v 20.45 a 2.76,2.76 0 0 0 1.91,2.79 25.12,25.12 0 0 0 5.81,1.21 c 0.74,0.12 1.12,0.65 1.12,1.58 a 8.69,8.69 0 0 1 -0.19,1.58 c -1.67,-0.13 -3.7,-0.23 -6.09,-0.33 -2.39,-0.1 -4.73,-0.13 -7,-0.13 -1.61,0 -3.47,0 -5.58,0.13 -2.11,0.13 -4.09,0.2 -5.94,0.33 a 7.61,7.61 0 0 1 -0.19,-1.49 c 0,-0.86 0.34,-1.36 1,-1.48 a 16.93,16.93 0 0 0 5,-1.35 A 2.78,2.78 0 0 0 63,245 V 197.68 A 3,3 0 0 0 61.66,195 13.57,13.57 0 0 0 56.41,193.65 c -0.62,-0.06 -0.93,-0.59 -0.93,-1.58 a 8.2,8.2 0 0 1 0.18,-1.48 q 2.79,0.18 5.77,0.32 c 2,0.09 3.87,0.14 5.67,0.14 h 12.55 q 10,0 15.15,4.42 5.15,4.42 5.11,11.94 a 14.47,14.47 0 0 1 -0.69,4.28 17.16,17.16 0 0 1 -2.14,4.37 17.88,17.88 0 0 1 -3.72,3.94 19,19 0 0 1 -5.36,3 l 15.53,21.56 a 9.69,9.69 0 0 0 3.9,3.35 25.92,25.92 0 0 0 4,1.39 c 0.56,0.13 0.84,0.56 0.84,1.31 a 9,9 0 0 1 -0.19,1.67 c -1.43,-0.13 -3.16,-0.23 -5.21,-0.33 -2.05,-0.1 -3.93,-0.14 -5.67,-0.14 a 6.19,6.19 0 0 1 -3.95,-1.67 20.24,20.24 0 0 1 -3.76,-4.28 z m -2,-3.81 q 6.51,0 10,-2.74 3.49,-2.74 3.53,-9.63 a 17.75,17.75 0 0 0 -0.74,-5.29 10.91,10.91 0 0 0 -2.37,-4.19 11.37,11.37 0 0 0 -4.28,-2.79 18,18 0 0 0 -6.46,-1 h -4.56 v 25.66 z"
     id="path26" />
  <path
     class="cls-3"
     d="m 124.88,217.29 v 14.41 h 8.78 a 1.63,1.63 0 0 0 1.6,-1.1 11.54,11.54 0 0 0 0.76,-2.67 0.92,0.92 0 0 1 1,-0.73 3.2,3.2 0 0 1 0.45,0.05 4,4 0 0 1 0.45,0.12 c -0.08,0.82 -0.14,1.76 -0.2,2.81 -0.06,1.05 -0.08,2 -0.08,2.76 0,0.76 0,1.42 0.05,2.34 0.05,0.92 0.12,2 0.23,3.12 a 3.25,3.25 0 0 1 -0.85,0.11 1,1 0 0 1 -1.07,-0.73 11.54,11.54 0 0 0 -0.76,-2.67 1.64,1.64 0 0 0 -1.6,-1.1 h -8.78 v 13.29 c 0,0.78 0.5,1.31 1.52,1.57 a 22.33,22.33 0 0 0 5,0.4 h 3.09 a 7.73,7.73 0 0 0 2.85,-0.48 7.26,7.26 0 0 0 2.14,-1.3 9.27,9.27 0 0 0 1.66,-1.94 27.07,27.07 0 0 0 1.4,-2.48 c 0.12,-0.26 0.4,-0.39 0.85,-0.39 a 1.27,1.27 0 0 1 0.59,0.17 c 0.21,0.11 0.4,0.22 0.59,0.34 a 12.94,12.94 0 0 0 -0.87,2.56 c -0.25,1 -0.48,1.94 -0.71,2.84 a 20.44,20.44 0 0 1 -0.7,2.31 c -0.24,0.64 -0.55,0.95 -0.93,0.95 -0.38,0 -0.73,0 -1.29,0 -0.56,0 -1.18,-0.07 -1.83,-0.09 -0.65,-0.02 -1.33,0 -2,-0.08 -0.67,-0.08 -1.26,-0.06 -1.75,-0.06 h -12.29 c -1.09,0 -2.26,0 -3.5,0.09 -1.24,0.09 -2.42,0.12 -3.54,0.19 a 4.34,4.34 0 0 1 -0.11,-0.9 c 0,-0.52 0.18,-0.82 0.56,-0.9 a 13.14,13.14 0 0 0 3.07,-0.84 1.61,1.61 0 0 0 0.93,-1.58 V 219 a 1.6,1.6 0 0 0 -0.82,-1.55 13.82,13.82 0 0 0 -3.18,-0.87 c -0.38,-0.08 -0.56,-0.4 -0.56,-1 a 3.4,3.4 0 0 1 0,-0.48 4,4 0 0 1 0.09,-0.42 c 1.61,0.11 3,0.19 4,0.23 1,0.04 2.07,0 2.93,0 h 11.09 c 1.69,0 3.15,0 4.39,-0.17 1.24,-0.17 2.06,-0.17 2.48,-0.17 0.42,0 0.81,0.31 1,0.93 a 16.23,16.23 0 0 1 0.42,2.23 c 0.12,0.86 0.25,1.78 0.4,2.75 a 6.65,6.65 0 0 0 0.84,2.48 1.62,1.62 0 0 1 -1,0.34 0.94,0.94 0 0 1 -1,-0.51 c -0.45,-1 -0.88,-1.81 -1.29,-2.5 a 6.49,6.49 0 0 0 -1.44,-1.72 5.33,5.33 0 0 0 -2,-1 10.08,10.08 0 0 0 -2.84,-0.34 z"
     id="path28" />
  <path
     class="cls-3"
     d="m 159.5,235.7 v 11.54 a 1.86,1.86 0 0 0 1.24,1.83 14.57,14.57 0 0 0 3.71,0.87 c 0.45,0.08 0.68,0.39 0.68,1 a 5.33,5.33 0 0 1 -0.11,0.95 c -1.09,-0.07 -2.33,-0.14 -3.72,-0.19 -1.39,-0.05 -2.89,-0.09 -4.5,-0.09 -1,0 -2.09,0 -3.32,0.09 -1.23,0.09 -2.41,0.12 -3.5,0.19 a 5.15,5.15 0 0 1 -0.11,-0.9 c 0,-0.52 0.19,-0.82 0.56,-0.9 a 12.15,12.15 0 0 0 3,-0.87 1.63,1.63 0 0 0 0.76,-1.55 V 219 a 1.72,1.72 0 0 0 -0.88,-1.63 9,9 0 0 0 -3.12,-0.79 c -0.38,-0.08 -0.56,-0.41 -0.56,-1 a 3.23,3.23 0 0 1 0.11,-0.84 c 1.05,0.08 2.17,0.14 3.35,0.2 1.18,0.06 2.3,0.08 3.35,0.08 h 7.94 q 6.07,0 9.12,2.87 a 9.79,9.79 0 0 1 3,7.43 9.1,9.1 0 0 1 -0.82,3.66 10.38,10.38 0 0 1 -2.36,3.35 12.35,12.35 0 0 1 -3.83,2.45 13.17,13.17 0 0 1 -5.15,1 z m 3,-2.31 a 9.39,9.39 0 0 0 6.08,-1.74 q 2.15,-1.76 2.14,-5.92 a 13.06,13.06 0 0 0 -0.39,-3.26 7,7 0 0 0 -1.33,-2.67 6.63,6.63 0 0 0 -2.54,-1.83 9.84,9.84 0 0 0 -3.94,-0.68 h -3 v 16.1 z"
     id="path30" />
  <path
     class="cls-3"
     d="M 181.57,233.28 A 19.27,19.27 0 0 1 183,226 a 19.64,19.64 0 0 1 3.83,-6 18.28,18.28 0 0 1 5.63,-4.11 15.5,15.5 0 0 1 6.76,-1.52 21.86,21.86 0 0 1 8.55,1.54 16.66,16.66 0 0 1 9.63,10.22 21.93,21.93 0 0 1 1.18,7.21 20.65,20.65 0 0 1 -1.46,8 17.09,17.09 0 0 1 -10.12,9.66 20.83,20.83 0 0 1 -7.4,1.3 19.23,19.23 0 0 1 -7.32,-1.35 16.3,16.3 0 0 1 -5.68,-3.95 17.67,17.67 0 0 1 -3.71,-6 21.84,21.84 0 0 1 -1.32,-7.72 z m 19.36,16.27 a 11.31,11.31 0 0 0 4.84,-1 11.16,11.16 0 0 0 3.78,-2.81 12.93,12.93 0 0 0 2.44,-4.28 15.93,15.93 0 0 0 0.88,-5.4 31.82,31.82 0 0 0 -0.85,-7.52 18.68,18.68 0 0 0 -2.56,-6 12.54,12.54 0 0 0 -4.33,-4 12.41,12.41 0 0 0 -6.13,-1.54 11.5,11.5 0 0 0 -4.42,0.87 11,11 0 0 0 -3.72,2.53 12.33,12.33 0 0 0 -2.56,4.09 15,15 0 0 0 -1,5.57 31.12,31.12 0 0 0 0.91,7.74 20.26,20.26 0 0 0 2.61,6.19 12.52,12.52 0 0 0 4.25,4.08 11.37,11.37 0 0 0 5.86,1.48 z"
     id="path32" />
  <path
     class="cls-3"
     d="m 238.37,235.14 h -4.17 v 12.38 a 1.67,1.67 0 0 0 1.16,1.69 15.36,15.36 0 0 0 3.51,0.73 c 0.45,0.08 0.68,0.39 0.68,1 a 5.33,5.33 0 0 1 -0.11,0.95 c -1,-0.07 -2.25,-0.14 -3.69,-0.19 -1.44,-0.05 -2.86,-0.09 -4.25,-0.09 -1,0 -2.1,0 -3.38,0.09 -1.28,0.09 -2.47,0.12 -3.6,0.19 a 4.34,4.34 0 0 1 -0.11,-0.9 c 0,-0.52 0.2,-0.82 0.62,-0.9 a 10,10 0 0 0 3,-0.81 1.69,1.69 0 0 0 0.87,-1.61 V 219 a 1.8,1.8 0 0 0 -0.82,-1.61 8.38,8.38 0 0 0 -3.18,-0.81 c -0.37,0 -0.56,-0.36 -0.56,-1 a 5.38,5.38 0 0 1 0.11,-0.9 c 1.13,0.08 2.29,0.14 3.49,0.2 1.2,0.06 2.35,0.08 3.44,0.08 H 239 q 6.07,0 9.17,2.68 a 9,9 0 0 1 3.1,7.23 8.69,8.69 0 0 1 -0.42,2.59 10.11,10.11 0 0 1 -1.3,2.64 10.55,10.55 0 0 1 -2.25,2.4 11.45,11.45 0 0 1 -3.24,1.77 l 9.4,13.06 a 6,6 0 0 0 2.37,2 15.24,15.24 0 0 0 2.42,0.84 c 0.34,0.08 0.51,0.34 0.51,0.79 a 4.84,4.84 0 0 1 -0.12,1 c -0.86,-0.07 -1.91,-0.14 -3.15,-0.19 -1.24,-0.05 -2.38,-0.09 -3.43,-0.09 a 3.75,3.75 0 0 1 -2.39,-1 12.78,12.78 0 0 1 -2.29,-2.59 z m -1.18,-2.31 a 9.8,9.8 0 0 0 6.08,-1.66 q 2.13,-1.66 2.13,-5.83 a 10.92,10.92 0 0 0 -0.45,-3.21 6.59,6.59 0 0 0 -1.43,-2.53 6.78,6.78 0 0 0 -2.59,-1.69 10.94,10.94 0 0 0 -3.91,-0.62 h -2.82 v 15.54 z"
     id="path34" />
  <path
     class="cls-3"
     d="m 277.77,217.29 v 30.06 a 1.88,1.88 0 0 0 1.07,1.83 11.67,11.67 0 0 0 3.61,0.82 c 0.41,0 0.62,0.3 0.62,0.9 a 4.63,4.63 0 0 1 -0.12,0.95 c -1.2,-0.07 -2.46,-0.14 -3.8,-0.19 -1.34,-0.05 -2.67,-0.09 -4,-0.09 -1.33,0 -2.66,0 -4,0.09 -1.34,0.09 -2.65,0.12 -3.85,0.19 a 4.63,4.63 0 0 1 -0.12,-0.95 q 0,-0.79 0.57,-0.9 a 14.31,14.31 0 0 0 3.66,-0.85 1.8,1.8 0 0 0 1.12,-1.8 v -30.06 h -5.8 a 10.08,10.08 0 0 0 -2.84,0.34 5.72,5.72 0 0 0 -2,1 6.05,6.05 0 0 0 -1.46,1.75 c -0.41,0.71 -0.85,1.54 -1.3,2.47 a 0.68,0.68 0 0 1 -0.36,0.4 1.28,1.28 0 0 1 -0.48,0.11 1.71,1.71 0 0 1 -1.07,-0.34 c 0.37,-1.35 0.66,-2.55 0.84,-3.6 0.18,-1.05 0.36,-1.92 0.51,-2.62 a 8.24,8.24 0 0 1 0.48,-1.6 0.85,0.85 0 0 1 0.82,-0.57 c 0.26,0 0.63,0 1.12,0.06 l 1.55,0.11 1.66,0.12 c 0.56,0 1.09,0 1.58,0 h 18.8 c 0.45,0 1,0 1.52,0 l 1.69,-0.12 1.55,-0.11 c 0.47,0 0.85,-0.06 1.15,-0.06 a 0.85,0.85 0 0 1 0.82,0.6 8.83,8.83 0 0 1 0.48,1.66 c 0.14,0.71 0.31,1.59 0.47,2.64 a 22.85,22.85 0 0 0 0.88,3.49 l -0.54,0.23 a 1.42,1.42 0 0 1 -1.1,0 0.7,0.7 0 0 1 -0.39,-0.4 25.74,25.74 0 0 0 -1.24,-2.47 6.31,6.31 0 0 0 -1.43,-1.75 5.49,5.49 0 0 0 -2,-1 10.11,10.11 0 0 0 -2.85,-0.34 z"
     id="path36" />
  <path
     class="cls-3"
     d="m 306.32,217.29 v 14.41 h 8.78 a 1.63,1.63 0 0 0 1.6,-1.1 12.06,12.06 0 0 0 0.76,-2.67 0.91,0.91 0 0 1 1,-0.73 3.17,3.17 0 0 1 0.46,0.05 l 0.45,0.12 c -0.08,0.82 -0.15,1.76 -0.2,2.81 -0.05,1.05 -0.09,2 -0.09,2.76 0,0.76 0,1.42 0.06,2.34 0.06,0.92 0.11,2 0.23,3.12 a 3.36,3.36 0 0 1 -0.85,0.11 c -0.6,0 -1,-0.24 -1.07,-0.73 a 12.06,12.06 0 0 0 -0.76,-2.67 1.64,1.64 0 0 0 -1.6,-1.1 h -8.78 v 13.29 c 0,0.78 0.5,1.31 1.51,1.57 a 22.49,22.49 0 0 0 5,0.4 h 3.09 a 7.64,7.64 0 0 0 2.84,-0.48 7.13,7.13 0 0 0 2.14,-1.3 9,9 0 0 0 1.66,-1.94 24.91,24.91 0 0 0 1.41,-2.48 c 0.11,-0.26 0.4,-0.39 0.85,-0.39 a 1.3,1.3 0 0 1 0.59,0.17 c 0.2,0.11 0.4,0.22 0.59,0.34 a 12.94,12.94 0 0 0 -0.87,2.56 c -0.25,1 -0.48,1.94 -0.71,2.84 a 20.44,20.44 0 0 1 -0.7,2.31 c -0.25,0.64 -0.56,0.95 -0.93,0.95 -0.37,0 -0.73,0 -1.3,0 -0.57,0 -1.17,-0.07 -1.82,-0.09 -0.65,-0.02 -1.33,0 -2,-0.08 -0.67,-0.08 -1.26,-0.06 -1.75,-0.06 h -12.3 c -1.09,0 -2.25,0 -3.49,0.09 -1.24,0.09 -2.42,0.12 -3.54,0.19 a 4.46,4.46 0 0 1 -0.12,-0.9 q 0,-0.78 0.57,-0.9 a 12.88,12.88 0 0 0 3.06,-0.84 1.61,1.61 0 0 0 0.93,-1.58 V 219 a 1.59,1.59 0 0 0 -0.81,-1.55 13.82,13.82 0 0 0 -3.18,-0.87 q -0.57,-0.12 -0.57,-1 a 3.23,3.23 0 0 1 0,-0.48 4,4 0 0 1 0.09,-0.42 c 1.61,0.11 3,0.19 4.05,0.23 1.05,0.04 2.06,0 2.93,0 h 11.09 c 1.69,0 3.15,0 4.39,-0.17 1.24,-0.17 2.06,-0.17 2.47,-0.17 0.41,0 0.82,0.31 1,0.93 a 16.23,16.23 0 0 1 0.42,2.23 c 0.11,0.86 0.25,1.78 0.4,2.75 a 6.65,6.65 0 0 0 0.84,2.48 1.62,1.62 0 0 1 -1,0.34 0.94,0.94 0 0 1 -1,-0.51 c -0.45,-1 -0.88,-1.81 -1.29,-2.5 a 6.68,6.68 0 0 0 -1.44,-1.72 5.33,5.33 0 0 0 -2,-1 10.08,10.08 0 0 0 -2.84,-0.34 z"
     id="path38" />
  <path
     class="cls-3"
     d="m 345.1,235.14 h -4.16 v 12.38 a 1.67,1.67 0 0 0 1.15,1.69 15.47,15.47 0 0 0 3.52,0.73 c 0.45,0.08 0.67,0.39 0.67,1 a 4.54,4.54 0 0 1 -0.11,0.95 c -1,-0.07 -2.24,-0.14 -3.69,-0.19 -1.45,-0.05 -2.86,-0.09 -4.25,-0.09 -1,0 -2.1,0 -3.37,0.09 -1.27,0.09 -2.48,0.12 -3.61,0.19 a 5.15,5.15 0 0 1 -0.11,-0.9 c 0,-0.52 0.21,-0.82 0.62,-0.9 a 9.89,9.89 0 0 0 3,-0.81 1.69,1.69 0 0 0 0.87,-1.61 V 219 a 1.81,1.81 0 0 0 -0.81,-1.61 8.49,8.49 0 0 0 -3.18,-0.81 q -0.57,-0.06 -0.57,-1 a 4.64,4.64 0 0 1 0.12,-0.9 c 1.12,0.08 2.29,0.14 3.49,0.2 1.2,0.06 2.34,0.08 3.43,0.08 h 7.6 c 4.06,0 7.11,0.89 9.18,2.68 a 9.06,9.06 0 0 1 3.09,7.23 8.69,8.69 0 0 1 -0.42,2.59 10.07,10.07 0 0 1 -1.29,2.64 11,11 0 0 1 -2.25,2.4 11.59,11.59 0 0 1 -3.24,1.77 l 9.4,13.06 a 5.92,5.92 0 0 0 2.36,2 15.59,15.59 0 0 0 2.42,0.84 c 0.34,0.08 0.51,0.34 0.51,0.79 a 5.54,5.54 0 0 1 -0.11,1 c -0.87,-0.07 -1.92,-0.14 -3.15,-0.19 -1.23,-0.05 -2.39,-0.09 -3.44,-0.09 a 3.77,3.77 0 0 1 -2.39,-1 12.45,12.45 0 0 1 -2.28,-2.59 z m -1.18,-2.31 a 9.78,9.78 0 0 0 6.08,-1.66 q 2.14,-1.66 2.14,-5.83 a 10.92,10.92 0 0 0 -0.45,-3.21 6.48,6.48 0 0 0 -1.44,-2.53 6.71,6.71 0 0 0 -2.59,-1.69 10.94,10.94 0 0 0 -3.91,-0.62 h -2.81 v 15.54 z"
     id="path40" />
</svg>
