<svg version="1.2" xmlns="http://www.w3.org/2000/svg" viewBox="0 0 70 50" width="70" height="50">
	<title>apple-pay-svgrepo-com-svg</title>
	<style>
		.s0 { fill: #ffffff;stroke: #d9d9d9 } 
		.s1 { fill: #000000 } 
	</style>
	<path id="Layer" class="s0" d="m0.5 7c0-3 2.5-5.5 5.5-5.5h58c3 0 5.5 2.5 5.5 5.5v36c0 3-2.5 5.5-5.5 5.5h-58c-3 0-5.5-2.5-5.5-5.5z"/>
	<path id="Layer" fill-rule="evenodd" class="s1" d="m19.2 17.7c-0.6 0.7-1.6 1.2-2.5 1.2-0.1-1 0.3-2 0.9-2.6 0.6-0.7 1.6-1.3 2.4-1.3 0.1 1-0.3 2-0.8 2.7zm3.8 3q0 0 0 0c-0.2 0.2-1.8 1.2-1.7 3.2 0 2.4 1.9 3.3 2.1 3.4q0.1 0 0.1 0c-0.1 0.2-0.4 1.3-1.2 2.4-0.7 1-1.4 2-2.5 2-0.5 0.1-0.9-0.1-1.3-0.3-0.4-0.1-0.8-0.3-1.4-0.3-0.7 0-1.1 0.2-1.5 0.3-0.4 0.2-0.8 0.3-1.2 0.4-1.1 0-2-1.1-2.7-2.2-1.4-2-2.5-5.8-1-8.4 0.7-1.3 2-2.1 3.4-2.1 0.6 0 1.2 0.2 1.7 0.4 0.4 0.2 0.8 0.3 1 0.3 0.3 0 0.6-0.1 1-0.3 0.6-0.2 1.4-0.5 2.2-0.4 0.5 0 2.1 0.2 3 1.6zm4.9 10.9v-15.4h5.7c3 0 5 2 5 5.1 0 3-2.1 5-5.1 5h-3.3v5.3zm2.4-7.3h2.7c2.1 0 3.3-1.1 3.3-3 0-2-1.2-3.1-3.3-3.1h-2.7zm16.2 5.4c-0.6 1.3-2 2-3.5 2-2.2 0-3.7-1.3-3.7-3.3 0-2 1.5-3.1 4.2-3.3l3-0.2v-0.8c0-1.3-0.8-2-2.3-2-1.2 0-2 0.6-2.2 1.6h-2.2c0.1-2 2-3.5 4.5-3.5 2.7 0 4.5 1.5 4.5 3.7v7.7h-2.2v-1.9zm-0.1-2.3v-0.9l-2.6 0.2c-1.5 0.1-2.3 0.7-2.3 1.6 0 1 0.8 1.6 2.1 1.6 1.6 0 2.8-1 2.8-2.5zm9.6 4.8c-1 2.7-2 3.6-4.4 3.6-0.1 0-0.7 0-0.9-0.1v-1.8c0.2 0 0.5 0 0.7 0 1.1 0 1.7-0.4 2-1.6l0.2-0.7-4-11.2h2.5l2.8 9.1h0.1l2.7-9.1h2.5z"/>
</svg>