<svg xmlns="http://www.w3.org/2000/svg" width="194.106" height="36" viewBox="0 0 194.106 36">
  <g id="bitmex" transform="translate(0 -0.6)">
    <g id="Group_4031" data-name="Group 4031" transform="translate(0 0.6)">
      <path id="Path_506" data-name="Path 506" d="M116,12.105c1.448-2.53,2.846-5.087,4.314-7.605h7.852a1.622,1.622,0,0,1,.338.053c-.261.4-.48.815-.71,1.227q-2.84,5.1-5.664,10.2c-.791,1.385-1.527,2.8-2.329,4.18l-.079.028-.015.173q-5.537,9.934-11.038,19.883-10.812.011-21.625,0c.41-.857.9-1.676,1.352-2.509,2.053-3.775,4.159-7.517,6.183-11.292q6.643-.011,13.286,0c2.736-4.765,5.412-9.566,8.128-14.338Z" transform="translate(-71.027 -4.381)" fill="#525c7a"/>
      <path id="Path_505" data-name="Path 505" d="M19.78,3.85H41.517a1.435,1.435,0,0,1-.285.795c-.736,1.262-1.4,2.576-2.121,3.837-1.023,1.812-1.979,3.657-3.019,5.462-.659,1.3-1.4,2.557-2.1,3.834H21.316c-.221,0-.44.011-.66.024a11.651,11.651,0,0,1-.736,1.367c-.322.522-.583,1.08-.9,1.6-.337.7-.8,1.332-1.141,2.033-.7,1.187-1.352,2.392-2.036,3.591q-1.071,1.84-2.094,3.731a15.821,15.821,0,0,0-.8,1.382c-1.429,2.487-2.813,5-4.244,7.482a3,3,0,0,1-.475.736c-2.447-.017-4.893,0-7.34,0A3.755,3.755,0,0,0,0,39.85a3.947,3.947,0,0,1,.758-1.788c.368-.763.859-1.472,1.229-2.237,2.932-5.247,5.833-10.512,8.757-15.762.662-1.141,1.231-2.305,1.9-3.424.832-1.472,1.606-2.977,2.472-4.432.276-.609.648-1.166.951-1.761C17.142,8.528,18.2,6.6,19.274,4.68a3.354,3.354,0,0,1,.506-.83Z" transform="translate(0 -3.85)" fill="#525c7a"/>
    </g>
    <g id="Group_3572" data-name="Group 3572" transform="translate(72.763 5.315)">
      <path id="Path_507" data-name="Path 507" d="M684.91,3.97V29.834h4.482V11.647l8.175,11.979,8.109-12.263V29.834h4.613V3.97h-4.962L697.6,15.909,689.785,3.97Z" transform="translate(-639.267 -3.449)" fill="#525c7a"/>
      <path id="Path_508" data-name="Path 508" d="M525.08,54.83h2.929V74.241H525.08Z" transform="translate(-500.4 -47.639)" fill="#525c7a"/>
      <path id="Path_509" data-name="Path 509" d="M523.16,0h3.432V3.257H523.16Z" transform="translate(-498.732)" fill="#525c7a"/>
      <path id="Path_510" data-name="Path 510" d="M572.99,12.42h3.06v5.562h6.033v2.711H576.05V32.225a2.734,2.734,0,0,0,.3,1.279c.518.984,1.925,2.151,5.733.787V36.8s-3.476,1.967-6.623.176a4.482,4.482,0,0,1-2.221-2.9,6.541,6.541,0,0,1-.249-1.845V20.65l-2.58.043V17.982h2.6Z" transform="translate(-539.785 -10.791)" fill="#525c7a"/>
      <path id="Path_511" data-name="Path 511" d="M914.41,3.97V30.009h19.455v-4.2H919.154V18.9h12.962V14.772H919.132V8.193h14.581V3.97Z" transform="translate(-838.667 -3.449)" fill="#525c7a"/>
      <path id="Path_512" data-name="Path 512" d="M1073.4,3.97h5.541l6.361,9.142,6.312-9.142h5.542l-9.05,12.7,9.614,13.318h-5.836l-6.558-9.727-6.875,9.749h-5.542l9.476-13.225Z" transform="translate(-976.378 -3.449)" fill="#525c7a"/>
      <path id="Path_513" data-name="Path 513" d="M352.627,16.933a6.462,6.462,0,0,0,4.023-6.273,6.433,6.433,0,0,0-5.077-5.86A9.705,9.705,0,0,0,349,4.469H336.91l.033,25.864H349.96s7.618-.164,8.154-6.951C358.114,23.382,358.66,18.638,352.627,16.933ZM340.036,7.139h7.717c6.054-.021,5.88,4.242,5.88,4.242.091,4.863-5.465,4.765-5.465,4.765h-8.132ZM349.479,27.6h-9.443V18.595h9.029c6.054-.022,5.88,4.24,5.88,4.24C355.035,27.7,349.479,27.6,349.479,27.6Z" transform="translate(-336.91 -3.883)" fill="#525c7a"/>
    </g>
  </g>
</svg>
