<?xml version="1.0" encoding="UTF-8" standalone="no"?>
<!-- Creator: CorelDRAW X7 -->

<svg
   xmlns:dc="http://purl.org/dc/elements/1.1/"
   xmlns:cc="http://creativecommons.org/ns#"
   xmlns:rdf="http://www.w3.org/1999/02/22-rdf-syntax-ns#"
   xmlns:svg="http://www.w3.org/2000/svg"
   xmlns="http://www.w3.org/2000/svg"
   xmlns:sodipodi="http://sodipodi.sourceforge.net/DTD/sodipodi-0.dtd"
   xmlns:inkscape="http://www.inkscape.org/namespaces/inkscape"
   xml:space="preserve"
   width="11.37711in"
   height="1.9783581in"
   version="1.0"
   viewBox="0 0 1137712 197835.81"
   id="svg18"
   sodipodi:docname="blockchainnewsonline-logo-b11-svg_cropped.svg"
   style="clip-rule:evenodd;fill-rule:evenodd;image-rendering:optimizeQuality;shape-rendering:geometricPrecision;text-rendering:geometricPrecision"
   inkscape:version="0.92.3 (2405546, 2018-03-11)"><metadata
   id="metadata24"><rdf:RDF><cc:Work
       rdf:about=""><dc:format>image/svg+xml</dc:format><dc:type
         rdf:resource="http://purl.org/dc/dcmitype/StillImage" /></cc:Work></rdf:RDF></metadata><defs
   id="defs22" /><sodipodi:namedview
   pagecolor="#ffffff"
   bordercolor="#666666"
   borderopacity="1"
   objecttolerance="10"
   gridtolerance="10"
   guidetolerance="10"
   inkscape:pageopacity="0"
   inkscape:pageshadow="2"
   inkscape:window-width="640"
   inkscape:window-height="480"
   id="namedview20"
   showgrid="false"
   inkscape:zoom="0.29734114"
   inkscape:cx="546.10368"
   inkscape:cy="-25.648281"
   inkscape:window-x="0"
   inkscape:window-y="0"
   inkscape:window-maximized="0"
   inkscape:current-layer="svg18" />
 <g
   id="Layer_x0020_1"
   transform="translate(-15787,-188833.41)">
  <metadata
   id="CorelCorpID_0Corel-Layer" />
  <path
   d="m 783069,385898 h -14652 v -22829 c 0,-2004 -452,-3456 -1351,-4358 -899,-899 -1943,-1348 -3125,-1348 -1234,0 -2544,539 -3933,1617 -1386,1082 -2416,2468 -3083,4165 v 22753 h -14655 v -40567 h 13189 v 6014 c 1438,-2208 3457,-3895 6052,-5049 2600,-1158 5669,-1735 9219,-1735 2775,0 4973,501 6594,1503 1618,1003 2852,2250 3702,3740 847,1490 1400,3087 1659,4783 256,1694 384,3239 384,4625 z m 27070,771 c -3547,0 -6709,-553 -9485,-1659 -2778,-1103 -5105,-2610 -6982,-4510 -1876,-1902 -3300,-4089 -4278,-6557 -979,-2468 -1466,-5064 -1466,-7787 0,-2931 477,-5710 1428,-8330 950,-2623 2364,-4911 4240,-6864 1877,-1956 4189,-3512 6941,-4666 2751,-1158 5952,-1735 9602,-1735 3601,0 6788,577 9563,1735 2779,1154 5105,2699 6982,4628 1877,1925 3290,4165 4241,6708 950,2544 1427,5206 1427,7981 0,774 -38,1556 -117,2354 -76,798 -166,1503 -270,2122 h -28459 c 155,2157 954,3712 2392,4666 1441,951 3006,1424 4704,1424 1593,0 3100,-359 4513,-1078 1414,-719 2351,-1721 2814,-3007 l 12419,3546 c -1646,3238 -4179,5890 -7598,7946 -3421,2057 -7624,3083 -12611,3083 z m 6480,-25373 c -259,-1953 -978,-3498 -2160,-4628 -1182,-1130 -2700,-1697 -4552,-1697 -1849,0 -3366,567 -4549,1697 -1182,1130 -1901,2675 -2160,4628 z m 69182,-15965 h 13804 l -16580,40567 h -11955 l -5475,-15425 -5478,15425 h -11952 l -16584,-40567 h 13805 l 9795,27226 2547,-8717 -7251,-18509 h 11644 l 3474,11876 3470,-11876 h 11644 l -7248,18509 2545,8717 z m 33706,41338 c -1698,0 -3522,-128 -5479,-384 -1952,-259 -3867,-594 -5744,-1005 -1877,-412 -3688,-913 -5437,-1504 -1749,-591 -3266,-1244 -4552,-1967 l 5631,-9947 c 2827,1490 5526,2623 8098,3394 2571,771 4963,1155 7172,1155 2571,0 3857,-643 3857,-1926 0,-670 -515,-1261 -1542,-1776 -1030,-512 -2983,-1130 -5862,-1849 -2879,-771 -5295,-1545 -7251,-2316 -1953,-771 -3522,-1631 -4704,-2582 -1182,-950 -2029,-2005 -2544,-3162 -515,-1158 -770,-2506 -770,-4051 0,-2056 421,-3958 1271,-5706 847,-1749 2043,-3263 3584,-4549 1545,-1286 3384,-2278 5517,-2969 2132,-695 4458,-1044 6978,-1044 2727,0 5644,387 8755,1158 3111,771 6287,1904 9526,3394 l -5631,9332 c -2879,-1337 -5271,-2302 -7172,-2893 -1904,-591 -3729,-885 -5478,-885 -1130,0 -2043,167 -2737,502 -695,331 -1041,860 -1041,1579 0,412 104,757 308,1041 207,283 567,552 1082,812 511,255 1220,525 2119,809 902,283 2018,577 3356,884 3083,775 5682,1583 7790,2430 2108,850 3792,1777 5050,2779 1262,1002 2160,2133 2699,3391 539,1261 809,2713 809,4358 0,4165 -1580,7455 -4742,9871 -3163,2420 -7469,3626 -12916,3626 z m 41876,0 c -2931,0 -5620,-553 -8060,-1659 -2443,-1103 -4552,-2610 -6325,-4510 -1773,-1902 -3148,-4113 -4127,-6633 -975,-2520 -1465,-5167 -1465,-7943 0,-2831 501,-5502 1503,-8022 1003,-2520 2392,-4732 4165,-6633 1777,-1900 3882,-3418 6325,-4552 2444,-1130 5105,-1693 7984,-1693 2880,0 5537,563 7981,1693 2443,1134 4552,2652 6325,4552 1773,1901 3163,4113 4165,6633 1002,2520 1503,5191 1503,8022 0,2776 -501,5423 -1503,7943 -1002,2520 -2392,4731 -4165,6633 -1773,1900 -3882,3407 -6325,4510 -2444,1106 -5101,1659 -7981,1659 z m -14578,-20669 c 0,2264 373,4359 1119,6287 744,1926 1774,3622 3083,5088 1314,1466 2856,2610 4628,3432 1774,823 3664,1234 5669,1234 2005,0 3895,-422 5668,-1272 1777,-847 3332,-2004 4666,-3470 1338,-1466 2392,-3177 3163,-5129 771,-1953 1158,-4061 1158,-6326 0,-2208 -387,-4306 -1158,-6283 -771,-1980 -1825,-3702 -3163,-5167 -1334,-1466 -2879,-2624 -4628,-3470 -1745,-850 -3622,-1276 -5627,-1276 -2008,0 -3895,426 -5672,1276 -1772,846 -3314,2015 -4624,3508 -1313,1490 -2354,3225 -3124,5205 -771,1981 -1158,4099 -1158,6363 z m 76892,19898 h -5243 v -22442 c 0,-4783 -695,-8253 -2081,-10413 -1389,-2161 -3549,-3239 -6480,-3239 -1542,0 -3083,283 -4628,850 -1542,564 -2980,1362 -4317,2389 -1338,1029 -2506,2250 -3508,3663 -1006,1414 -1763,2945 -2278,4590 v 24602 h -5243 v -40183 h 4780 v 9101 c 822,-1438 1838,-2762 3048,-3972 1207,-1206 2558,-2250 4047,-3121 1494,-874 3073,-1545 4746,-2008 1669,-459 3404,-691 5205,-691 2261,0 4151,411 5669,1234 1517,822 2737,1977 3664,3470 926,1490 1593,3315 2004,5475 411,2160 615,4552 615,7171 z m 11109,-56300 h 5243 v 47200 c 0,1489 411,2661 1234,3508 823,850 1980,1272 3470,1272 567,0 1234,-76 2008,-232 771,-152 1490,-359 2157,-615 l 926,4241 c -978,411 -2170,747 -3587,1002 -1414,259 -2634,387 -3661,387 -2419,0 -4320,-681 -5709,-2042 -1386,-1365 -2081,-3280 -2081,-5748 z m 20129,56300 v -40183 h 5244 v 40183 z m 0,-48589 v -7711 h 5244 v 7711 z m 50283,48589 h -5243 v -22442 c 0,-4783 -695,-8253 -2081,-10413 -1389,-2161 -3550,-3239 -6481,-3239 -1541,0 -3083,283 -4628,850 -1541,564 -2979,1362 -4316,2389 -1338,1029 -2506,2250 -3509,3663 -1006,1414 -1762,2945 -2277,4590 v 24602 h -5244 v -40183 h 4780 v 9101 c 823,-1438 1839,-2762 3049,-3972 1206,-1206 2558,-2250 4047,-3121 1493,-874 3073,-1545 4746,-2008 1669,-459 3404,-691 5205,-691 2260,0 4151,411 5668,1234 1518,822 2738,1977 3664,3470 926,1490 1593,3315 2005,5475 411,2160 615,4552 615,7171 z m 28463,771 c -2931,0 -5631,-553 -8098,-1659 -2472,-1103 -4604,-2620 -6405,-4549 -1797,-1928 -3200,-4151 -4203,-6670 -1002,-2520 -1503,-5219 -1503,-8098 0,-2828 501,-5489 1503,-7984 1003,-2492 2406,-4677 4203,-6553 1801,-1877 3923,-3371 6363,-4476 2444,-1107 5129,-1656 8060,-1656 2931,0 5617,549 8060,1656 2444,1105 4539,2609 6287,4513 1746,1901 3111,4086 4086,6553 978,2468 1465,5092 1465,7867 0,411 -14,823 -38,1234 -24,411 -65,695 -114,850 h -34321 c 152,2160 657,4151 1504,5976 846,1825 1928,3408 3238,4746 1313,1334 2827,2378 4552,3121 1721,746 3560,1120 5513,1120 1337,0 2647,-180 3933,-540 1286,-363 2468,-850 3550,-1465 1078,-619 2042,-1375 2889,-2278 851,-898 1504,-1887 1967,-2969 l 4552,1234 c -619,1493 -1490,2841 -2624,4051 -1130,1206 -2440,2261 -3933,3163 -1489,898 -3135,1593 -4936,2080 -1800,488 -3650,733 -5550,733 z m 14806,-22981 c -155,-2160 -656,-4127 -1503,-5900 -850,-1777 -1928,-3304 -3242,-4590 -1310,-1286 -2838,-2288 -4586,-3007 -1749,-722 -3602,-1082 -5555,-1082 -1953,0 -3805,360 -5551,1082 -1748,719 -3280,1721 -4590,3007 -1310,1286 -2364,2827 -3162,4628 -798,1797 -1272,3754 -1428,5862 z"
   id="path3"
   inkscape:connector-curvature="0"
   style="fill:#000000" />
 </g>
 <g
   id="Layer_x0020_2"
   transform="translate(-15787,-188833.41)">
  <metadata
   id="CorelCorpID_1Corel-Layer" />
  <path
   d="m 124516,284600 c 0,5762 -1199,10712 -3598,14852 -2402,4141 -5703,7531 -9903,10169 -4199,2640 -9090,4593 -14672,5851 -5578,1262 -11488,1891 -17730,1891 H 15787 V 189552 h 74166 c 4441,0 8461,961 12062,2879 3598,1922 6661,4410 9180,7473 2520,3058 4469,6539 5852,10441 1379,3899 2070,7891 2070,11969 0,6001 -1531,11731 -4590,17192 -3062,5461 -7652,9570 -13773,12332 7320,2160 13113,5910 17371,11251 4262,5339 6391,12511 6391,21511 z m -35642,-7199 c 0,-3121 -839,-5731 -2519,-7832 -1683,-2101 -3844,-3149 -6481,-3149 H 50889 v 21419 h 27724 c 2879,0 5308,-898 7289,-2699 1980,-1801 2972,-4379 2972,-7739 z M 50889,219435 v 19622 h 23942 c 2402,0 4590,-661 6571,-1981 1980,-1320 2972,-3961 2972,-7922 0,-3480 -840,-5969 -2519,-7469 -1684,-1500 -3661,-2250 -5942,-2250 z m 88928,97928 V 189552 h 35102 v 97209 h 57966 v 30602 z m 157514,1078 c -9120,0 -17429,-1859 -24930,-5578 -7503,-3719 -13922,-8610 -19262,-14672 -5340,-6059 -9480,-12989 -12422,-20790 -2941,-7801 -4410,-15844 -4410,-24125 0,-8399 1531,-16500 4590,-24302 3059,-7800 7351,-14672 12871,-20609 5520,-5942 12032,-10684 19532,-14223 7500,-3540 15750,-5309 24751,-5309 9121,0 17433,1860 24934,5578 7500,3723 13922,8641 19261,14762 5341,6121 9450,13083 12329,20883 2883,7801 4321,15782 4321,23942 0,8399 -1528,16470 -4590,24212 -3059,7742 -7290,14582 -12692,20520 -5399,5941 -11879,10711 -19438,14313 -7563,3601 -15844,5398 -24845,5398 z m -25383,-64802 c 0,4320 512,8489 1532,12508 1019,4023 2609,7594 4769,10711 2160,3122 4860,5641 8102,7563 3238,1918 7020,2879 11340,2879 4442,0 8281,-989 11524,-2969 3238,-1981 5879,-4562 7918,-7742 2039,-3180 3570,-6809 4590,-10891 1020,-4079 1531,-8219 1531,-12422 0,-4320 -539,-8489 -1621,-12509 -1078,-4023 -2668,-7562 -4770,-10621 -2101,-3062 -4769,-5520 -8011,-7383 -3239,-1859 -7020,-2789 -11341,-2789 -4441,0 -8250,961 -11430,2880 -3179,1921 -5820,4472 -7922,7652 -2098,3179 -3660,6781 -4679,10801 -1020,4019 -1532,8129 -1532,12332 z m 95049,-1262 c 0,-7801 1379,-15481 4141,-23043 2758,-7559 6809,-14340 12149,-20340 5340,-6001 11820,-10860 19442,-14583 7621,-3718 16293,-5578 26012,-5578 11402,0 21363,2550 29883,7649 8520,5101 14821,11851 18903,20254 l -26825,19079 c -1078,-3118 -2488,-5700 -4230,-7739 -1739,-2039 -3629,-3660 -5668,-4860 -2040,-1203 -4200,-2042 -6481,-2523 -2281,-477 -4379,-719 -6301,-719 -4441,0 -8250,992 -11430,2969 -3180,1981 -5821,4563 -7922,7742 -2101,3180 -3629,6782 -4590,10802 -961,4019 -1441,8011 -1441,11972 0,4438 570,8700 1711,12778 1140,4082 2820,7683 5039,10801 2222,3121 4922,5613 8102,7473 3179,1859 6812,2789 10890,2789 2039,0 4141,-270 6301,-809 2161,-539 4231,-1441 6211,-2699 1981,-1262 3781,-2883 5399,-4863 1621,-1981 2910,-4410 3871,-7290 l 28622,17102 c -1798,4680 -4528,8879 -8188,12602 -3660,3719 -7832,6840 -12512,9360 -4680,2519 -9661,4441 -14942,5761 -5281,1321 -10441,1977 -15480,1977 -8883,0 -17044,-1887 -24482,-5668 -7441,-3781 -13832,-8793 -19172,-15032 -5340,-6242 -9512,-13320 -12512,-21242 -3000,-7919 -4500,-15961 -4500,-24122 z m 124929,64986 V 189552 h 35102 v 52204 l 42485,-52204 h 36001 l -46442,57243 49684,70568 h -36723 l -33665,-50943 -11340,12958 v 37985 z m 109990,-64986 c 0,-7801 1379,-15481 4141,-23043 2758,-7559 6809,-14340 12149,-20340 5340,-6001 11820,-10860 19442,-14583 7621,-3718 16293,-5578 26012,-5578 11402,0 21363,2550 29883,7649 8520,5101 14821,11851 18903,20254 l -26825,19079 c -1078,-3118 -2488,-5700 -4230,-7739 -1739,-2039 -3630,-3660 -5669,-4860 -2039,-1203 -4199,-2042 -6480,-2523 -2281,-477 -4379,-719 -6301,-719 -4441,0 -8250,992 -11430,2969 -3180,1981 -5821,4563 -7922,7742 -2102,3180 -3629,6782 -4590,10802 -961,4019 -1442,8011 -1442,11972 0,4438 571,8700 1712,12778 1140,4082 2820,7683 5039,10801 2222,3121 4922,5613 8101,7473 3180,1859 6813,2789 10891,2789 2039,0 4141,-270 6301,-809 2160,-539 4230,-1441 6211,-2699 1981,-1262 3781,-2883 5399,-4863 1621,-1981 2910,-4410 3871,-7290 l 28622,17102 c -1798,4680 -4528,8879 -8188,12602 -3660,3719 -7832,6840 -12512,9360 -4680,2519 -9661,4441 -14942,5761 -5281,1321 -10442,1977 -15481,1977 -8882,0 -17043,-1887 -24481,-5668 -7441,-3781 -13832,-8793 -19172,-15032 -5340,-6242 -9512,-13320 -12512,-21242 -3000,-7919 -4500,-15961 -4500,-24122 z m 237978,-62825 v 127811 h -35103 v -50044 h -42844 v 50044 H 726844 V 189552 h 35103 v 47165 h 42844 v -47165 z m 9539,127811 47704,-127811 h 28443 l 47524,127811 h -37083 l -7739,-25024 h -34024 l -7559,25024 z m 61927,-91268 -11883,42845 h 23223 z m 71286,91268 V 189552 h 35103 v 127811 z m 92167,-62826 v 62826 h -35103 V 189552 h 27364 l 51302,64985 v -64985 h 35106 v 127811 h -27903 z"
   id="path7"
   inkscape:connector-curvature="0"
   style="fill:#000000" />
 </g>
 <g
   id="Layer_x0020_3"
   transform="translate(-15787,-188833.41)">
  <metadata
   id="CorelCorpID_2Corel-Layer" />
  <path
   d="m 371549,349693 h 349831 v 16877 H 371549 Z"
   id="path11"
   inkscape:connector-curvature="0"
   style="fill:#ff0000" />
 </g>
 <g
   id="Layer_x0020_4"
   transform="translate(-15787,-188833.41)">
  <metadata
   id="CorelCorpID_3Corel-Layer" />
  <path
   d="m 15787,349693 h 355762 v 16877 H 15787 Z"
   id="path15"
   inkscape:connector-curvature="0"
   style="fill:#000000" />
 </g>
</svg>