<svg width="174" height="32" viewBox="0 0 174 32" fill="none" xmlns="http://www.w3.org/2000/svg">
<path d="M154.932 25.8681H161.183C161.426 26.6562 162.25 27.4443 163.795 27.4443C165.888 27.4443 166.609 26.1444 166.609 24.223V22.8542H166.471C165.438 24.0572 164.065 24.9414 162.042 24.9414C158.058 24.9414 154.593 21.9964 154.593 16.2386C154.593 10.9639 157.441 6.85065 161.737 6.85065C164.211 6.85065 165.722 7.84612 166.72 9.42225H166.824V7.40369H173.005V23.3652C173.005 26.3102 171.972 28.6056 170.427 29.9808C168.812 31.4192 166.512 31.9999 163.9 31.9999C158.986 31.9999 155.556 29.9744 154.932 25.8681ZM166.886 15.9271C166.886 13.6324 165.791 11.7799 163.9 11.7799C162.077 11.7799 160.913 13.425 160.913 15.9271C160.913 18.3955 162.084 20.1719 163.9 20.1719C165.784 20.1784 166.886 18.3603 166.886 15.9271ZM147.691 10.5491H147.795C149.132 7.97747 150.885 7.0235 153.117 7.0235C153.629 7.0235 153.976 7.09261 154.184 7.19633V12.8507H154.045C150.234 12.1668 148.003 13.9848 148.003 18.1256V25.8336H141.51V7.40369H147.691V10.5491ZM-0.000488281 0H12.7085C15.1129 0 16.963 0.580666 18.2733 1.64525C19.7493 2.84118 20.5391 4.62474 20.5391 6.74694C20.5391 9.21489 19.5411 10.7564 17.4828 11.7174V11.8208C20.165 12.713 21.71 15.1117 21.71 18.0223C21.71 20.7943 20.6432 22.9575 18.8964 24.2574C17.4203 25.3219 15.5013 25.8336 12.9576 25.8336H-0.000488281V0ZM12.0918 20.1095C13.6368 20.1095 14.7668 19.1836 14.7668 17.4688C14.7668 15.6852 13.5334 14.8282 12.0573 14.8282H7.04034V20.1023H12.0918V20.1095ZM11.4334 10.1066C12.8054 10.1066 13.8033 9.35313 13.8033 7.84612C13.8033 6.37371 12.7709 5.65473 11.399 5.65473H7.04034V10.1066H11.4334Z" fill="white"/>
<path d="M22.8745 0H29.5334V25.8336H22.8745V0ZM30.8084 16.6463C30.8084 10.8255 34.5855 6.88526 40.4267 6.88526C46.2685 6.88526 49.976 10.8255 49.976 16.6463C49.976 22.5082 46.2685 26.4071 40.4267 26.4071C34.5855 26.4143 30.8084 22.5082 30.8084 16.6463ZM43.3788 16.6463C43.3788 13.425 42.3464 11.4059 40.3578 11.4059C38.3691 11.4059 37.4056 13.425 37.4056 16.6463C37.4056 19.902 38.3691 21.9203 40.3578 21.9203C42.3464 21.9276 43.3788 19.902 43.3788 16.6463ZM50.7313 16.6463C50.7313 10.8255 54.5076 6.88526 60.3495 6.88526C66.1914 6.88526 69.8988 10.8255 69.8988 16.6463C69.8988 22.5082 66.1914 26.4071 60.3495 26.4071C54.5076 26.4143 50.7313 22.5082 50.7313 16.6463ZM63.3017 16.6463C63.3017 13.425 62.2693 11.4059 60.2806 11.4059C58.292 11.4059 57.3284 13.425 57.3284 16.6463C57.3284 19.902 58.292 21.9203 60.2806 21.9203C62.2693 21.9276 63.3017 19.902 63.3017 16.6463ZM71.1667 7.40369H77.3482V10.1758H77.4523C78.6857 8.01896 80.3693 6.85065 83.0163 6.85065C85.3518 6.85065 87.105 8.01199 87.9988 10.0375H88.1029C89.6135 7.60416 91.575 6.85065 93.8407 6.85065C98.1369 6.85065 99.987 10.0029 99.987 14.2475V25.8264H93.4939V15.4161C93.4939 13.5283 92.9117 12.2981 91.2626 12.2981C89.6479 12.2981 88.8238 13.8046 88.8238 15.7957V25.8336H82.3235V15.4161C82.3235 13.5283 81.7412 12.2981 80.0922 12.2981C78.4775 12.2981 77.6534 13.8046 77.6534 15.7957V25.8336H71.1667V7.40369ZM107.914 23.4349H107.846V25.8336H101.664V0H108.157V9.31853H108.261C109.495 7.70789 111.144 6.85065 113.514 6.85065C118.149 6.85065 120.832 11.033 120.832 16.5774C120.832 22.847 117.914 26.4415 113.105 26.4415C111.109 26.4487 109.051 25.4876 107.914 23.4349ZM114.235 16.5149C114.235 13.5355 113.14 11.6133 111.178 11.6133C109.19 11.6133 107.914 13.5355 107.914 16.5149C107.914 19.4599 109.183 21.4158 111.178 21.4158C113.168 21.4094 114.235 19.4944 114.235 16.5149ZM121.656 16.5838C121.656 10.8255 125.467 6.82302 130.997 6.82302C133.742 6.82302 135.876 7.68018 137.49 9.22178C139.618 11.2745 140.581 14.4966 140.512 18.2986H128.114C128.392 20.5932 129.486 21.7618 131.448 21.7618C132.584 21.7618 133.575 21.25 133.991 20.0126H140.241C139.146 24.223 135.883 26.3518 131.247 26.3518C125.502 26.3446 121.656 22.4738 121.656 16.5838ZM128.114 14.6624H134.019C133.915 12.4367 132.681 11.2681 131.136 11.2681C129.348 11.2681 128.35 12.54 128.114 14.6624Z" fill="white"/>
</svg>
