<svg xmlns="http://www.w3.org/2000/svg" width="48" height="48" viewBox="0 0 48 48">
  <circle id="Ellipse_251" data-name="Ellipse 251" cx="24" cy="24" r="24" fill="#6366f1" opacity="0.1"/>
  <circle id="Ellipse_252" data-name="Ellipse 252" cx="18" cy="18" r="18" transform="translate(6 6)" fill="#6366f1" opacity="0.15"/>
  <path id="Path_16262" data-name="Path 16262" d="M65.289,24.145a1.8,1.8,0,0,1-.377-.04,3.328,3.328,0,0,1-.944-.423l-8.322-4.621a3.05,3.05,0,0,1-.791-.53,2.045,2.045,0,0,1-.478-.776,3.4,3.4,0,0,1-.1-1.082l0-9.121a3.18,3.18,0,0,1,.078-.945,2.032,2.032,0,0,1,.445-.8,3.375,3.375,0,0,1,.9-.613L64.021.575A3.134,3.134,0,0,1,64.845.2a1.983,1.983,0,0,1,.868-.016,3.349,3.349,0,0,1,.943.422l8.32,4.62a3.1,3.1,0,0,1,.789.53,2.016,2.016,0,0,1,.479.773,3.422,3.422,0,0,1,.1,1.087l0,9.092a3.432,3.432,0,0,1-.077.969,2.054,2.054,0,0,1-.448.8,3.3,3.3,0,0,1-.9.612L66.6,23.714a3.13,3.13,0,0,1-.822.375,2.312,2.312,0,0,1-.49.057m.866-10.558v8.436l7.59-4.22ZM56.871,17.8l7.586,4.213V13.586Zm19.47-1.064h0Zm-9.289-4.593,7.592,4.217V7.928ZM55.975,7.932l0,8.427,7.583-4.213Zm10.18-5.663V10.7l7.592-4.217Zm-9.283,4.22L64.458,10.7V2.272Z" transform="translate(-41.313 11.855)" fill="#6366f1"/>
</svg>
