<svg xmlns="http://www.w3.org/2000/svg" width="201.765" height="36.07" viewBox="0 0 201.765 36.07">
  <path id="Path_504" data-name="Path 504" d="M40.722,10.093A12.763,12.763,0,0,0,27.645,23.082,12.712,12.712,0,0,0,40.722,36.07,12.837,12.837,0,0,0,53.886,23.082,12.785,12.785,0,0,0,40.722,10.093Zm.088,20.536c-4.213,0-7.2-3.247-7.2-7.635s2.984-7.635,7.2-7.635,7.284,3.247,7.284,7.635A7.3,7.3,0,0,1,40.809,30.629Zm14.656-14.92h3.6V35.544h5.88V10.532H55.466Zm-42.477-.263A6.533,6.533,0,0,1,19.4,20.1h6.143A12.3,12.3,0,0,0,12.989,10,12.87,12.87,0,0,0,0,23.082,12.712,12.712,0,0,0,13.077,36.07,12.255,12.255,0,0,0,25.539,25.978H19.4a6.582,6.582,0,0,1-6.319,4.739c-4.213,0-7.2-3.247-7.2-7.635S8.776,15.446,12.989,15.446Zm153.145,5.178-4.3-.614c-2.019-.263-3.51-.965-3.51-2.545,0-1.755,1.931-2.633,4.476-2.633,2.808,0,4.651,1.229,5,3.159h5.617c-.614-5-4.476-7.986-10.444-7.986-6.143,0-10.268,3.159-10.268,7.635,0,4.213,2.633,6.758,8.074,7.46l4.3.614c2.106.263,3.247,1.141,3.247,2.633,0,2.019-2.019,2.808-4.827,2.808-3.423,0-5.354-1.4-5.7-3.511h-5.7c.527,4.915,4.388,8.337,11.321,8.337,6.319,0,10.619-2.9,10.619-7.9C174.032,23.7,170.961,21.414,166.134,20.624ZM62.048.263a3.673,3.673,0,0,0-3.774,3.686,3.621,3.621,0,0,0,3.774,3.686,3.687,3.687,0,1,0,0-7.372Zm85.48,18.869c0-5.441-3.335-9.04-10.268-9.04-6.582,0-10.268,3.335-11.058,8.425h5.792c.263-2.019,1.843-3.6,5.178-3.6,2.984,0,4.388,1.316,4.388,2.9,0,2.106-2.633,2.633-5.968,2.984-4.476.527-10,2.019-10,7.811,0,4.476,3.335,7.372,8.688,7.372,4.213,0,6.758-1.755,8.074-4.476.176,2.457,2.019,4.037,4.651,4.037h3.423V30.366h-2.9V19.132Zm-5.792,6.231c0,3.335-2.9,5.792-6.494,5.792-2.194,0-4.037-.878-4.037-2.9,0-2.457,2.984-3.159,5.7-3.423,2.633-.263,4.037-.79,4.827-1.931ZM110.844,10.093a10.064,10.064,0,0,0-7.9,3.6V0H97.153V35.544h5.7V32.3a10.12,10.12,0,0,0,7.986,3.774c7.021,0,12.287-5.529,12.287-12.989S117.777,10.093,110.844,10.093Zm-.878,20.536c-4.213,0-7.2-3.247-7.2-7.635s3.072-7.635,7.284-7.635,7.2,3.247,7.2,7.635C117.25,27.47,114.178,30.629,109.966,30.629ZM83.2,10.093a8.93,8.93,0,0,0-7.723,3.686V10.532H69.683V35.544h5.792v-13.6c0-3.862,2.457-6.494,6.056-6.494,3.335,0,5.441,2.37,5.441,5.792V35.544h5.792V20.8C92.765,14.481,89.517,10.093,83.2,10.093Zm118.567,12.2c0-7.2-5.266-12.2-12.287-12.2A12.691,12.691,0,0,0,176.49,23.082c0,7.811,5.88,12.989,13.077,12.989,6.056,0,10.795-3.6,12.023-8.688h-6.056c-.878,2.194-2.984,3.51-5.88,3.51-3.774,0-6.582-2.282-7.2-6.407h19.308V22.292Zm-18.957-1.931a6.508,6.508,0,0,1,6.582-5.178,6.062,6.062,0,0,1,6.407,5.178Z" fill="#525C7A"/>
</svg>
