<svg xmlns="http://www.w3.org/2000/svg" width="31.27" height="31.57" viewBox="0 0 31.27 31.57"><g transform="translate(-73.28 -612.13)"><g opacity="0.7"><path d="M73.28,612.14c5.69,4.81,11.06,9.97,16.35,15.22l.57.56-.57.56c-5.28,5.25-10.65,10.42-16.35,15.22,4.8-5.69,9.97-11.06,15.22-16.35v1.13c-5.24-5.28-10.41-10.65-15.22-16.35h0Z" fill="#6a65e7"/></g><g opacity="0.7"><path d="M87.63,612.14c5.69,4.81,11.06,9.97,16.35,15.22l.57.56-.57.56c-5.28,5.25-10.65,10.42-16.35,15.22,4.8-5.69,9.97-11.06,15.22-16.35v1.13c-5.24-5.28-10.41-10.65-15.22-16.35h0Z" fill="#6a65e7"/></g></g></svg>