<?xml version="1.0" encoding="UTF-8" standalone="no"?>
<svg
   xmlns:dc="http://purl.org/dc/elements/1.1/"
   xmlns:cc="http://creativecommons.org/ns#"
   xmlns:rdf="http://www.w3.org/1999/02/22-rdf-syntax-ns#"
   xmlns:svg="http://www.w3.org/2000/svg"
   xmlns="http://www.w3.org/2000/svg"
   xml:space="preserve"
   width="399.70151"
   height="211"
   version="1.1"
   style="clip-rule:evenodd;fill-rule:evenodd;image-rendering:optimizeQuality;shape-rendering:geometricPrecision;text-rendering:geometricPrecision"
   viewBox="0 0 126.63543 66.9"
   id="svg42"><metadata
   id="metadata46"><rdf:RDF><cc:Work
       rdf:about=""><dc:format>image/svg+xml</dc:format><dc:type
         rdf:resource="http://purl.org/dc/dcmitype/StillImage" /></cc:Work></rdf:RDF></metadata>
 <defs
   id="defs4">
  <style
   type="text/css"
   id="style2">
   <![CDATA[
    .fil0 {fill:#E31E24}
    .fil2 {fill:#009846}
    .fil1 {fill:black}
    .fil3 {fill:black;fill-rule:nonzero}
   ]]>
  </style>
 </defs>
 <g
   id="Layer_x0020_1"
   transform="translate(-0.04732227)">
  <metadata
   id="CorelCorpID_0Corel-Layer" />
  <g
   id="_2232591238752">
   <path
   class="fil0"
   d="m 9.98,43.48 4.17,-1.29 4.57,-1.4 v 4.57 1.32 2.15 c 0,2.52 -2.06,5.21 -4.57,5.98 L 11.03,55.77 4.58,57.75 0,59.15 v -4.57 -2.86 -0.61 c 0,-2.51 2.06,-5.2 4.58,-5.98 z"
   id="path7" />
   <path
   class="fil1"
   d="m 23.84,64.21 -4.17,1.28 -4.57,1.41 v -4.58 -1.31 -2.15 c 0,-2.52 2.06,-5.21 4.57,-5.98 l 3.12,-0.96 6.45,-1.98 4.58,-1.4 v 4.57 2.86 0.6 c 0,2.52 -2.06,5.21 -4.58,5.98 z"
   id="path9" />
   <path
   class="fil2"
   d="m 27.47,38.1 -4.17,1.28 -4.58,1.41 V 36.21 34.9 32.75 c 0,-2.52 2.06,-5.21 4.58,-5.98 l 3.12,-0.96 6.45,-1.98 4.57,-1.4 v 4.57 2.86 0.6 c 0,2.52 -2.05,5.21 -4.57,5.99 z"
   id="path11" />
   <path
   class="fil3"
   d="M 31.35,19.99 H 17.76 V 3.67 C 17.76,2.65 17.59,1.91 17.26,1.44 16.92,0.97 16.32,0.66 15.48,0.51 h 15.39 l -0.34,5.5 C 30.15,4.72 29.56,3.74 28.75,3.08 27.94,2.42 26.86,2.09 25.5,2.09 h -2.77 v 6.55 h 3.76 c 0.87,0 1.43,-0.34 1.69,-1.02 v 3.93 c -0.26,-0.77 -0.82,-1.16 -1.69,-1.16 h -3.76 v 7.88 h 3.73 c 0.62,0 1.22,-0.1 1.81,-0.3 0.58,-0.19 1.12,-0.47 1.61,-0.81 0.49,-0.35 0.92,-0.77 1.28,-1.25 0.37,-0.48 0.66,-1 0.86,-1.56 z"
   id="path13" />
   <path
   id="1"
   class="fil3"
   d="m 50.9,10.98 c 0,-1.73 -0.63,-2.59 -1.87,-2.59 -0.66,0 -1.21,0.25 -1.65,0.76 -0.44,0.51 -0.66,1.28 -0.66,2.31 v 8.53 h -4.41 v -9.01 c 0,-1.73 -0.62,-2.59 -1.86,-2.59 -0.66,0 -1.21,0.25 -1.66,0.76 -0.44,0.51 -0.66,1.28 -0.66,2.31 v 8.53 h -4.4 V 8.9 c 0,-0.66 -0.16,-1.18 -0.48,-1.54 -0.32,-0.37 -0.76,-0.6 -1.3,-0.7 h 6.18 V 8.3 c 0.49,-0.58 1.13,-1.04 1.91,-1.37 0.78,-0.33 1.65,-0.49 2.61,-0.49 0.9,0 1.67,0.17 2.31,0.52 0.64,0.35 1.12,0.9 1.42,1.65 0.54,-0.67 1.22,-1.21 2.03,-1.59 0.81,-0.39 1.75,-0.58 2.82,-0.58 1.21,0 2.19,0.33 2.94,0.99 0.75,0.66 1.13,1.71 1.13,3.16 v 6.04 c 0,0.53 0.16,0.97 0.47,1.33 0.31,0.36 0.77,0.54 1.39,0.54 0.64,0 1.11,-0.05 1.39,-0.14 -0.27,0.58 -0.73,1.06 -1.4,1.44 -0.67,0.37 -1.52,0.56 -2.56,0.56 -0.65,0 -1.22,-0.1 -1.69,-0.3 C 52.43,19.87 52.05,19.6 51.76,19.27 51.46,18.94 51.25,18.56 51.11,18.13 50.97,17.7 50.9,17.24 50.9,16.75 Z" />
   <path
   id="2"
   class="fil3"
   d="m 63.24,2.2 c 0,0.7 -0.21,1.24 -0.63,1.63 -0.43,0.38 -1,0.58 -1.71,0.58 -0.72,0 -1.29,-0.2 -1.71,-0.58 C 58.77,3.44 58.56,2.9 58.56,2.2 58.54,1.51 58.75,0.96 59.19,0.58 59.63,0.19 60.2,0 60.9,0 c 0.71,0 1.28,0.19 1.71,0.58 0.42,0.38 0.63,0.93 0.63,1.62 z M 58.78,19.99 V 8.92 C 58.78,8.26 58.62,7.75 58.3,7.38 57.98,7.02 57.55,6.79 57,6.69 h 6.19 v 13.3 z" />
   <path
   id="3"
   class="fil3"
   d="M 66.36,19.99 V 8.84 C 66.36,8.1 66.18,7.58 65.82,7.27 65.46,6.96 65.07,6.77 64.63,6.69 h 6.02 V 8.9 h 0.06 c 0.32,-0.68 0.78,-1.26 1.38,-1.74 0.6,-0.48 1.27,-0.72 2,-0.72 0.53,0 0.91,0.05 1.15,0.17 0.23,0.11 0.48,0.27 0.75,0.48 L 75.36,10.7 C 75.16,10.29 74.94,9.95 74.72,9.7 74.49,9.45 74.26,9.25 74.04,9.12 73.81,8.99 73.59,8.9 73.39,8.85 73.18,8.81 72.99,8.78 72.82,8.78 c -0.32,0 -0.61,0.09 -0.87,0.27 -0.27,0.18 -0.5,0.41 -0.69,0.69 -0.2,0.28 -0.35,0.61 -0.46,0.98 -0.1,0.36 -0.15,0.74 -0.15,1.11 v 8.16 z" />
   <path
   id="4"
   class="fil3"
   d="M 85.65,9.97 C 85.65,9.05 85.44,8.4 85.02,8.02 84.59,7.64 84.13,7.46 83.62,7.46 83.2,7.46 82.83,7.56 82.49,7.78 82.15,8 81.86,8.34 81.61,8.82 81.37,9.3 81.18,9.93 81.05,10.7 c -0.13,0.77 -0.2,1.72 -0.2,2.83 0,1.56 0.18,2.8 0.55,3.71 0.37,0.91 1.03,1.37 1.99,1.37 0.7,0 1.25,-0.24 1.65,-0.71 0.41,-0.47 0.6,-1.13 0.58,-1.97 z M 86,18.81 c -0.51,0.51 -1.12,0.89 -1.83,1.15 -0.72,0.27 -1.56,0.4 -2.54,0.4 -1.71,0 -3.06,-0.56 -4.06,-1.68 -0.99,-1.12 -1.49,-2.76 -1.49,-4.93 0,-1.07 0.16,-2.07 0.48,-2.99 0.32,-0.92 0.8,-1.72 1.45,-2.4 0.65,-0.68 1.45,-1.21 2.39,-1.6 0.95,-0.38 2.06,-0.58 3.34,-0.58 1.36,0 2.57,0.2 3.64,0.58 1.07,0.39 1.96,0.86 2.68,1.4 v 8.42 c 0,0.64 0.18,1.12 0.55,1.45 0.36,0.33 0.85,0.49 1.45,0.49 0.21,0 0.42,-0.01 0.65,-0.04 0.23,-0.03 0.41,-0.07 0.57,-0.12 -0.16,0.32 -0.37,0.6 -0.65,0.84 -0.29,0.25 -0.6,0.45 -0.95,0.61 -0.35,0.16 -0.72,0.28 -1.12,0.37 -0.39,0.08 -0.79,0.12 -1.18,0.12 -0.75,0 -1.4,-0.11 -1.96,-0.34 -0.56,-0.22 -1.01,-0.61 -1.36,-1.15 z" />
   <path
   id="5"
   class="fil3"
   d="M 93.54,9.52 C 93.54,8.91 93.35,8.48 92.97,8.2 92.6,7.93 92.16,7.78 91.67,7.74 l 6.36,-4.29 v 3.24 h 2.82 l -0.82,1.53 h -2 v 7.45 c 0,0.76 0.22,1.4 0.66,1.92 0.44,0.53 1.15,0.79 2.13,0.79 0.34,0 0.68,-0.03 1.02,-0.11 0.34,-0.07 0.62,-0.16 0.85,-0.25 -0.15,0.3 -0.37,0.59 -0.64,0.87 -0.27,0.28 -0.61,0.54 -1,0.76 -0.4,0.23 -0.85,0.41 -1.37,0.54 -0.52,0.13 -1.09,0.2 -1.71,0.2 -1.47,0 -2.57,-0.37 -3.32,-1.1 -0.74,-0.74 -1.11,-1.73 -1.11,-2.97 z" />
   <path
   id="6"
   class="fil3"
   d="m 114.89,16.8 c -0.07,0.19 -0.17,0.4 -0.28,0.62 -0.11,0.23 -0.24,0.42 -0.4,0.57 -0.75,0.9 -1.64,1.53 -2.66,1.88 -1.03,0.34 -2.11,0.52 -3.24,0.52 -1.03,0 -1.97,-0.15 -2.81,-0.45 -0.83,-0.3 -1.55,-0.74 -2.13,-1.32 -0.58,-0.57 -1.03,-1.27 -1.35,-2.1 -0.32,-0.83 -0.48,-1.77 -0.48,-2.82 0,-1.08 0.19,-2.07 0.57,-2.97 0.39,-0.9 0.93,-1.68 1.61,-2.34 0.69,-0.66 1.51,-1.17 2.46,-1.54 0.95,-0.37 1.98,-0.55 3.09,-0.55 0.57,0 1.16,0.04 1.78,0.14 0.62,0.09 1.19,0.27 1.71,0.52 0.52,0.26 0.95,0.6 1.3,1.05 0.35,0.44 0.52,1.01 0.52,1.7 0,0.59 -0.14,1.11 -0.42,1.56 -0.28,0.45 -0.66,0.84 -1.13,1.17 -0.47,0.33 -1,0.61 -1.6,0.85 -0.59,0.23 -1.2,0.43 -1.82,0.59 -0.62,0.16 -1.22,0.29 -1.81,0.38 -0.58,0.09 -1.09,0.17 -1.52,0.23 0.13,1.24 0.56,2.19 1.28,2.85 0.73,0.66 1.72,0.99 2.98,0.99 0.76,0 1.52,-0.13 2.29,-0.4 0.77,-0.26 1.46,-0.64 2.06,-1.13 z m -8.7,-3.44 c 0.38,-0.02 0.79,-0.07 1.22,-0.16 0.43,-0.08 0.84,-0.2 1.21,-0.35 0.76,-0.28 1.27,-0.69 1.54,-1.23 0.28,-0.54 0.41,-1.2 0.41,-1.99 0,-0.55 -0.15,-1.04 -0.46,-1.48 -0.31,-0.45 -0.77,-0.67 -1.37,-0.67 -0.57,0 -1.02,0.2 -1.36,0.58 -0.34,0.39 -0.6,0.85 -0.78,1.4 -0.17,0.55 -0.29,1.12 -0.35,1.71 -0.06,0.59 -0.08,1.09 -0.08,1.48 0,0.11 0,0.23 0,0.35 0,0.13 0.01,0.24 0.02,0.36 z" />
   <path
   id="7"
   class="fil3"
   d="m 116.11,15.39 c 0.14,0.49 0.32,0.97 0.57,1.44 0.24,0.47 0.56,0.89 0.94,1.27 0.39,0.38 0.85,0.68 1.39,0.92 0.53,0.23 1.15,0.35 1.85,0.35 0.68,0 1.22,-0.15 1.64,-0.45 0.41,-0.3 0.62,-0.72 0.62,-1.27 0,-0.47 -0.17,-0.86 -0.51,-1.17 -0.34,-0.31 -0.77,-0.6 -1.29,-0.88 -0.51,-0.27 -1.07,-0.55 -1.66,-0.83 -0.6,-0.28 -1.15,-0.61 -1.67,-0.99 -0.52,-0.38 -0.94,-0.83 -1.28,-1.37 -0.34,-0.54 -0.51,-1.21 -0.51,-2.02 0,-0.73 0.14,-1.36 0.44,-1.89 0.29,-0.53 0.68,-0.96 1.17,-1.31 0.49,-0.35 1.06,-0.61 1.71,-0.77 0.66,-0.16 1.34,-0.24 2.05,-0.24 0.85,0 1.63,0.08 2.34,0.23 0.7,0.15 1.33,0.36 1.88,0.62 l -0.51,3.31 C 125.01,9.43 124.57,8.72 123.94,8.19 123.3,7.66 122.52,7.4 121.6,7.4 c -0.59,0 -1.04,0.13 -1.38,0.38 -0.33,0.25 -0.49,0.59 -0.49,1 0,0.42 0.17,0.76 0.52,1.05 0.35,0.28 0.78,0.54 1.3,0.79 0.5,0.24 1.07,0.5 1.68,0.77 0.62,0.28 1.18,0.61 1.68,1.01 0.52,0.39 0.95,0.87 1.3,1.42 0.35,0.56 0.52,1.25 0.52,2.08 0,1.43 -0.51,2.56 -1.53,3.39 -1.01,0.83 -2.47,1.24 -4.36,1.24 -1.15,0 -2.13,-0.12 -2.94,-0.35 -0.81,-0.24 -1.48,-0.46 -2.01,-0.67 z" />
   <path
   class="fil3"
   d="M 47.07,40.68 H 42.1 V 24.36 c 0,-1.02 -0.17,-1.76 -0.51,-2.23 -0.34,-0.47 -0.93,-0.78 -1.78,-0.93 H 55.2 l -0.34,5.5 c -0.39,-1.35 -1,-2.34 -1.83,-2.98 -0.83,-0.63 -1.89,-0.94 -3.19,-0.94 h -2.77 v 6.78 h 3.98 c 0.43,0 0.8,-0.11 1.1,-0.31 0.3,-0.21 0.54,-0.45 0.71,-0.71 v 3.92 c -0.19,-0.32 -0.43,-0.59 -0.72,-0.81 -0.29,-0.23 -0.66,-0.34 -1.09,-0.34 h -3.98 z"
   id="path22" />
   <path
   id="path24"
   class="fil3"
   d="M 56.2,40.68 V 29.53 c 0,-0.74 -0.18,-1.26 -0.54,-1.57 -0.36,-0.31 -0.75,-0.5 -1.19,-0.58 h 6.02 v 2.2 h 0.06 c 0.32,-0.67 0.78,-1.25 1.38,-1.73 0.6,-0.48 1.27,-0.72 2,-0.72 0.53,0 0.91,0.05 1.15,0.17 0.23,0.11 0.48,0.27 0.75,0.48 l -0.62,3.61 c -0.21,-0.41 -0.43,-0.75 -0.65,-1 -0.23,-0.26 -0.46,-0.45 -0.68,-0.58 -0.23,-0.13 -0.44,-0.22 -0.65,-0.27 -0.21,-0.05 -0.4,-0.07 -0.57,-0.07 -0.32,0 -0.61,0.09 -0.87,0.27 -0.26,0.18 -0.5,0.41 -0.69,0.69 -0.2,0.28 -0.35,0.61 -0.46,0.98 -0.1,0.36 -0.15,0.73 -0.15,1.11 v 8.16 z" />
   <path
   id="path26"
   class="fil3"
   d="m 78.99,37.49 c -0.07,0.19 -0.17,0.4 -0.28,0.62 -0.11,0.23 -0.24,0.42 -0.39,0.57 -0.76,0.9 -1.65,1.53 -2.67,1.87 -1.03,0.35 -2.11,0.53 -3.24,0.53 -1.03,0 -1.97,-0.15 -2.81,-0.45 -0.83,-0.31 -1.54,-0.74 -2.13,-1.32 -0.58,-0.57 -1.03,-1.27 -1.35,-2.1 -0.32,-0.83 -0.48,-1.77 -0.48,-2.83 0,-1.07 0.19,-2.06 0.58,-2.96 0.38,-0.9 0.92,-1.69 1.61,-2.34 0.68,-0.66 1.5,-1.18 2.45,-1.54 0.95,-0.37 1.98,-0.55 3.09,-0.55 0.57,0 1.16,0.04 1.78,0.14 0.62,0.09 1.19,0.27 1.71,0.52 0.52,0.25 0.95,0.6 1.3,1.04 0.35,0.45 0.52,1.02 0.52,1.71 0,0.59 -0.14,1.1 -0.42,1.56 -0.28,0.45 -0.66,0.84 -1.13,1.17 -0.47,0.33 -1,0.61 -1.6,0.85 -0.59,0.23 -1.2,0.43 -1.82,0.59 -0.62,0.16 -1.22,0.29 -1.8,0.38 -0.59,0.09 -1.1,0.17 -1.53,0.23 0.13,1.24 0.56,2.19 1.29,2.85 0.72,0.66 1.71,0.99 2.97,0.99 0.76,0 1.52,-0.14 2.29,-0.4 0.77,-0.26 1.46,-0.64 2.06,-1.13 z M 70.3,34.05 c 0.37,-0.02 0.78,-0.07 1.21,-0.16 0.43,-0.08 0.84,-0.2 1.21,-0.35 0.76,-0.28 1.27,-0.69 1.54,-1.23 0.28,-0.54 0.41,-1.2 0.41,-1.99 0,-0.55 -0.15,-1.04 -0.46,-1.48 -0.31,-0.45 -0.77,-0.67 -1.37,-0.67 -0.57,0 -1.02,0.2 -1.36,0.58 -0.34,0.39 -0.6,0.85 -0.77,1.4 -0.18,0.54 -0.3,1.11 -0.36,1.71 -0.05,0.59 -0.08,1.08 -0.08,1.48 0,0.11 0,0.23 0,0.35 0,0.13 0.01,0.24 0.03,0.36 z" />
   <path
   id="path28"
   class="fil3"
   d="m 93.29,37.49 c -0.08,0.19 -0.17,0.4 -0.28,0.62 -0.12,0.23 -0.25,0.42 -0.4,0.57 -0.75,0.9 -1.64,1.53 -2.67,1.87 -1.02,0.35 -2.1,0.53 -3.23,0.53 -1.04,0 -1.97,-0.15 -2.81,-0.45 -0.84,-0.31 -1.55,-0.74 -2.13,-1.32 -0.59,-0.57 -1.04,-1.27 -1.36,-2.1 -0.32,-0.83 -0.48,-1.77 -0.48,-2.83 0,-1.07 0.2,-2.06 0.58,-2.96 0.39,-0.9 0.92,-1.69 1.61,-2.34 0.69,-0.66 1.51,-1.18 2.46,-1.54 0.95,-0.37 1.98,-0.55 3.09,-0.55 0.56,0 1.16,0.04 1.78,0.14 0.62,0.09 1.19,0.27 1.71,0.52 0.51,0.25 0.95,0.6 1.3,1.04 0.34,0.45 0.52,1.02 0.52,1.71 0,0.59 -0.14,1.1 -0.43,1.56 -0.28,0.45 -0.65,0.84 -1.12,1.17 -0.47,0.33 -1.01,0.61 -1.6,0.85 -0.59,0.23 -1.2,0.43 -1.82,0.59 -0.62,0.16 -1.23,0.29 -1.81,0.38 -0.58,0.09 -1.09,0.17 -1.52,0.23 0.13,1.24 0.56,2.19 1.28,2.85 0.73,0.66 1.72,0.99 2.98,0.99 0.75,0 1.52,-0.14 2.29,-0.4 0.77,-0.26 1.46,-0.64 2.06,-1.13 z m -8.7,-3.44 c 0.38,-0.02 0.78,-0.07 1.22,-0.16 0.43,-0.08 0.83,-0.2 1.21,-0.35 0.75,-0.28 1.27,-0.69 1.54,-1.23 0.27,-0.54 0.41,-1.2 0.41,-1.99 0,-0.55 -0.16,-1.04 -0.47,-1.48 -0.31,-0.45 -0.76,-0.67 -1.37,-0.67 -0.56,0 -1.01,0.2 -1.35,0.58 -0.34,0.39 -0.6,0.85 -0.78,1.4 -0.18,0.54 -0.3,1.11 -0.35,1.71 -0.06,0.59 -0.09,1.08 -0.09,1.48 0,0.11 0,0.23 0,0.35 0,0.13 0.01,0.24 0.03,0.36 z" />
   <path
   class="fil3"
   d="M 47.01,61.68 H 41.99 V 45.64 c 0,-0.98 -0.16,-1.68 -0.48,-2.1 -0.32,-0.43 -0.89,-0.69 -1.7,-0.81 v -0.05 c 1.38,-0.21 2.87,-0.4 4.48,-0.57 1.61,-0.17 3.24,-0.25 4.9,-0.25 1.35,0 2.51,0.12 3.48,0.38 0.97,0.25 1.77,0.61 2.39,1.07 0.62,0.46 1.07,1.02 1.36,1.67 0.28,0.65 0.42,1.38 0.42,2.19 0,1.26 -0.28,2.29 -0.85,3.09 -0.56,0.8 -1.28,1.43 -2.14,1.89 -0.87,0.46 -1.81,0.78 -2.81,0.95 -1.01,0.17 -1.96,0.25 -2.84,0.25 h -1.19 z m 0.82,-9.6 c 1.17,0 2.11,-0.39 2.84,-1.16 0.72,-0.77 1.09,-1.97 1.09,-3.61 0,-1.3 -0.26,-2.33 -0.77,-3.09 -0.5,-0.77 -1.24,-1.15 -2.2,-1.15 -0.53,0 -0.95,0.13 -1.28,0.38 -0.33,0.26 -0.5,0.6 -0.5,1.03 v 7.6 z"
   id="path30" />
   <path
   id="path32"
   class="fil3"
   d="M 58.71,61.68 V 50.53 c 0,-0.74 -0.18,-1.26 -0.54,-1.57 -0.35,-0.31 -0.75,-0.5 -1.18,-0.58 H 63 v 2.2 h 0.06 c 0.32,-0.67 0.78,-1.25 1.38,-1.73 0.61,-0.48 1.27,-0.72 2.01,-0.72 0.52,0 0.91,0.05 1.14,0.17 0.24,0.11 0.49,0.27 0.75,0.48 l -0.62,3.61 c -0.21,-0.41 -0.43,-0.75 -0.65,-1 -0.23,-0.26 -0.45,-0.45 -0.68,-0.58 -0.22,-0.13 -0.44,-0.22 -0.65,-0.27 -0.21,-0.05 -0.39,-0.07 -0.56,-0.07 -0.32,0 -0.61,0.09 -0.88,0.27 -0.26,0.18 -0.49,0.41 -0.69,0.69 -0.2,0.28 -0.35,0.61 -0.45,0.97 C 63.05,52.77 63,53.14 63,53.52 v 8.16 z" />
   <path
   id="path34"
   class="fil3"
   d="m 81.51,58.49 c -0.08,0.19 -0.17,0.4 -0.29,0.62 -0.11,0.23 -0.24,0.42 -0.39,0.57 -0.75,0.9 -1.64,1.53 -2.67,1.87 -1.03,0.35 -2.1,0.53 -3.23,0.53 -1.04,0 -1.97,-0.15 -2.81,-0.46 -0.84,-0.3 -1.55,-0.73 -2.13,-1.31 -0.59,-0.57 -1.04,-1.27 -1.36,-2.1 -0.32,-0.83 -0.48,-1.77 -0.48,-2.83 0,-1.07 0.19,-2.06 0.58,-2.96 0.38,-0.9 0.92,-1.69 1.61,-2.35 0.69,-0.65 1.5,-1.17 2.45,-1.53 0.96,-0.37 1.99,-0.55 3.1,-0.55 0.56,0 1.15,0.04 1.78,0.14 0.62,0.09 1.19,0.26 1.7,0.52 0.52,0.25 0.96,0.6 1.3,1.04 0.35,0.45 0.53,1.02 0.53,1.71 0,0.59 -0.15,1.1 -0.43,1.56 -0.28,0.45 -0.66,0.84 -1.13,1.17 -0.47,0.33 -1,0.61 -1.59,0.84 -0.6,0.24 -1.2,0.44 -1.82,0.6 -0.63,0.16 -1.23,0.28 -1.81,0.38 -0.58,0.09 -1.09,0.17 -1.53,0.22 0.14,1.25 0.56,2.2 1.29,2.86 0.72,0.66 1.72,0.98 2.98,0.98 0.75,0 1.51,-0.13 2.29,-0.39 0.77,-0.26 1.45,-0.64 2.06,-1.13 z m -8.7,-3.45 c 0.38,-0.01 0.78,-0.07 1.21,-0.15 0.44,-0.09 0.84,-0.2 1.22,-0.35 0.75,-0.29 1.26,-0.7 1.54,-1.23 0.27,-0.54 0.41,-1.2 0.41,-1.99 0,-0.55 -0.16,-1.04 -0.47,-1.49 -0.31,-0.44 -0.77,-0.66 -1.37,-0.66 -0.56,0 -1.02,0.19 -1.35,0.58 -0.34,0.39 -0.6,0.85 -0.78,1.4 -0.18,0.54 -0.3,1.11 -0.35,1.71 -0.06,0.59 -0.09,1.08 -0.09,1.48 0,0.11 0,0.23 0,0.35 0,0.12 0.01,0.24 0.03,0.35 z" />
   <path
   id="path36"
   class="fil3"
   d="m 82.73,57.08 c 0.13,0.49 0.32,0.97 0.56,1.44 0.25,0.47 0.56,0.89 0.95,1.27 0.38,0.38 0.85,0.68 1.38,0.92 0.54,0.23 1.16,0.35 1.85,0.35 0.68,0 1.23,-0.15 1.64,-0.45 0.41,-0.3 0.62,-0.73 0.62,-1.27 0,-0.47 -0.17,-0.86 -0.51,-1.17 -0.34,-0.32 -0.76,-0.61 -1.28,-0.88 -0.52,-0.27 -1.08,-0.55 -1.67,-0.83 -0.59,-0.29 -1.15,-0.61 -1.66,-0.99 -0.52,-0.38 -0.95,-0.83 -1.29,-1.37 -0.34,-0.54 -0.51,-1.21 -0.51,-2.02 0,-0.73 0.15,-1.36 0.44,-1.89 0.29,-0.53 0.68,-0.97 1.18,-1.32 0.49,-0.34 1.06,-0.6 1.71,-0.76 0.65,-0.16 1.33,-0.24 2.05,-0.24 0.84,0 1.63,0.08 2.33,0.23 0.71,0.15 1.34,0.36 1.88,0.62 l -0.5,3.3 c -0.27,-0.9 -0.72,-1.62 -1.35,-2.14 -0.64,-0.53 -1.41,-0.79 -2.34,-0.79 -0.58,0 -1.04,0.12 -1.37,0.38 -0.33,0.25 -0.5,0.59 -0.5,1 0,0.41 0.18,0.76 0.52,1.05 0.36,0.28 0.79,0.54 1.3,0.79 0.51,0.24 1.07,0.5 1.68,0.77 0.62,0.28 1.18,0.61 1.69,1 0.51,0.4 0.94,0.88 1.29,1.43 0.35,0.56 0.53,1.25 0.53,2.08 0,1.43 -0.51,2.56 -1.53,3.39 -1.02,0.82 -2.48,1.24 -4.36,1.24 -1.16,0 -2.14,-0.12 -2.95,-0.36 C 83.7,61.63 83.03,61.41 82.5,61.2 Z" />
   <path
   id="path38"
   class="fil3"
   d="m 94.99,57.08 c 0.13,0.49 0.32,0.97 0.57,1.44 0.24,0.47 0.56,0.89 0.94,1.27 0.39,0.38 0.85,0.68 1.39,0.92 0.53,0.23 1.15,0.35 1.84,0.35 0.68,0 1.23,-0.15 1.64,-0.45 0.42,-0.3 0.62,-0.73 0.62,-1.27 0,-0.47 -0.17,-0.86 -0.5,-1.17 -0.34,-0.32 -0.77,-0.61 -1.29,-0.88 -0.52,-0.27 -1.07,-0.55 -1.67,-0.83 -0.59,-0.29 -1.14,-0.61 -1.66,-0.99 -0.52,-0.38 -0.95,-0.83 -1.29,-1.37 -0.34,-0.54 -0.5,-1.21 -0.5,-2.02 0,-0.73 0.14,-1.36 0.43,-1.89 0.29,-0.53 0.69,-0.97 1.18,-1.32 0.49,-0.34 1.06,-0.6 1.71,-0.76 0.65,-0.16 1.33,-0.24 2.05,-0.24 0.85,0 1.63,0.08 2.33,0.23 0.71,0.15 1.34,0.36 1.89,0.62 l -0.51,3.3 c -0.27,-0.9 -0.72,-1.62 -1.35,-2.14 -0.63,-0.53 -1.41,-0.79 -2.34,-0.79 -0.58,0 -1.04,0.12 -1.37,0.38 -0.33,0.25 -0.49,0.59 -0.49,1 0,0.41 0.17,0.76 0.52,1.05 0.35,0.28 0.78,0.54 1.29,0.79 0.51,0.24 1.07,0.5 1.69,0.77 0.61,0.28 1.17,0.61 1.68,1 0.51,0.4 0.94,0.88 1.3,1.43 0.34,0.56 0.52,1.25 0.52,2.08 0,1.43 -0.51,2.56 -1.53,3.39 -1.02,0.82 -2.47,1.24 -4.36,1.24 -1.15,0 -2.14,-0.12 -2.95,-0.36 -0.81,-0.23 -1.48,-0.45 -2.01,-0.66 z" />
  </g>
 </g>
</svg>
