<svg xmlns="http://www.w3.org/2000/svg" width="21.5" height="21.5" viewBox="0 0 21.5 21.5">
  <path id="Path_17637" data-name="Path 17637" d="M339.076,243.483l4.288,3.063a1.235,1.235,0,0,0,.451.257.5.5,0,0,0,.3-.047c.106-.052.188-.162.353-.381l.906-1.208a.992.992,0,0,1,.1-.12.549.549,0,0,1,.08-.064,1.174,1.174,0,0,1,.138-.068l3.869-1.719a1.141,1.141,0,0,0,.3-.162.518.518,0,0,0,.123-.177,1.109,1.109,0,0,0,.049-.339l.283-4.249M349.5,249.5l2.616,1.121a1.327,1.327,0,0,1,.536.3.507.507,0,0,1,.1.33,1.338,1.338,0,0,1-.283.546l-1.23,1.844a1.08,1.08,0,0,1-.187.242.494.494,0,0,1-.172.092,1.078,1.078,0,0,1-.306.022h-1.995a1.142,1.142,0,0,1-.4-.035.494.494,0,0,1-.2-.144,1.132,1.132,0,0,1-.159-.368l-.713-2.139a1.044,1.044,0,0,1-.063-.233.481.481,0,0,1,.011-.156,1.084,1.084,0,0,1,.1-.221l.542-1.083a1.221,1.221,0,0,1,.249-.4.513.513,0,0,1,.261-.108,1.219,1.219,0,0,1,.458.1ZM358,248a10,10,0,1,1-10-10A10,10,0,0,1,358,248Z" transform="translate(-337.25 -237.25)" fill="none" stroke="#fff" stroke-linecap="round" stroke-linejoin="round" stroke-width="1.5"/>
</svg>
