<svg xmlns="http://www.w3.org/2000/svg" xmlns:xlink="http://www.w3.org/1999/xlink" width="367.001" height="97.814" viewBox="0 0 367.001 97.814"><defs><clipPath id="a"><rect width="367.001" height="97.814" transform="translate(0 0)" fill="none"/></clipPath></defs><g transform="translate(0 0)"><g clip-path="url(#a)"><path d="M97.557,43.995c-1.986,1.093-3.917,2.281-5.836,3.486h0c-1,.655-2.051,1.229-3.089,1.825-2.139,1.229-4.239,2.527-6.351,3.8q-3.3,2-6.6,4.006c-.888.52-1.78,1.033-2.663,1.562Q67.838,61.786,62.663,64.9c-2.982,1.792-5.956,3.6-8.951,5.368-1.638.968-3.221,2.032-4.929,2.88a2.756,2.756,0,0,0-.3-.345q-1.386-1.155-2.783-2.3a9.832,9.832,0,0,0-1.689-1.333h0a2.9,2.9,0,0,0-.3-.344c-1.4-1.181-2.8-2.376-4.227-3.523a7.851,7.851,0,0,0-1.7-1.3,5.991,5.991,0,0,0-1.309-1.194c-1.513-1.3-3.058-2.57-4.6-3.842-1.165-.964-2.341-1.916-3.512-2.873-1.246-1.059-2.484-2.127-3.739-3.174-1.441-1.2-2.9-2.385-4.346-3.576l-.388-.321-.006-28.29c0-.849,0-.849.865-.85l22.991-.005,19.76-.008h.786a11.131,11.131,0,0,0,1.72.305,16.472,16.472,0,0,1,6.356,2.9,3.41,3.41,0,0,0,.357.382,13.37,13.37,0,0,1,3.471,4.305,18.238,18.238,0,0,1,1.765,5.767,7.662,7.662,0,0,0,.13,1.724h0c0,.308-.007.616-.01.924.042.488-.134.993.114,1.465-.241.488.144.965.025,1.451q0,.729-.007,1.457c.031.312-.113.645.112.933-.289.4.089.792.027,1.19q0,.728-.007,1.456c.036.4-.122.818.116,1.2-.219.314-.071.617.028.921,0,.4,0,.793,0,1.19.022.4-.123.822.111,1.2h0c.2.47.408.034.539-.031q7.508-3.728,15-7.489c1.237-.62,2.463-1.262,3.694-1.894.214-.195.124-.453.125-.684.008-1.495,0-2.989,0-4.484-.022-.036-.045-.049-.071-.04a1.744,1.744,0,0,0-.041-.615l-.033-.4c-.015-.314.112-.646-.115-.934a4.072,4.072,0,0,0-.157-1.058c.013-.088.026-.176.038-.264.142-.223-.011-.372-.132-.529v-.4a.268.268,0,0,0-.043-.388,3.219,3.219,0,0,1-.222-1.069c.151-.226.06-.391-.133-.53-.044-.221-.087-.442-.131-.664.212-.428-.021-.745-.265-1.059a16.328,16.328,0,0,0-.794-2.519c.079-.143.1-.277-.059-.383l-.354-.557a.3.3,0,0,1,.012-.12c.108-.184.032-.307-.133-.4-.044-.088-.087-.175-.131-.262.121-.188,0-.3-.134-.4q-.152-.393-.305-.785c.042-.2-.1-.3-.225-.408l-.8-1.595a.318.318,0,0,0-.162-.373A.844.844,0,0,1,93.3,17.8c-.077-.145-.086-.333-.262-.415a.263.263,0,0,1-.134-.253c-.082-.14-.088-.33-.263-.41l-2.247-3.187c-.1-.12-.1-.319-.274-.387l-.378-.3a7.436,7.436,0,0,0-.941-1.166c-.066-.144-.091-.318-.273-.377l-2.909-2.8a.372.372,0,0,0-.395-.275L83.232,6.648c-.082-.164-.189-.292-.4-.269l-.783-.424q-.206-.183-.41-.367c-.082-.165-.19-.293-.4-.264a3.7,3.7,0,0,1-.925-.532c-.085-.162-.187-.3-.4-.261l-3.04-1.5c-.108-.127-.209-.265-.41-.217l-1.578-.58c-.1-.134-.211-.249-.4-.133l-1.062-.4c-.157-.12-.307-.269-.529-.133a3.573,3.573,0,0,0-1.062-.221L70.382.911c-.14-.189-.305-.281-.53-.132L67.2.38c-.14-.188-.3-.279-.529-.132h-.8c-.141-.189-.305-.28-.53-.133a.236.236,0,0,1-.129.008c-.2-.188-.445-.105-.675-.105l-.921.007C61.334.018,59.046.006,56.759.007c-2.749,0-5.5.013-8.247.02C45.7.019,42.881.007,40.065.006c-2.353,0-4.707.013-7.06.021C31.861.02,30.718.006,29.574.007q-6.1.006-12.208.02L.036.018a.261.261,0,0,0,0,.121Q.032,5.905.027,11.673C.019,12.75,0,13.828,0,14.906q.007,6.732.022,13.466v11.35a.393.393,0,0,0,0,.084v3.543Q.017,50.1,0,56.849a.748.748,0,0,0,.4.695,1.15,1.15,0,0,0,.411.373l.384.29a1.151,1.151,0,0,0,.412.372l.383.29a1.144,1.144,0,0,0,.412.373l.383.289A1.122,1.122,0,0,0,3.2,59.9l.382.289A1.128,1.128,0,0,0,4,60.567l.382.289a1.1,1.1,0,0,0,.413.373l.382.293c.113.107.182.286.368.274a.122.122,0,0,0-.018.029c-.012.028.008.051.06.068l.385.291a1.2,1.2,0,0,0,.41.372l.385.29a1.174,1.174,0,0,0,.411.372q.192.146.385.29a1.165,1.165,0,0,0,.41.373l.385.29a1.159,1.159,0,0,0,.411.373l.384.289a1.153,1.153,0,0,0,.412.373l.383.289a1.155,1.155,0,0,0,.412.374l.384.288a1.122,1.122,0,0,0,.412.374l.383.289a1.125,1.125,0,0,0,.413.374l.382.288a1.117,1.117,0,0,0,.413.374l.382.288a1.114,1.114,0,0,0,.414.375l.381.287a1.085,1.085,0,0,0,.415.375l.381.287c.111.11.179.291.367.279a.111.111,0,0,0-.017.029q-.02.042.06.069l.385.289a1.172,1.172,0,0,0,.411.374l.384.288a1.153,1.153,0,0,0,.411.374l.384.289a1.156,1.156,0,0,0,.412.374l.384.288a1.131,1.131,0,0,0,.412.374l.383.288a1.133,1.133,0,0,0,.412.375l.383.287a1.119,1.119,0,0,0,.413.375l.382.291c.076.06.121.191.25.12-.048.132.066.188.159.253l.387.289a1.184,1.184,0,0,0,.409.374l.386.288a1.159,1.159,0,0,0,.41.374l.385.289a1.176,1.176,0,0,0,.41.374l.385.288a1.072,1.072,0,0,0,.492.379l.3.283a1.029,1.029,0,0,0,.492.38l.3.282a1.029,1.029,0,0,0,.492.381l.3.281a1.032,1.032,0,0,0,.493.381l.961.805c.145.168.289.337.434.506.2.006.3.167.433.277,1.833,1.5,3.6,3.082,5.494,4.517.153.156.293.327.46.467q1.415,1.182,2.841,2.351,2.133,1.752,4.273,3.5c1.309,1.234,2.736,2.33,4.116,3.479a9.921,9.921,0,0,0,1.7,1.338,9.11,9.11,0,0,0,1.418,1.271c.148.141.373.275.594.078a6.894,6.894,0,0,0,1.106-1.025,38.811,38.811,0,0,1,3.192-3.606c1.111-1.214,2.179-2.475,3.355-3.639.509-.5,1-1.074,1.488-1.629.745-.853,1.481-1.715,2.274-2.521a1.649,1.649,0,0,0,.5-.73l.9-.807a.664.664,0,0,0,.4-.42,2.831,2.831,0,0,1,.922-1.037.67.67,0,0,0,.4-.421,2.829,2.829,0,0,1,.921-1.037.668.668,0,0,0,.4-.421,2.839,2.839,0,0,1,.922-1.037.667.667,0,0,0,.4-.42,2.843,2.843,0,0,1,.922-1.038.671.671,0,0,0,.4-.42,2.834,2.834,0,0,1,.922-1.038.67.67,0,0,0,.4-.42,2.84,2.84,0,0,1,.922-1.037.673.673,0,0,0,.4-.421,2.839,2.839,0,0,1,.922-1.037.671.671,0,0,0,.4-.421,2.839,2.839,0,0,1,.922-1.037.672.672,0,0,0,.4-.42,2.846,2.846,0,0,1,.923-1.038.678.678,0,0,0,.4-.419,2.829,2.829,0,0,1,.922-1.039.679.679,0,0,0,.4-.419,2.809,2.809,0,0,1,.922-1.038.682.682,0,0,0,.4-.42,2.834,2.834,0,0,1,.922-1.038.677.677,0,0,0,.4-.42,2.834,2.834,0,0,1,.922-1.038.681.681,0,0,0,.4-.42,2.825,2.825,0,0,1,.922-1.038.679.679,0,0,0,.4-.42,2.836,2.836,0,0,1,.923-1.038.675.675,0,0,0,.4-.42,2.843,2.843,0,0,1,.923-1.037.682.682,0,0,0,.4-.42,2.82,2.82,0,0,1,.923-1.038.683.683,0,0,0,.4-.42,2.846,2.846,0,0,1,.923-1.038.684.684,0,0,0,.4-.42,2.828,2.828,0,0,1,.923-1.038.683.683,0,0,0,.4-.42,2.831,2.831,0,0,1,.924-1.038.688.688,0,0,0,.4-.42,2.817,2.817,0,0,1,.923-1.037.688.688,0,0,0,.4-.42,2.815,2.815,0,0,1,.924-1.038.693.693,0,0,0,.4-.42c.04-.358.42-.47.551-.762l.273-.27a1.1,1.1,0,0,0,.508-.542c.627-.689,1.244-1.387,1.883-2.064.753-.8,1.509-1.593,2.2-2.446.252-.307.481-.69.931-.783.111-.247.194-.478-.239-.405m-5.8,6.358a.281.281,0,0,0-.036.01l.024-.025.012.015m3.679-27.289h0l-.008-.014h.008v.015M.265,40.032h0a.139.139,0,0,1-.015-.019l.015,0v.015Zm27.047,39.6h0v0M33.006.1c0,.012,0,.024,0,.036H33A.148.148,0,0,0,33.006.1M17.367.1c0,.012,0,.023,0,.035h-.011A.2.2,0,0,0,17.367.1" fill="#fff"/><path d="M146.835,43.88q0,8.52-4.851,13.051t-14,4.531h-9.771v-34.5H129.04q8.45,0,13.121,4.461t4.674,12.46m-7.6.189q0-11.115-9.819-11.116h-3.894V55.421h3.139q10.572,0,10.574-11.352" fill="#fff"/><path d="M165.361,61.935q-6.372,0-9.959-3.517t-3.588-9.959q0-6.632,3.316-10.254t9.169-3.623q5.594,0,8.708,3.186t3.115,8.8v3.493H159.107a6.927,6.927,0,0,0,1.817,4.79,6.393,6.393,0,0,0,4.767,1.723,19.817,19.817,0,0,0,4.508-.495,22.586,22.586,0,0,0,4.437-1.582v5.57a16.885,16.885,0,0,1-4.036,1.4,25.425,25.425,0,0,1-5.239.461M164.346,39.7a4.564,4.564,0,0,0-3.587,1.452,6.712,6.712,0,0,0-1.487,4.118h10.1a6,6,0,0,0-1.392-4.118,4.715,4.715,0,0,0-3.635-1.452" fill="#fff"/><path d="M188.253,61.463,178.2,35.078h7.529l5.1,15.033a26.879,26.879,0,0,1,1.062,5.4h.141a23.5,23.5,0,0,1,1.062-5.4l5.074-15.033h7.529L195.64,61.463Z" fill="#fff"/><path d="M221.411,61.935q-6.372,0-9.959-3.517t-3.588-9.959q0-6.632,3.316-10.254t9.169-3.623q5.594,0,8.708,3.186t3.115,8.8v3.493H215.157a6.926,6.926,0,0,0,1.817,4.79,6.392,6.392,0,0,0,4.767,1.723,19.817,19.817,0,0,0,4.508-.495,22.586,22.586,0,0,0,4.437-1.582v5.57a16.885,16.885,0,0,1-4.036,1.4,25.425,25.425,0,0,1-5.239.461M220.4,39.7a4.564,4.564,0,0,0-3.587,1.452,6.712,6.712,0,0,0-1.487,4.118h10.1a6,6,0,0,0-1.392-4.118A4.715,4.715,0,0,0,220.4,39.7" fill="#fff"/><rect width="7.198" height="36.722" transform="translate(238.026 24.74)" fill="#fff"/><path d="M276.753,48.223q0,6.443-3.4,10.077t-9.463,3.635a13.242,13.242,0,0,1-6.7-1.664,11.067,11.067,0,0,1-4.46-4.779,16.053,16.053,0,0,1-1.558-7.269q0-6.467,3.375-10.054t9.488-3.587a13.317,13.317,0,0,1,6.7,1.652,11.024,11.024,0,0,1,4.46,4.744,15.9,15.9,0,0,1,1.558,7.245m-18.243,0a11.069,11.069,0,0,0,1.286,5.924,4.6,4.6,0,0,0,4.189,2.006,4.527,4.527,0,0,0,4.142-1.995,11.236,11.236,0,0,0,1.263-5.935,10.9,10.9,0,0,0-1.275-5.877,5.419,5.419,0,0,0-8.33-.011,10.885,10.885,0,0,0-1.275,5.888" fill="#fff"/><path d="M293.415,61.935q-12.32,0-12.32-13.523,0-6.726,3.352-10.278t9.605-3.552a18.31,18.31,0,0,1,8.213,1.794l-2.124,5.569q-1.7-.682-3.162-1.121a10.235,10.235,0,0,0-2.927-.436q-5.617,0-5.617,7.977,0,7.741,5.617,7.74a12.8,12.8,0,0,0,3.847-.554,13.888,13.888,0,0,0,3.54-1.735v6.16a11.588,11.588,0,0,1-3.528,1.534,19.856,19.856,0,0,1-4.5.425" fill="#fff"/><path d="M307.245,28.257q0-3.516,3.918-3.517t3.917,3.517a3.429,3.429,0,0,1-.979,2.607,4.116,4.116,0,0,1-2.938.933q-3.918,0-3.918-3.54m7.505,33.205h-7.2V35.077h7.2Z" fill="#fff"/><path d="M333.417,56.2a15.588,15.588,0,0,0,4.531-.826v5.357a16.149,16.149,0,0,1-6.608,1.2q-4.318,0-6.289-2.183T323.08,53.2V40.482h-3.446V37.438l3.965-2.407,2.077-5.57h4.6v5.617h7.387v5.4h-7.387V53.2a2.811,2.811,0,0,0,.861,2.266,3.405,3.405,0,0,0,2.278.731" fill="#fff"/><path d="M339.506,35.077h7.883l4.979,14.845a20.563,20.563,0,0,1,.873,4.578h.142a20.194,20.194,0,0,1,1.015-4.578l4.885-14.845H367l-11.164,29.76a12.889,12.889,0,0,1-4.378,6.183,11.047,11.047,0,0,1-6.643,2.053,16.729,16.729,0,0,1-3.658-.4V66.961a12.33,12.33,0,0,0,2.832.307,5.121,5.121,0,0,0,3.34-1.168,7.594,7.594,0,0,0,2.23-3.529l.424-1.3Z" fill="#fff"/></g></g></svg>