<svg xmlns="http://www.w3.org/2000/svg" width="104.648" height="20" viewBox="0 0 104.648 20">
  <path id="Path_17072" data-name="Path 17072" d="M8.119-29.889a8.816,8.816,0,0,1,4.528,1.042,6.262,6.262,0,0,1,2.577,2.785,9.115,9.115,0,0,1,.811,3.892,8.911,8.911,0,0,1-.833,3.892,6.38,6.38,0,0,1-2.61,2.785,8.733,8.733,0,0,1-4.474,1.042H2.352V-29.889Zm.329,12.807a4.378,4.378,0,0,0,2.533-.713,4.378,4.378,0,0,0,1.557-1.875,6.1,6.1,0,0,0,.515-2.5,6.1,6.1,0,0,0-.515-2.5,4.378,4.378,0,0,0-1.557-1.875,4.378,4.378,0,0,0-2.533-.713H5.334v10.175Zm19.868-3.311a6.784,6.784,0,0,1-.066.855H19.83a3.189,3.189,0,0,0,.965,2.061,3.02,3.02,0,0,0,2.127.746,2.283,2.283,0,0,0,2.346-1.754h2.851a5.406,5.406,0,0,1-1.7,3.059,5.129,5.129,0,0,1-3.52,1.151,6.117,6.117,0,0,1-3.136-.768,5.019,5.019,0,0,1-2-2.116,6.753,6.753,0,0,1-.68-3.081,6.725,6.725,0,0,1,.7-3.147A4.97,4.97,0,0,1,19.8-25.47a6.133,6.133,0,0,1,3.059-.735,6.007,6.007,0,0,1,2.664.6,4.766,4.766,0,0,1,2.018,1.908A6.357,6.357,0,0,1,28.317-20.394ZM25.51-21.468a2.782,2.782,0,0,0-.746-1.776,2.415,2.415,0,0,0-1.82-.68,2.775,2.775,0,0,0-3,2.456Zm8.355,3.9a4.445,4.445,0,0,1,.154,1.272q0,.329.263.329t.263-.329a4.445,4.445,0,0,1,.154-1.272l2.566-8.465h2.982L36.3-14.451H32.264L28.317-26.03H31.3Zm17.609-2.829a6.785,6.785,0,0,1-.066.855H42.987a3.189,3.189,0,0,0,.965,2.061,3.02,3.02,0,0,0,2.127.746,2.283,2.283,0,0,0,2.346-1.754h2.851a5.406,5.406,0,0,1-1.7,3.059,5.129,5.129,0,0,1-3.52,1.151,6.117,6.117,0,0,1-3.136-.768,5.019,5.019,0,0,1-2-2.116,6.753,6.753,0,0,1-.68-3.081,6.725,6.725,0,0,1,.7-3.147,4.97,4.97,0,0,1,2.007-2.083,6.133,6.133,0,0,1,3.059-.735,6.007,6.007,0,0,1,2.664.6A4.766,4.766,0,0,1,50.7-23.694,6.357,6.357,0,0,1,51.474-20.394Zm-2.807-1.075a2.782,2.782,0,0,0-.746-1.776,2.415,2.415,0,0,0-1.82-.68,2.775,2.775,0,0,0-3,2.456Zm7.017-8.772v15.789H52.878V-30.24ZM62.878-26.2a5.852,5.852,0,0,1,3.07.789,5.29,5.29,0,0,1,2.018,2.149,6.5,6.5,0,0,1,.7,3.026,6.5,6.5,0,0,1-.7,3.026,5.29,5.29,0,0,1-2.018,2.149,5.852,5.852,0,0,1-3.07.789,5.852,5.852,0,0,1-3.07-.789,5.29,5.29,0,0,1-2.018-2.149,6.5,6.5,0,0,1-.7-3.026,6.5,6.5,0,0,1,.7-3.026,5.29,5.29,0,0,1,2.018-2.149A5.852,5.852,0,0,1,62.878-26.2Zm0,9.386a2.672,2.672,0,0,0,2.182-.976,3.728,3.728,0,0,0,.8-2.445,3.728,3.728,0,0,0-.8-2.445,2.672,2.672,0,0,0-2.182-.976,2.672,2.672,0,0,0-2.182.976,3.728,3.728,0,0,0-.8,2.445,3.728,3.728,0,0,0,.8,2.445A2.672,2.672,0,0,0,62.878-16.819Zm6.93-3.421a6.512,6.512,0,0,1,.713-3.07,5.177,5.177,0,0,1,2.05-2.127,6.1,6.1,0,0,1,3.092-.768,5.706,5.706,0,0,1,2.741.636,4.91,4.91,0,0,1,1.853,1.678,4.932,4.932,0,0,1,.779,2.248H78.272a2.269,2.269,0,0,0-.811-1.447,2.706,2.706,0,0,0-1.8-.57,2.8,2.8,0,0,0-2.237.943,3.666,3.666,0,0,0-.811,2.478,3.666,3.666,0,0,0,.811,2.478,2.8,2.8,0,0,0,2.237.943,2.706,2.706,0,0,0,1.8-.57,2.269,2.269,0,0,0,.811-1.447h2.763a4.932,4.932,0,0,1-.779,2.248,4.931,4.931,0,0,1-1.842,1.678,5.689,5.689,0,0,1-2.752.636,6,6,0,0,1-3.059-.768,5.344,5.344,0,0,1-2.061-2.127A6.354,6.354,0,0,1,69.807-20.24Zm12.631-10h2.807v2.807H82.439Zm0,4.21h2.807v11.579H82.439Zm8.772,2.456v5.285a5.58,5.58,0,0,0,.055.965.419.419,0,0,0,.285.34,3.208,3.208,0,0,0,.866.077h1.952v2.456H91.825a5.038,5.038,0,0,1-1.952-.318,2.112,2.112,0,0,1-1.107-1.086A5.155,5.155,0,0,1,88.4-18v-5.57H86.3V-26.03H88.4v-3.158h2.807v3.158h3.158v2.456Zm9.43,5.022a4.214,4.214,0,0,1,.175,1.316q0,.373.263.373t.263-.373a4.143,4.143,0,0,1,.2-1.316l2.478-7.478H107l-4.912,12.917A4.753,4.753,0,0,1,100.6-10.9a4,4,0,0,1-2.412.658H96.079V-12.7h.965q.965,0,1.349-.044a1.1,1.1,0,0,0,.592-.219,1.412,1.412,0,0,0,.362-.636l.241-.7L95.07-26.03h2.982Z" transform="translate(-2.352 30.24)" fill="#fff"/>
</svg>
