<svg xmlns="http://www.w3.org/2000/svg" width="48" height="48" viewBox="0 0 48 48">
  <circle id="Ellipse_259" data-name="Ellipse 259" cx="24" cy="24" r="24" fill="#6366f1" opacity="0.1"/>
  <circle id="Ellipse_260" data-name="Ellipse 260" cx="18" cy="18" r="18" transform="translate(6 6)" fill="#6366f1" opacity="0.15"/>
  <path id="Path_16265" data-name="Path 16265" d="M94.744,19.768a8.219,8.219,0,0,1-.848-.044h-.139a.949.949,0,0,1,0-1.9h.19c.035,0,.07,0,.105,0a6.084,6.084,0,0,0,2.525-.244,1.905,1.905,0,0,0,.736-.738,6.172,6.172,0,0,0,.245-2.524.978.978,0,0,1-.006-.105v-.189a.949.949,0,0,1,1.9,0v.138a8.081,8.081,0,0,1-.358,3.347,1,1,0,0,1-.057.136,3.78,3.78,0,0,1-1.657,1.658,1.124,1.124,0,0,1-.135.057,7.982,7.982,0,0,1-2.5.4m-9.546,0a8.1,8.1,0,0,1-2.517-.4,1.062,1.062,0,0,1-.135-.057,3.78,3.78,0,0,1-1.659-1.658,1.187,1.187,0,0,1-.056-.135,8.088,8.088,0,0,1-.358-3.348v-.138a.949.949,0,1,1,1.9,0v.189a.98.98,0,0,1-.006.105,6.156,6.156,0,0,0,.245,2.524,1.9,1.9,0,0,0,.737.738,6.139,6.139,0,0,0,2.523.244c.036,0,.071,0,.106,0h.19a.949.949,0,0,1,0,1.9h-.139a8.1,8.1,0,0,1-.83.043M98.51,11.184a.949.949,0,0,1-.009-1.9h.009a.949.949,0,1,1,0,1.9m-4.27,0a.949.949,0,0,1-.009-1.9h.009a.949.949,0,0,1,0,1.9m-4.27,0a.949.949,0,0,1-.009-1.9h.009a.949.949,0,0,1,0,1.9m-4.27,0a.949.949,0,0,1-.009-1.9H85.7a.949.949,0,0,1,0,1.9m-4.27,0a.949.949,0,0,1-.009-1.9h.009a.949.949,0,0,1,0,1.9M98.5,7.389a.949.949,0,0,1-.949-.949v-.19a.978.978,0,0,1,.006-.105,6.09,6.09,0,0,0-.245-2.524,1.9,1.9,0,0,0-.736-.737,6.079,6.079,0,0,0-2.525-.245.979.979,0,0,1-.105.006h-.19a.949.949,0,0,1,0-1.9h.138a7.959,7.959,0,0,1,3.349.359.877.877,0,0,1,.135.056,3.778,3.778,0,0,1,1.657,1.657,1,1,0,0,1,.057.136A7.976,7.976,0,0,1,99.45,6.3V6.44a.949.949,0,0,1-.949.949m-17.079,0a.949.949,0,0,1-.949-.949V6.3a7.98,7.98,0,0,1,.358-3.348,1.119,1.119,0,0,1,.056-.135,3.773,3.773,0,0,1,1.659-1.657.761.761,0,0,1,.135-.056A8.035,8.035,0,0,1,86.028.748h.139a.949.949,0,0,1,0,1.9h-.19a1,1,0,0,1-.106-.006,6.157,6.157,0,0,0-2.523.245,1.9,1.9,0,0,0-.738.737,6.087,6.087,0,0,0-.244,2.523,1.011,1.011,0,0,1,.006.106v.19a.949.949,0,0,1-.949.949" transform="translate(-65.961 13.765)" fill="#6366f1"/>
</svg>
