<?xml version="1.0" encoding="UTF-8" standalone="no"?>
<!-- Generator: Adobe Illustrator 25.2.0, SVG Export Plug-In . SVG Version: 6.00 Build 0)  -->

<svg
   xmlns:dc="http://purl.org/dc/elements/1.1/"
   xmlns:cc="http://creativecommons.org/ns#"
   xmlns:rdf="http://www.w3.org/1999/02/22-rdf-syntax-ns#"
   xmlns:svg="http://www.w3.org/2000/svg"
   xmlns="http://www.w3.org/2000/svg"
   xmlns:sodipodi="http://sodipodi.sourceforge.net/DTD/sodipodi-0.dtd"
   xmlns:inkscape="http://www.inkscape.org/namespaces/inkscape"
   version="1.1"
   id="Layer_1"
   x="0px"
   y="0px"
   viewBox="0 0 337.79999 126.36"
   xml:space="preserve"
   sodipodi:docname="US-National-Times-Ekin-SVG_cropped.svg"
   width="337.79999"
   height="126.36"
   inkscape:version="0.92.3 (2405546, 2018-03-11)"><metadata
   id="metadata45"><rdf:RDF><cc:Work
       rdf:about=""><dc:format>image/svg+xml</dc:format><dc:type
         rdf:resource="http://purl.org/dc/dcmitype/StillImage" /></cc:Work></rdf:RDF></metadata><defs
   id="defs43" /><sodipodi:namedview
   pagecolor="#ffffff"
   bordercolor="#666666"
   borderopacity="1"
   objecttolerance="10"
   gridtolerance="10"
   guidetolerance="10"
   inkscape:pageopacity="0"
   inkscape:pageshadow="2"
   inkscape:window-width="640"
   inkscape:window-height="480"
   id="namedview41"
   showgrid="false"
   inkscape:zoom="0.835"
   inkscape:cx="168.9"
   inkscape:cy="69.01"
   inkscape:window-x="0"
   inkscape:window-y="0"
   inkscape:window-maximized="0"
   inkscape:current-layer="Layer_1" />
<style
   type="text/css"
   id="style2">
	.st0{fill:#231F20;}
</style>
<g
   id="g38"
   transform="translate(-31.1,-55.15)">
	<path
   class="st0"
   d="M 52.96,177.06 H 69.93 V 72.47 h -8.87 c -2.04,0 -4.33,0.18 -6.88,0.53 -2.55,0.36 -5.12,1.35 -7.72,2.98 -2.6,1.63 -5.1,4.21 -7.49,7.72 -2.4,3.52 -4.46,8.39 -6.19,14.6 H 31.1 V 70.33 h 92.97 v 27.98 h -1.68 c -1.73,-6.22 -3.8,-11.09 -6.19,-14.6 -2.4,-3.52 -4.89,-6.09 -7.49,-7.72 -2.6,-1.63 -5.18,-2.62 -7.72,-2.98 -2.55,-0.36 -4.84,-0.53 -6.88,-0.53 h -8.87 v 104.59 h 16.97 v 2.14 H 52.96 Z"
   id="path4"
   inkscape:connector-curvature="0"
   style="fill:#231f20" />
	<path
   class="st0"
   d="m 134.92,178.8 h 10.34 v -63.71 h -10.34 v -1.3 h 29.99 v 1.3 h -10.34 v 63.71 h 10.34 v 1.3 h -29.99 z"
   id="path6"
   inkscape:connector-curvature="0"
   style="fill:#231f20" />
	<path
   class="st0"
   d="m 170.41,178.8 h 10.34 v -63.71 h -10.34 v -1.3 h 20.96 l 17.23,50.11 h 0.19 l 17.23,-50.11 h 20.59 v 1.3 h -10.34 v 63.71 h 10.34 v 1.3 h -29.99 v -1.3 h 10.34 v -63.15 h -0.19 l -22.26,64.55 -22.17,-63.9 h -0.19 v 62.5 h 10.34 v 1.3 h -22.08 z"
   id="path8"
   inkscape:connector-curvature="0"
   style="fill:#231f20" />
	<path
   class="st0"
   d="m 251.82,178.8 h 10.34 v -63.71 h -10.34 v -1.3 h 53.28 v 16.11 h -1.02 c -0.81,-2.42 -1.68,-4.55 -2.61,-6.38 -0.93,-1.83 -2.05,-3.38 -3.35,-4.66 -1.3,-1.27 -2.86,-2.22 -4.66,-2.84 -1.8,-0.62 -3.97,-0.93 -6.52,-0.93 h -15.46 v 28.78 h 6.05 c 2.05,0 3.79,-0.19 5.22,-0.56 1.43,-0.37 2.65,-1.07 3.68,-2.1 1.02,-1.02 1.89,-2.42 2.61,-4.19 0.71,-1.77 1.41,-4.05 2.1,-6.85 h 1.02 v 28.97 h -1.02 c -0.44,-1.8 -0.89,-3.54 -1.35,-5.22 -0.47,-1.68 -1.12,-3.17 -1.96,-4.47 -0.84,-1.3 -1.96,-2.34 -3.35,-3.12 -1.4,-0.78 -3.21,-1.16 -5.45,-1.16 h -7.55 v 33.63 h 17.6 c 3.41,0 6.26,-0.73 8.52,-2.19 2.27,-1.46 4.11,-3.2 5.54,-5.22 1.43,-2.02 2.48,-4.11 3.17,-6.29 0.68,-2.17 1.12,-3.97 1.3,-5.4 h 1.02 v 20.4 h -56.82 v -1.3 z"
   id="path10"
   inkscape:connector-curvature="0"
   style="fill:#231f20" />
	<path
   class="st0"
   d="m 321.59,160.07 h 1.02 c 0.68,3.35 1.57,6.18 2.65,8.48 1.09,2.3 2.28,4.19 3.59,5.68 1.3,1.49 2.67,2.64 4.1,3.45 1.43,0.81 2.87,1.4 4.33,1.77 1.46,0.37 2.86,0.59 4.19,0.65 1.33,0.06 2.59,0.09 3.77,0.09 3.29,0 5.99,-0.5 8.1,-1.49 2.11,-0.99 3.79,-2.25 5.03,-3.77 1.24,-1.52 2.11,-3.17 2.61,-4.94 0.5,-1.77 0.75,-3.4 0.75,-4.89 0,-2.17 -0.4,-4.04 -1.21,-5.59 -0.81,-1.55 -1.83,-2.87 -3.07,-3.96 -1.24,-1.09 -2.59,-1.97 -4.05,-2.65 -1.46,-0.68 -2.84,-1.21 -4.14,-1.58 l -10.71,-3.26 c -5.03,-1.55 -8.83,-3.6 -11.41,-6.15 -2.58,-2.55 -3.87,-5.96 -3.87,-10.25 0,-2.79 0.5,-5.39 1.49,-7.78 0.99,-2.39 2.39,-4.45 4.19,-6.19 1.8,-1.74 3.96,-3.1 6.47,-4.1 2.52,-0.99 5.26,-1.49 8.24,-1.49 2.17,0 3.99,0.19 5.45,0.56 1.46,0.37 2.72,0.79 3.77,1.26 1.06,0.47 2,0.88 2.84,1.26 0.84,0.37 1.69,0.56 2.56,0.56 0.81,0 1.35,-0.11 1.63,-0.33 0.28,-0.22 0.67,-0.76 1.16,-1.63 h 1.3 v 16.86 h -1.12 c -0.37,-2.24 -1.01,-4.39 -1.91,-6.47 -0.9,-2.08 -2.07,-3.91 -3.49,-5.5 -1.43,-1.58 -3.15,-2.86 -5.17,-3.82 -2.02,-0.96 -4.36,-1.44 -7.03,-1.44 -1.49,0 -3.14,0.2 -4.94,0.61 -1.8,0.4 -3.48,1.1 -5.03,2.1 -1.55,0.99 -2.84,2.3 -3.87,3.91 -1.02,1.62 -1.54,3.66 -1.54,6.15 0,1.99 0.4,3.68 1.21,5.08 0.81,1.4 1.85,2.58 3.12,3.54 1.27,0.96 2.7,1.77 4.28,2.42 1.58,0.65 3.18,1.23 4.8,1.72 l 11.27,3.54 c 1.18,0.37 2.67,0.87 4.47,1.49 1.8,0.62 3.55,1.55 5.26,2.79 1.71,1.24 3.17,2.89 4.38,4.94 1.21,2.05 1.82,4.66 1.82,7.82 0,2.92 -0.54,5.7 -1.63,8.34 -1.09,2.64 -2.65,4.97 -4.7,6.99 -2.05,2.02 -4.53,3.63 -7.45,4.84 -2.92,1.21 -6.21,1.82 -9.87,1.82 -1.3,0 -2.45,-0.02 -3.45,-0.05 -0.99,-0.03 -1.93,-0.11 -2.79,-0.23 -0.87,-0.13 -1.74,-0.27 -2.61,-0.42 -0.87,-0.16 -1.83,-0.39 -2.89,-0.7 -1.24,-0.37 -2.58,-0.81 -4.01,-1.3 -1.43,-0.5 -2.67,-0.75 -3.73,-0.75 -0.93,0 -1.57,0.19 -1.91,0.56 -0.34,0.37 -0.64,0.87 -0.89,1.49 h -1.4 v -20.04 z"
   id="path12"
   inkscape:connector-curvature="0"
   style="fill:#231f20" />
	<g
   id="g34">
		<path
   class="st0"
   d="m 135.98,55.93 h 13.81 v 0.6 h -4.76 v 20.71 c 0,1.72 0.15,3.17 0.45,4.35 0.3,1.19 0.75,2.14 1.35,2.87 0.6,0.73 1.34,1.25 2.23,1.57 0.89,0.31 1.9,0.47 3.05,0.47 1.6,0 3.02,-0.24 4.25,-0.71 1.23,-0.47 2.29,-1.31 3.17,-2.51 0.29,-0.37 0.54,-0.74 0.75,-1.12 0.21,-0.37 0.4,-0.81 0.56,-1.31 0.16,-0.5 0.28,-1.1 0.36,-1.8 0.09,-0.7 0.13,-1.57 0.13,-2.59 V 56.53 h -4.76 v -0.6 h 10.16 v 0.6 h -4.76 v 20.8 c 0,1.2 -0.13,2.29 -0.39,3.28 -0.26,0.99 -0.79,2.01 -1.59,3.07 -0.77,1.03 -1.84,1.86 -3.22,2.49 -1.37,0.63 -3.19,0.94 -5.45,0.94 -3.43,0 -6.05,-0.84 -7.87,-2.53 -1.82,-1.69 -2.72,-4.27 -2.72,-7.76 V 56.53 h -4.76 v -0.6 z"
   id="path14"
   inkscape:connector-curvature="0"
   style="fill:#231f20" />
		<path
   class="st0"
   d="m 170.85,77.24 h 0.47 c 0.31,1.54 0.72,2.85 1.22,3.9 0.5,1.06 1.05,1.93 1.65,2.62 0.6,0.69 1.23,1.22 1.89,1.59 0.66,0.37 1.32,0.64 1.99,0.81 0.67,0.17 1.31,0.27 1.93,0.3 0.61,0.03 1.19,0.04 1.74,0.04 1.52,0 2.76,-0.23 3.73,-0.69 0.97,-0.46 1.74,-1.04 2.32,-1.74 0.57,-0.7 0.97,-1.46 1.2,-2.27 0.23,-0.81 0.34,-1.57 0.34,-2.25 0,-1 -0.19,-1.86 -0.56,-2.57 -0.37,-0.71 -0.84,-1.32 -1.42,-1.82 -0.57,-0.5 -1.19,-0.91 -1.87,-1.22 -0.67,-0.31 -1.31,-0.56 -1.91,-0.73 l -4.93,-1.5 c -2.32,-0.71 -4.07,-1.66 -5.25,-2.83 -1.19,-1.17 -1.78,-2.74 -1.78,-4.72 0,-1.29 0.23,-2.48 0.69,-3.58 0.46,-1.1 1.1,-2.05 1.93,-2.85 0.83,-0.8 1.82,-1.43 2.98,-1.89 1.16,-0.46 2.42,-0.69 3.8,-0.69 1,0 1.84,0.09 2.51,0.26 0.67,0.17 1.25,0.36 1.74,0.58 0.49,0.21 0.92,0.41 1.31,0.58 0.39,0.17 0.78,0.26 1.18,0.26 0.37,0 0.62,-0.05 0.75,-0.15 0.13,-0.1 0.31,-0.35 0.54,-0.75 h 0.6 v 7.76 h -0.51 c -0.17,-1.03 -0.47,-2.02 -0.88,-2.98 -0.41,-0.96 -0.95,-1.8 -1.61,-2.53 -0.66,-0.73 -1.45,-1.31 -2.38,-1.76 -0.93,-0.44 -2.01,-0.66 -3.24,-0.66 -0.69,0 -1.44,0.09 -2.27,0.28 -0.83,0.19 -1.6,0.51 -2.32,0.96 -0.72,0.46 -1.31,1.06 -1.78,1.8 -0.47,0.74 -0.71,1.69 -0.71,2.83 0,0.92 0.19,1.69 0.56,2.34 0.37,0.64 0.85,1.19 1.44,1.63 0.59,0.44 1.24,0.81 1.97,1.12 0.73,0.3 1.46,0.56 2.21,0.79 l 5.19,1.63 c 0.54,0.17 1.23,0.4 2.06,0.69 0.83,0.29 1.64,0.71 2.42,1.29 0.79,0.57 1.46,1.33 2.02,2.27 0.56,0.94 0.84,2.14 0.84,3.6 0,1.34 -0.25,2.62 -0.75,3.84 -0.5,1.22 -1.22,2.29 -2.17,3.22 -0.94,0.93 -2.09,1.67 -3.43,2.23 -1.34,0.56 -2.86,0.84 -4.55,0.84 -0.6,0 -1.13,-0.01 -1.59,-0.02 -0.46,-0.01 -0.89,-0.05 -1.29,-0.11 -0.4,-0.06 -0.8,-0.12 -1.2,-0.19 -0.4,-0.07 -0.84,-0.18 -1.33,-0.32 -0.57,-0.17 -1.19,-0.37 -1.84,-0.6 -0.66,-0.23 -1.23,-0.34 -1.72,-0.34 -0.43,0 -0.72,0.09 -0.88,0.26 -0.16,0.17 -0.29,0.4 -0.41,0.69 h -0.64 z"
   id="path16"
   inkscape:connector-curvature="0"
   style="fill:#231f20" />
		<path
   class="st0"
   d="m 209.06,85.86 h 4.76 V 56.53 h -4.76 v -0.6 h 9.18 l 14.5,23.37 h 0.09 V 56.53 h -4.76 v -0.6 h 10.16 v 0.6 h -4.76 v 30.54 h -0.86 L 214.55,58.29 h -0.09 v 27.58 h 4.76 v 0.6 h -10.16 z"
   id="path18"
   inkscape:connector-curvature="0"
   style="fill:#231f20" />
		<path
   class="st0"
   d="m 259.63,85.99 c -0.37,0.29 -0.81,0.54 -1.33,0.75 -0.51,0.21 -1.14,0.32 -1.89,0.32 -1.37,0 -2.37,-0.29 -2.98,-0.88 -0.62,-0.59 -1.04,-1.41 -1.27,-2.47 h -0.09 c -0.11,0.26 -0.27,0.58 -0.47,0.96 -0.2,0.39 -0.51,0.76 -0.92,1.12 -0.41,0.36 -0.96,0.66 -1.65,0.9 -0.69,0.24 -1.56,0.36 -2.62,0.36 -1.2,0 -2.16,-0.14 -2.87,-0.41 -0.72,-0.27 -1.27,-0.61 -1.67,-1.01 -0.4,-0.4 -0.66,-0.85 -0.79,-1.35 -0.13,-0.5 -0.19,-0.96 -0.19,-1.39 0,-1 0.2,-1.8 0.6,-2.4 0.4,-0.6 0.92,-1.08 1.57,-1.44 0.64,-0.36 1.36,-0.65 2.14,-0.88 0.79,-0.23 1.58,-0.47 2.38,-0.73 0.94,-0.31 1.72,-0.59 2.34,-0.81 0.61,-0.23 1.09,-0.51 1.44,-0.84 0.34,-0.33 0.58,-0.74 0.71,-1.24 0.13,-0.5 0.19,-1.18 0.19,-2.04 0,-0.69 -0.04,-1.3 -0.13,-1.84 -0.09,-0.54 -0.24,-1.01 -0.47,-1.39 -0.23,-0.39 -0.56,-0.68 -0.99,-0.88 -0.43,-0.2 -1,-0.3 -1.72,-0.3 -0.94,0 -1.72,0.16 -2.34,0.49 -0.62,0.33 -0.92,0.87 -0.92,1.61 0,0.49 0.04,0.96 0.13,1.44 0.09,0.47 0.13,0.82 0.13,1.05 0,0.4 -0.14,0.74 -0.43,1.01 -0.29,0.27 -0.7,0.41 -1.24,0.41 -0.94,0 -1.53,-0.17 -1.76,-0.51 -0.23,-0.34 -0.34,-0.79 -0.34,-1.33 0,-0.63 0.14,-1.23 0.43,-1.8 0.29,-0.57 0.71,-1.08 1.27,-1.52 0.56,-0.44 1.26,-0.79 2.1,-1.05 0.84,-0.26 1.81,-0.39 2.89,-0.39 1.31,0 2.42,0.17 3.3,0.49 0.89,0.33 1.6,0.77 2.14,1.33 0.54,0.56 0.93,1.19 1.16,1.89 0.23,0.7 0.34,1.44 0.34,2.21 V 84.1 c 0,0.83 0.13,1.39 0.39,1.67 0.26,0.29 0.63,0.43 1.12,0.43 0.31,0 0.64,-0.06 0.99,-0.17 0.34,-0.11 0.67,-0.29 0.99,-0.51 z m -7.51,-10.04 h -0.09 c -0.06,0.37 -0.53,0.74 -1.42,1.12 l -3.22,1.29 c -0.92,0.37 -1.62,0.89 -2.1,1.57 -0.49,0.67 -0.73,1.51 -0.73,2.51 0,0.43 0.04,0.87 0.13,1.33 0.09,0.46 0.24,0.87 0.47,1.22 0.23,0.36 0.55,0.65 0.96,0.88 0.41,0.23 0.95,0.34 1.61,0.34 0.94,0 1.71,-0.2 2.29,-0.6 0.59,-0.4 1.03,-0.9 1.33,-1.5 0.3,-0.6 0.5,-1.25 0.6,-1.95 0.1,-0.7 0.15,-1.34 0.15,-1.91 v -4.3 z"
   id="path20"
   inkscape:connector-curvature="0"
   style="fill:#231f20" />
		<path
   class="st0"
   d="m 260.49,68.06 h 3.3 v -5.53 c 0.23,0.09 0.44,0.16 0.64,0.21 0.2,0.06 0.54,0.09 1.03,0.09 0.43,0 0.8,-0.05 1.12,-0.15 0.31,-0.1 0.61,-0.26 0.9,-0.49 v 5.88 h 6.09 v 0.6 h -6.09 v 14.02 c 0,0.8 0.08,1.45 0.24,1.95 0.16,0.5 0.36,0.89 0.62,1.16 0.26,0.27 0.54,0.45 0.84,0.54 0.3,0.09 0.59,0.13 0.88,0.13 1,0 1.81,-0.36 2.42,-1.09 0.61,-0.73 1.01,-1.57 1.18,-2.51 l 0.6,0.21 c -0.09,0.37 -0.21,0.79 -0.39,1.24 -0.17,0.46 -0.44,0.89 -0.79,1.31 -0.36,0.41 -0.82,0.76 -1.39,1.03 -0.57,0.27 -1.29,0.41 -2.14,0.41 -2.14,0 -3.64,-0.41 -4.48,-1.24 -0.84,-0.83 -1.27,-2 -1.27,-3.52 V 68.66 h -3.3 v -0.6 z"
   id="path22"
   inkscape:connector-curvature="0"
   style="fill:#231f20" />
		<path
   class="st0"
   d="m 275.24,85.86 h 3.3 v -17.2 h -3.3 v -0.6 h 6.99 v 17.8 h 3.3 v 0.6 h -10.29 z m 2.79,-27.79 c 0,-0.63 0.22,-1.16 0.66,-1.61 0.44,-0.44 0.98,-0.66 1.61,-0.66 0.63,0 1.16,0.22 1.61,0.66 0.44,0.44 0.66,0.98 0.66,1.61 0,0.63 -0.22,1.17 -0.66,1.61 -0.44,0.44 -0.98,0.66 -1.61,0.66 -0.63,0 -1.17,-0.22 -1.61,-0.66 -0.44,-0.44 -0.66,-0.98 -0.66,-1.61 z"
   id="path24"
   inkscape:connector-curvature="0"
   style="fill:#231f20" />
		<path
   class="st0"
   d="m 288.66,77.28 c 0,-1.4 0.31,-2.7 0.92,-3.9 0.61,-1.2 1.4,-2.24 2.36,-3.11 0.96,-0.87 2.03,-1.55 3.22,-2.04 1.19,-0.49 2.35,-0.73 3.5,-0.73 1.14,0 2.31,0.24 3.5,0.73 1.19,0.49 2.26,1.17 3.22,2.04 0.96,0.87 1.74,1.91 2.36,3.11 0.61,1.2 0.92,2.5 0.92,3.9 0,1.34 -0.29,2.61 -0.86,3.8 -0.57,1.19 -1.32,2.22 -2.25,3.11 -0.93,0.89 -1.99,1.59 -3.2,2.1 -1.2,0.51 -2.43,0.77 -3.69,0.77 -1.26,0 -2.49,-0.26 -3.69,-0.77 -1.2,-0.51 -2.27,-1.22 -3.2,-2.1 -0.93,-0.89 -1.68,-1.92 -2.25,-3.11 -0.57,-1.19 -0.86,-2.45 -0.86,-3.8 z m 4.29,0 c 0,2.03 0.16,3.65 0.47,4.85 0.31,1.2 0.73,2.12 1.24,2.77 0.51,0.64 1.12,1.07 1.8,1.27 0.69,0.2 1.42,0.3 2.19,0.3 0.77,0 1.5,-0.1 2.19,-0.3 0.69,-0.2 1.29,-0.62 1.8,-1.27 0.51,-0.64 0.93,-1.57 1.24,-2.77 0.31,-1.2 0.47,-2.82 0.47,-4.85 0,-1.72 -0.11,-3.15 -0.34,-4.31 -0.23,-1.16 -0.58,-2.1 -1.05,-2.83 -0.47,-0.73 -1.07,-1.25 -1.78,-1.57 -0.72,-0.31 -1.56,-0.47 -2.53,-0.47 -0.97,0 -1.82,0.16 -2.53,0.47 -0.71,0.31 -1.31,0.84 -1.78,1.57 -0.47,0.73 -0.82,1.67 -1.05,2.83 -0.22,1.16 -0.34,2.6 -0.34,4.31 z"
   id="path26"
   inkscape:connector-curvature="0"
   style="fill:#231f20" />
		<path
   class="st0"
   d="m 311.65,85.86 h 3.3 v -17.2 h -3.3 v -0.6 h 6.91 v 4.59 h 0.09 c 0.17,-0.37 0.42,-0.84 0.75,-1.42 0.33,-0.57 0.78,-1.13 1.35,-1.67 0.57,-0.54 1.29,-1.01 2.14,-1.39 0.86,-0.39 1.9,-0.58 3.13,-0.58 1.89,0 3.42,0.46 4.61,1.37 1.19,0.92 1.78,2.37 1.78,4.37 v 12.52 h 3.3 v 0.6 h -10.29 v -0.6 h 3.3 V 72.01 c 0,-1.11 -0.26,-2.03 -0.79,-2.74 -0.53,-0.71 -1.35,-1.07 -2.47,-1.07 -0.92,0 -1.79,0.2 -2.62,0.6 -0.83,0.4 -1.56,0.96 -2.19,1.67 -0.63,0.71 -1.12,1.56 -1.48,2.53 -0.36,0.97 -0.54,2.03 -0.54,3.17 v 9.69 h 3.3 v 0.6 h -10.29 v -0.6 z"
   id="path28"
   inkscape:connector-curvature="0"
   style="fill:#231f20" />
		<path
   class="st0"
   d="m 357.28,85.99 c -0.37,0.29 -0.81,0.54 -1.33,0.75 -0.51,0.21 -1.14,0.32 -1.89,0.32 -1.37,0 -2.37,-0.29 -2.98,-0.88 -0.62,-0.59 -1.04,-1.41 -1.27,-2.47 h -0.09 c -0.11,0.26 -0.27,0.58 -0.47,0.96 -0.2,0.39 -0.51,0.76 -0.92,1.12 -0.41,0.36 -0.96,0.66 -1.65,0.9 -0.69,0.24 -1.56,0.36 -2.62,0.36 -1.2,0 -2.16,-0.14 -2.87,-0.41 -0.72,-0.27 -1.27,-0.61 -1.67,-1.01 -0.4,-0.4 -0.66,-0.85 -0.79,-1.35 -0.13,-0.5 -0.19,-0.96 -0.19,-1.39 0,-1 0.2,-1.8 0.6,-2.4 0.4,-0.6 0.92,-1.08 1.57,-1.44 0.64,-0.36 1.36,-0.65 2.14,-0.88 0.79,-0.23 1.58,-0.47 2.38,-0.73 0.94,-0.31 1.72,-0.59 2.34,-0.81 0.61,-0.23 1.09,-0.51 1.44,-0.84 0.34,-0.33 0.58,-0.74 0.71,-1.24 0.13,-0.5 0.19,-1.18 0.19,-2.04 0,-0.69 -0.04,-1.3 -0.13,-1.84 -0.09,-0.54 -0.24,-1.01 -0.47,-1.39 -0.23,-0.39 -0.56,-0.68 -0.99,-0.88 -0.43,-0.2 -1,-0.3 -1.72,-0.3 -0.94,0 -1.72,0.16 -2.34,0.49 -0.62,0.33 -0.92,0.87 -0.92,1.61 0,0.49 0.04,0.96 0.13,1.44 0.09,0.47 0.13,0.82 0.13,1.05 0,0.4 -0.14,0.74 -0.43,1.01 -0.29,0.27 -0.7,0.41 -1.24,0.41 -0.94,0 -1.53,-0.17 -1.76,-0.51 -0.23,-0.34 -0.34,-0.79 -0.34,-1.33 0,-0.63 0.14,-1.23 0.43,-1.8 0.29,-0.57 0.71,-1.08 1.27,-1.52 0.56,-0.44 1.26,-0.79 2.1,-1.05 0.84,-0.26 1.81,-0.39 2.89,-0.39 1.31,0 2.42,0.17 3.3,0.49 0.89,0.33 1.6,0.77 2.14,1.33 0.54,0.56 0.93,1.19 1.16,1.89 0.23,0.7 0.34,1.44 0.34,2.21 V 84.1 c 0,0.83 0.13,1.39 0.39,1.67 0.26,0.29 0.63,0.43 1.12,0.43 0.31,0 0.64,-0.06 0.99,-0.17 0.34,-0.11 0.67,-0.29 0.99,-0.51 z m -7.5,-10.04 h -0.09 c -0.06,0.37 -0.53,0.74 -1.42,1.12 l -3.22,1.29 c -0.92,0.37 -1.62,0.89 -2.1,1.57 -0.49,0.67 -0.73,1.51 -0.73,2.51 0,0.43 0.04,0.87 0.13,1.33 0.09,0.46 0.24,0.87 0.47,1.22 0.23,0.36 0.55,0.65 0.96,0.88 0.41,0.23 0.95,0.34 1.61,0.34 0.94,0 1.71,-0.2 2.29,-0.6 0.59,-0.4 1.03,-0.9 1.33,-1.5 0.3,-0.6 0.5,-1.25 0.6,-1.95 0.1,-0.7 0.15,-1.34 0.15,-1.91 v -4.3 z"
   id="path30"
   inkscape:connector-curvature="0"
   style="fill:#231f20" />
		<path
   class="st0"
   d="m 358.61,85.86 h 3.3 V 56.14 h -3.3 v -0.6 h 6.99 v 30.32 h 3.3 v 0.6 h -10.29 z"
   id="path32"
   inkscape:connector-curvature="0"
   style="fill:#231f20" />
	</g>
	<rect
   x="135.98"
   y="101.96"
   class="st0"
   width="232.92"
   height="1.96"
   id="rect36"
   style="fill:#231f20" />
</g>
</svg>