<svg xmlns="http://www.w3.org/2000/svg" width="21.5" height="21.5" viewBox="0 0 21.5 21.5">
  <g id="Group_4741" data-name="Group 4741" transform="translate(-12151.25 11200.75)">
    <path id="Path_19036" data-name="Path 19036" d="M620,218a10,10,0,1,0-10-10A10,10,0,0,0,620,218Z" transform="translate(11542 -11398)" fill="none" stroke="#404040" stroke-linecap="round" stroke-linejoin="round" stroke-width="1.5"/>
    <path id="Path_19037" data-name="Path 19037" d="M617.5,204.965c0-.477,0-.716.1-.849a.5.5,0,0,1,.364-.2c.166-.012.367.117.769.375l4.72,3.035c.349.224.523.336.583.478a.5.5,0,0,1,0,.39c-.06.142-.234.254-.583.478l-4.72,3.035c-.4.258-.6.387-.769.375a.5.5,0,0,1-.364-.2c-.1-.133-.1-.372-.1-.849Z" transform="translate(11542 -11398)" fill="none" stroke="#404040" stroke-linecap="round" stroke-linejoin="round" stroke-width="1.5"/>
  </g>
</svg>
