<svg xmlns="http://www.w3.org/2000/svg" xmlns:xlink="http://www.w3.org/1999/xlink" width="640" height="545" viewBox="0 0 640 545">
  <defs>
    <filter id="Rectangle_1948" x="0" y="0" width="590" height="386" filterUnits="userSpaceOnUse">
      <feOffset dy="8" input="SourceAlpha"/>
      <feGaussianBlur stdDeviation="8" result="blur"/>
      <feFlood flood-opacity="0.149"/>
      <feComposite operator="in" in2="blur"/>
      <feComposite in="SourceGraphic"/>
    </filter>
    <radialGradient id="radial-gradient" cx="0.816" cy="1" r="2.209" gradientTransform="matrix(0.074, -0.997, 0.405, 0.03, 0.35, 1.783)" gradientUnits="objectBoundingBox">
      <stop offset="0" stop-color="#253036"/>
      <stop offset="1" stop-color="#0c1012"/>
    </radialGradient>
    <filter id="Rectangle_1957" x="63" y="305" width="412" height="240" filterUnits="userSpaceOnUse">
      <feOffset dy="8" input="SourceAlpha"/>
      <feGaussianBlur stdDeviation="8" result="blur-2"/>
      <feFlood flood-opacity="0.161"/>
      <feComposite operator="in" in2="blur-2"/>
      <feComposite in="SourceGraphic"/>
    </filter>
    <filter id="Rectangle_1956" x="268" y="125" width="372" height="390" filterUnits="userSpaceOnUse">
      <feOffset dy="8" input="SourceAlpha"/>
      <feGaussianBlur stdDeviation="8" result="blur-3"/>
      <feFlood flood-opacity="0.149"/>
      <feComposite operator="in" in2="blur-3"/>
      <feComposite in="SourceGraphic"/>
    </filter>
  </defs>
  <g id="Group_4739" data-name="Group 4739" transform="translate(-712 -3274)">
    <g id="Group_4379" data-name="Group 4379" transform="translate(667.149 112)">
      <g transform="matrix(1, 0, 0, 1, 44.85, 3162)" filter="url(#Rectangle_1948)">
        <g id="Rectangle_1948-2" data-name="Rectangle 1948" transform="translate(24 16)" fill="#fff" stroke="#eaecf0" stroke-width="1">
          <rect width="542" height="338" rx="8" stroke="none"/>
          <rect x="0.5" y="0.5" width="541" height="337" rx="7.5" fill="none"/>
        </g>
      </g>
      <g id="Rectangle_1245" data-name="Rectangle 1245" transform="translate(68.851 3178)" fill="#fff" stroke="#eaecf0" stroke-width="1">
        <path d="M8,0H534a8,8,0,0,1,8,8V62a0,0,0,0,1,0,0H0a0,0,0,0,1,0,0V8A8,8,0,0,1,8,0Z" stroke="none"/>
        <path d="M8,.5H534A7.5,7.5,0,0,1,541.5,8V61.5a0,0,0,0,1,0,0H.5a0,0,0,0,1,0,0V8A7.5,7.5,0,0,1,8,.5Z" fill="none"/>
      </g>
      <g id="Rectangle_1943" data-name="Rectangle 1943" transform="translate(68.851 3275)" fill="#fff" stroke="#eaecf0" stroke-width="1">
        <rect width="542" height="49" stroke="none"/>
        <rect x="0.5" y="0.5" width="541" height="48" fill="none"/>
      </g>
      <g id="Rectangle_1944" data-name="Rectangle 1944" transform="translate(68.851 3323)" fill="#fff" stroke="#eaecf0" stroke-width="1">
        <rect width="542" height="49" stroke="none"/>
        <rect x="0.5" y="0.5" width="541" height="48" fill="none"/>
      </g>
      <g id="Rectangle_1945" data-name="Rectangle 1945" transform="translate(68.851 3371)" fill="#fff" stroke="#eaecf0" stroke-width="1">
        <rect width="542" height="49" stroke="none"/>
        <rect x="0.5" y="0.5" width="541" height="48" fill="none"/>
      </g>
      <g id="Rectangle_1946" data-name="Rectangle 1946" transform="translate(68.851 3419)" fill="#fff" stroke="#eaecf0" stroke-width="1">
        <rect width="542" height="49" stroke="none"/>
        <rect x="0.5" y="0.5" width="541" height="48" fill="none"/>
      </g>
      <g id="Rectangle_1947" data-name="Rectangle 1947" transform="translate(68.851 3467)" fill="#fff" stroke="#eaecf0" stroke-width="1">
        <path d="M0,0H542a0,0,0,0,1,0,0V41a8,8,0,0,1-8,8H8a8,8,0,0,1-8-8V0A0,0,0,0,1,0,0Z" stroke="none"/>
        <path d="M.5.5h541a0,0,0,0,1,0,0V41a7.5,7.5,0,0,1-7.5,7.5H8A7.5,7.5,0,0,1,.5,41V.5A0,0,0,0,1,.5.5Z" fill="none"/>
      </g>
      <rect id="Rectangle_1235" data-name="Rectangle 1235" width="542" height="36" transform="translate(68.851 3239)" fill="#eaecf0"/>
      <text id="Rank" transform="translate(92.851 3261.5)" fill="#475467" font-size="12" font-family="Inter-Medium, Inter" font-weight="500"><tspan x="0" y="0">Rank</tspan></text>
      <text id="Address" transform="translate(150.851 3261.5)" fill="#475467" font-size="12" font-family="Inter-Medium, Inter" font-weight="500"><tspan x="0" y="0">Address</tspan></text>
      <text id="Name_Tag" data-name="Name Tag" transform="translate(310.851 3261.5)" fill="#475467" font-size="12" font-family="Inter-Medium, Inter" font-weight="500"><tspan x="0" y="0">Name Tag</tspan></text>
      <text id="Balance" transform="translate(398.851 3261.5)" fill="#475467" font-size="12" font-family="Inter-Medium, Inter" font-weight="500"><tspan x="0" y="0">Balance</tspan></text>
      <text id="Percentage" transform="translate(520.851 3261.5)" fill="#475467" font-size="12" font-family="Inter-Medium, Inter" font-weight="500"><tspan x="0" y="0">Percentage</tspan></text>
      <text id="Top_10_Wallets" data-name="Top 10 Wallets" transform="translate(155.851 3215)" fill="#29233b" font-size="18" font-family="Inter-SemiBold, Inter" font-weight="600"><tspan x="-61.338" y="0">Top 10 Wallets</tspan></text>
      <text id="_0x8kjsd6...d1e277" data-name="0x8kjsd6...d1e277" transform="translate(150.851 3305)" fill="#6366f1" font-size="14" font-family="Inter-Regular, Inter"><tspan x="0" y="0">0x8kjsd6...d1e277</tspan></text>
      <text id="_0x8kjsd6...d1e277-2" data-name="0x8kjsd6...d1e277" transform="translate(150.851 3353)" fill="#6366f1" font-size="14" font-family="Inter-Regular, Inter"><tspan x="0" y="0">0x8kjsd6...d1e277</tspan></text>
      <text id="_0x8kjsd6...d1e277-3" data-name="0x8kjsd6...d1e277" transform="translate(150.851 3401)" fill="#6366f1" font-size="14" font-family="Inter-Regular, Inter"><tspan x="0" y="0">0x8kjsd6...d1e277</tspan></text>
      <text id="_0x8kjsd6...d1e277-4" data-name="0x8kjsd6...d1e277" transform="translate(150.851 3449)" fill="#6366f1" font-size="14" font-family="Inter-Regular, Inter"><tspan x="0" y="0">0x8kjsd6...d1e277</tspan></text>
      <text id="_0x8kjsd6...d1e277-5" data-name="0x8kjsd6...d1e277" transform="translate(150.851 3497)" fill="#6366f1" font-size="14" font-family="Inter-Regular, Inter"><tspan x="0" y="0">0x8kjsd6...d1e277</tspan></text>
      <text id="N_A" data-name="N/A" transform="translate(339.851 3305)" fill="#475467" font-size="14" font-family="Inter-Regular, Inter"><tspan x="-12.499" y="0">N/A</tspan></text>
      <text id="N_A-2" data-name="N/A" transform="translate(339.851 3353)" fill="#475467" font-size="14" font-family="Inter-Regular, Inter"><tspan x="-12.499" y="0">N/A</tspan></text>
      <text id="N_A-3" data-name="N/A" transform="translate(339.851 3401)" fill="#475467" font-size="14" font-family="Inter-Regular, Inter"><tspan x="-12.499" y="0">N/A</tspan></text>
      <text id="N_A-4" data-name="N/A" transform="translate(339.851 3449)" fill="#475467" font-size="14" font-family="Inter-Regular, Inter"><tspan x="-12.499" y="0">N/A</tspan></text>
      <text id="N_A-5" data-name="N/A" transform="translate(339.851 3497)" fill="#475467" font-size="14" font-family="Inter-Regular, Inter"><tspan x="-12.499" y="0">N/A</tspan></text>
      <text id="_6_021_018.086" data-name="6,021,018.086" transform="translate(398.851 3305)" fill="#475467" font-size="14" font-family="Inter-Regular, Inter"><tspan x="0" y="0">6,021,018.086</tspan></text>
      <text id="_5_881_064.015" data-name="5,881,064.015" transform="translate(398.851 3353)" fill="#475467" font-size="14" font-family="Inter-Regular, Inter"><tspan x="0" y="0">5,881,064.015</tspan></text>
      <text id="_4_961_126.143" data-name="4,961,126.143" transform="translate(398.851 3401)" fill="#475467" font-size="14" font-family="Inter-Regular, Inter"><tspan x="0" y="0">4,961,126.143</tspan></text>
      <text id="_3_081_367.217" data-name="3,081,367.217" transform="translate(398.851 3449)" fill="#475467" font-size="14" font-family="Inter-Regular, Inter"><tspan x="0" y="0">3,081,367.217</tspan></text>
      <text id="_2_394_171.681" data-name="2,394,171.681" transform="translate(398.851 3497)" fill="#475467" font-size="14" font-family="Inter-Regular, Inter"><tspan x="0" y="0">2,394,171.681</tspan></text>
      <text id="_1" data-name="1" transform="translate(106.851 3305)" fill="#475467" font-size="14" font-family="Inter-Regular, Inter"><tspan x="-3.251" y="0">1</tspan></text>
      <text id="_2" data-name="2" transform="translate(106.851 3353)" fill="#475467" font-size="14" font-family="Inter-Regular, Inter"><tspan x="-4.236" y="0">2</tspan></text>
      <text id="_3" data-name="3" transform="translate(106.851 3401)" fill="#475467" font-size="14" font-family="Inter-Regular, Inter"><tspan x="-4.455" y="0">3</tspan></text>
      <text id="_4" data-name="4" transform="translate(106.851 3449)" fill="#475467" font-size="14" font-family="Inter-Regular, Inter"><tspan x="-4.494" y="0">4</tspan></text>
      <text id="_5" data-name="5" transform="translate(106.851 3497)" fill="#475467" font-size="14" font-family="Inter-Regular, Inter"><tspan x="-4.256" y="0">5</tspan></text>
      <text id="_23.09_" data-name="23.09%" transform="translate(554 3305)" fill="#475467" font-size="14" font-family="Inter-Regular, Inter"><tspan x="-24.709" y="0">23.09%</tspan></text>
      <text id="_22.64_" data-name="22.64%" transform="translate(554 3353)" fill="#475467" font-size="14" font-family="Inter-Regular, Inter"><tspan x="-24.768" y="0">22.64%</tspan></text>
      <text id="_19.48_" data-name="19.48%" transform="translate(554 3401)" fill="#475467" font-size="14" font-family="Inter-Regular, Inter"><tspan x="-23.864" y="0">19.48%</tspan></text>
      <text id="_13.97_" data-name="13.97%" transform="translate(554 3449)" fill="#475467" font-size="14" font-family="Inter-Regular, Inter"><tspan x="-23.337" y="0">13.97%</tspan></text>
      <text id="_12.22_" data-name="12.22%" transform="translate(554 3497)" fill="#475467" font-size="14" font-family="Inter-Regular, Inter"><tspan x="-23.575" y="0">12.22%</tspan></text>
    </g>
    <g id="Group_4387" data-name="Group 4387" transform="translate(-4041 14691)">
      <g transform="matrix(1, 0, 0, 1, 4753, -11417)" filter="url(#Rectangle_1957)">
        <rect id="Rectangle_1957-2" data-name="Rectangle 1957" width="364" height="192" rx="8" transform="translate(87 321)" fill="url(#radial-gradient)"/>
      </g>
      <path id="Rectangle_1223" data-name="Rectangle 1223" d="M8,0H356a8,8,0,0,1,8,8V38a0,0,0,0,1,0,0H0a0,0,0,0,1,0,0V8A8,8,0,0,1,8,0Z" transform="translate(4840 -11096)" fill="#192023"/>
      <path id="Rectangle_1222" data-name="Rectangle 1222" d="M0,0H364a0,0,0,0,1,0,0V146a8,8,0,0,1-8,8H8a8,8,0,0,1-8-8V0A0,0,0,0,1,0,0Z" transform="translate(4840 -11058)" fill="url(#radial-gradient)"/>
      <text id="_01_02_03_04_05_06_07_08_09_10_11_12_13" data-name="01
02
03
04
05
06
07
08
09
10
11
12
13" transform="translate(4856 -11042)" fill="#8fa1af" font-size="12" font-family="Inter-Light, Inter" font-weight="300" opacity="0.39"><tspan x="0" y="12">01</tspan><tspan x="0" y="27">02</tspan><tspan x="0" y="42">03</tspan><tspan x="0" y="57">04</tspan><tspan x="0" y="72">05</tspan><tspan x="0" y="87">06</tspan><tspan x="0" y="102">07</tspan><tspan x="0" y="117">08</tspan></text>
      <text id="watchTransactions_console.log_Watching_all_pending_transactions..._this.subscription.on_data_txHash_setTimeout_async_try_let_tx_await_this.web3.eth.getTransaction" data-name="watchTransactions() {
        console.log(&apos;Watching all pending transactions...&apos;);
        this.subscription.on(&apos;data&apos;, (txHash) =&gt; {
            setTimeout(async () =&gt; {
                try {
                    let tx = await this.web3.eth.getTransaction" transform="translate(4888 -11042)" fill="#8fa1af" font-size="12" font-family="Inter-Light, Inter" font-weight="300"><tspan x="0" y="12">watchTransactions() {</tspan><tspan x="0" y="27" xml:space="preserve">        console.log(&apos;Watching all pending </tspan><tspan x="0" y="42">transactions...&apos;);</tspan><tspan x="0" y="57" xml:space="preserve">        this.subscription.on(&apos;data&apos;, (txHash) =&gt; {</tspan><tspan x="0" y="72" xml:space="preserve">            setTimeout(async () =&gt; {</tspan><tspan x="0" y="87" xml:space="preserve">                try {</tspan><tspan x="0" y="102" xml:space="preserve">                    let tx = await </tspan><tspan x="0" y="117">this.web3.eth.getTransaction(txHash);</tspan></text>
      <text id="contract-analysis-node.js" transform="translate(4840 -11084)" fill="#c7c7c7" font-size="12" font-family="Inter-Regular, Inter"><tspan x="100" y="12">contract-analysis-node.js</tspan></text>
      <circle id="Ellipse_236" data-name="Ellipse 236" cx="4" cy="4" r="4" transform="translate(4856 -11080)" fill="#ee6a5f"/>
      <circle id="Ellipse_237" data-name="Ellipse 237" cx="4" cy="4" r="4" transform="translate(4870 -11080)" fill="#f5be50"/>
      <circle id="Ellipse_238" data-name="Ellipse 238" cx="4" cy="4" r="4" transform="translate(4884 -11080)" fill="#62c554"/>
    </g>
    <g id="Group_4380" data-name="Group 4380" transform="translate(130 543)">
      <g transform="matrix(1, 0, 0, 1, 582, 2731)" filter="url(#Rectangle_1956)">
        <rect id="Rectangle_1956-2" data-name="Rectangle 1956" width="324" height="342" rx="8" transform="translate(292 141)" fill="#fff"/>
      </g>
      <g id="Rectangle_1245-2" data-name="Rectangle 1245" transform="translate(874 2872)" fill="#fff" stroke="#eaecf0" stroke-width="1">
        <path d="M8,0H316a8,8,0,0,1,8,8V62a0,0,0,0,1,0,0H0a0,0,0,0,1,0,0V8A8,8,0,0,1,8,0Z" stroke="none"/>
        <path d="M8,.5H316A7.5,7.5,0,0,1,323.5,8V61.5a0,0,0,0,1,0,0H.5a0,0,0,0,1,0,0V8A7.5,7.5,0,0,1,8,.5Z" fill="none"/>
      </g>
      <g id="Rectangle_1949" data-name="Rectangle 1949" transform="translate(874 2933)" fill="#fff" stroke="#eaecf0" stroke-width="1">
        <rect width="324" height="41" stroke="none"/>
        <rect x="0.5" y="0.5" width="323" height="40" fill="none"/>
      </g>
      <g id="Rectangle_1954" data-name="Rectangle 1954" transform="translate(874 3133)" fill="#fff" stroke="#eaecf0" stroke-width="1">
        <rect width="324" height="41" stroke="none"/>
        <rect x="0.5" y="0.5" width="323" height="40" fill="none"/>
      </g>
      <g id="Rectangle_1950" data-name="Rectangle 1950" transform="translate(874 2973)" fill="#fff" stroke="#eaecf0" stroke-width="1">
        <rect width="324" height="41" stroke="none"/>
        <rect x="0.5" y="0.5" width="323" height="40" fill="none"/>
      </g>
      <g id="Rectangle_1951" data-name="Rectangle 1951" transform="translate(874 3013)" fill="#fff" stroke="#eaecf0" stroke-width="1">
        <rect width="324" height="41" stroke="none"/>
        <rect x="0.5" y="0.5" width="323" height="40" fill="none"/>
      </g>
      <g id="Rectangle_1953" data-name="Rectangle 1953" transform="translate(874 3093)" fill="#fff" stroke="#eaecf0" stroke-width="1">
        <rect width="324" height="41" stroke="none"/>
        <rect x="0.5" y="0.5" width="323" height="40" fill="none"/>
      </g>
      <g id="Rectangle_1955" data-name="Rectangle 1955" transform="translate(874 3173)" fill="#fff" stroke="#eaecf0" stroke-width="1">
        <path d="M0,0H324a0,0,0,0,1,0,0V33a8,8,0,0,1-8,8H8a8,8,0,0,1-8-8V0A0,0,0,0,1,0,0Z" stroke="none"/>
        <path d="M.5.5h323a0,0,0,0,1,0,0V33a7.5,7.5,0,0,1-7.5,7.5H8A7.5,7.5,0,0,1,.5,33V.5A0,0,0,0,1,.5.5Z" fill="none"/>
      </g>
      <g id="Rectangle_1952" data-name="Rectangle 1952" transform="translate(874 3053)" fill="#fff" stroke="#eaecf0" stroke-width="1">
        <rect width="324" height="41" stroke="none"/>
        <rect x="0.5" y="0.5" width="323" height="40" fill="none"/>
      </g>
      <text id="Contract_Details" data-name="Contract Details" transform="translate(898.851 2909)" fill="#29233b" font-size="18" font-family="Inter-SemiBold, Inter" font-weight="600"><tspan x="0" y="0">Contract Details</tspan></text>
      <text id="Mint" transform="translate(898 2959)" fill="#475467" font-size="14" font-family="Inter-Medium, Inter" font-weight="500"><tspan x="0" y="0">Mint</tspan></text>
      <text id="Antiwhale" transform="translate(898 3159)" fill="#475467" font-size="14" font-family="Inter-Medium, Inter" font-weight="500"><tspan x="0" y="0">Antiwhale</tspan></text>
      <text id="Burn" transform="translate(898 2999)" fill="#475467" font-size="14" font-family="Inter-Medium, Inter" font-weight="500"><tspan x="0" y="0">Burn</tspan></text>
      <text id="Reflection" transform="translate(898 3039)" fill="#475467" font-size="14" font-family="Inter-Medium, Inter" font-weight="500"><tspan x="0" y="0">Reflection</tspan></text>
      <text id="Transfer_Ownership" data-name="Transfer Ownership" transform="translate(898 3119)" fill="#475467" font-size="14" font-family="Inter-Medium, Inter" font-weight="500"><tspan x="0" y="0">Transfer Ownership</tspan></text>
      <text id="Antibot" transform="translate(898 3199)" fill="#475467" font-size="14" font-family="Inter-Medium, Inter" font-weight="500"><tspan x="0" y="0">Antibot</tspan></text>
      <text id="Self-Destruction" transform="translate(898 3079)" fill="#475467" font-size="14" font-family="Inter-Medium, Inter" font-weight="500"><tspan x="0" y="0">Self-Destruction</tspan></text>
      <g id="Group_4380-2" data-name="Group 4380" transform="translate(977.149 1769.5)">
        <rect id="Rectangle_1920" data-name="Rectangle 1920" width="78" height="22" rx="11" transform="translate(119 1173)" fill="#d9ffde"/>
        <text id="DETECTED" transform="translate(187 1188)" fill="#2a8d34" font-size="11" font-family="Inter-Medium, Inter" font-weight="500"><tspan x="-58.184" y="0">DETECTED</tspan></text>
      </g>
      <g id="Group_4385" data-name="Group 4385" transform="translate(977.149 1969.5)">
        <rect id="Rectangle_1920-2" data-name="Rectangle 1920" width="78" height="22" rx="11" transform="translate(119 1173)" fill="#d9ffde"/>
        <text id="DETECTED-2" data-name="DETECTED" transform="translate(187 1188)" fill="#2a8d34" font-size="11" font-family="Inter-Medium, Inter" font-weight="500"><tspan x="-58.184" y="0">DETECTED</tspan></text>
      </g>
      <g id="Group_4381" data-name="Group 4381" transform="translate(977.149 1809.5)">
        <rect id="Rectangle_1920-3" data-name="Rectangle 1920" width="105" height="22" rx="11" transform="translate(92 1173)" fill="#d9ffde"/>
        <text id="NOT_DETECTED" data-name="NOT DETECTED" transform="translate(187 1188)" fill="#2a8d34" font-size="11" font-family="Inter-Medium, Inter" font-weight="500"><tspan x="-84.586" y="0">NOT DETECTED</tspan></text>
      </g>
      <g id="Group_4382" data-name="Group 4382" transform="translate(977.149 1849.5)">
        <rect id="Rectangle_1920-4" data-name="Rectangle 1920" width="78" height="22" rx="11" transform="translate(119 1173)" fill="#ffe6e6"/>
        <text id="DETECTED-3" data-name="DETECTED" transform="translate(187 1188)" fill="#b72a2a" font-size="11" font-family="Inter-Medium, Inter" font-weight="500"><tspan x="-58.184" y="0">DETECTED</tspan></text>
      </g>
      <g id="Group_4384" data-name="Group 4384" transform="translate(977.149 1929.5)">
        <rect id="Rectangle_1920-5" data-name="Rectangle 1920" width="105" height="22" rx="11" transform="translate(92 1173)" fill="#ffe6e6"/>
        <text id="NOT_DETECTED-2" data-name="NOT DETECTED" transform="translate(187 1188)" fill="#b72a2a" font-size="11" font-family="Inter-Medium, Inter" font-weight="500"><tspan x="-84.586" y="0">NOT DETECTED</tspan></text>
      </g>
      <g id="Group_4386" data-name="Group 4386" transform="translate(977.149 2009.5)">
        <rect id="Rectangle_1920-6" data-name="Rectangle 1920" width="105" height="22" rx="11" transform="translate(92 1173)" fill="#ffe6e6"/>
        <text id="NOT_DETECTED-3" data-name="NOT DETECTED" transform="translate(187 1188)" fill="#b72a2a" font-size="11" font-family="Inter-Medium, Inter" font-weight="500"><tspan x="-84.586" y="0">NOT DETECTED</tspan></text>
      </g>
      <g id="Group_4383" data-name="Group 4383" transform="translate(977.149 1889.5)">
        <rect id="Rectangle_1920-7" data-name="Rectangle 1920" width="105" height="22" rx="11" transform="translate(92 1173)" fill="#d9ffde"/>
        <text id="NOT_DETECTED-4" data-name="NOT DETECTED" transform="translate(187 1188)" fill="#2a8d34" font-size="11" font-family="Inter-Medium, Inter" font-weight="500"><tspan x="-84.586" y="0">NOT DETECTED</tspan></text>
      </g>
    </g>
  </g>
</svg>
