<svg xmlns="http://www.w3.org/2000/svg" width="65.113" height="58.161" viewBox="0 0 65.113 58.161">
  <path id="Path_17708" data-name="Path 17708" d="M893.81,112.56a2.9,2.9,0,0,1-2.9-2.89V98.62h-5.29a37.8,37.8,0,0,0-22.25,7.25,3.529,3.529,0,0,1-5.53-3.6,46.675,46.675,0,0,1,5.3-16.68,32.992,32.992,0,0,1,10.33-11.64A32.405,32.405,0,0,1,890.9,68.6V57.3a2.893,2.893,0,0,1,4.94-2.04l26.18,26.18a2.9,2.9,0,0,1,0,4.1l-26.18,26.18a2.894,2.894,0,0,1-2.04.85ZM885.63,96.2h7.71v13.47a.475.475,0,0,0,.81.34l26.18-26.18a.483.483,0,0,0,0-.68L894.15,56.97a.44.44,0,0,0-.52-.1.453.453,0,0,0-.29.44V71h-1.2a29,29,0,0,0-26.86,15.77,45,45,0,0,0-5.02,15.81v.1l-.03.09a1.117,1.117,0,0,0,1.74,1.17,40.161,40.161,0,0,1,23.67-7.72Z" transform="translate(-857.757 -54.409)" fill="#fff"/>
</svg>
