<svg xmlns="http://www.w3.org/2000/svg" width="49.413" height="30.31" viewBox="0 0 49.413 30.31">
  <g id="Group_713" data-name="Group 713" transform="translate(-196.178 -15.175)">
    <path id="Path_45" data-name="Path 45" d="M791.54,75.79,780.855,57.256a5.96,5.96,0,0,0-10.315.164L759.32,76.694a5.3,5.3,0,0,0,4.685,7.973h22.48a5.9,5.9,0,0,0,5.055-8.877" transform="translate(-546.746 -39.182)" fill="#3156aa"/>
    <path id="Path_46" data-name="Path 46" d="M735.726,77.214l-.658-1.151c-.616-1.068-1.973-3.37-1.973-3.37l-9.041-15.7a5.922,5.922,0,0,0-10.233.616L703.3,75.817a5.9,5.9,0,0,0,5.137,8.836H746c-5.795.041-7.644-2.959-10.274-7.438" transform="translate(-506.342 -39.167)" fill="#1972e2"/>
  </g>
</svg>
