<svg xmlns="http://www.w3.org/2000/svg" width="24.402" height="40.467" viewBox="0 0 24.402 40.467">
  <g id="Group_712" data-name="Group 712" transform="translate(-113.416 -10.117)">
    <path id="Path_39" data-name="Path 39" d="M430.55,49.188V43.861a.306.306,0,0,0-.148-.262l-12.109-7.326a.306.306,0,0,0-.309,0L406.3,42.87a.306.306,0,0,0-.156.267v14.04a.307.307,0,0,0,.147.262l11.89,7.215a.307.307,0,0,0,.325,0L422.626,62a.306.306,0,0,0-.009-.521l-11.522-6.854a.306.306,0,0,1-.15-.263V46.374a.306.306,0,0,1,.162-.27l7.087-3.793a.307.307,0,0,1,.3.009l11.584,7.129a.306.306,0,0,0,.467-.261" transform="translate(-292.732 -26.112)" fill="#01185c"/>
    <path id="Path_40" data-name="Path 40" d="M414.257,83.123l3.932-2.743a.306.306,0,0,1,.331-.013L430.4,87.374a.307.307,0,0,1,.151.264v13.725a.306.306,0,0,1-.154.266l-11.89,6.809a.306.306,0,0,1-.311,0l-11.9-7.221a.306.306,0,0,1-.147-.262V95.724a.306.306,0,0,1,.465-.262L418.2,102.5a.306.306,0,0,0,.3.011l6.876-3.488a.307.307,0,0,0,.168-.273V90.454a.307.307,0,0,0-.151-.264l-11.118-6.551a.306.306,0,0,1-.02-.515" transform="translate(-292.732 -57.894)" fill="#01185c"/>
  </g>
</svg>
